<?xml version="1.0" encoding="utf-8"?>
<!-- Generator: Adobe Illustrator 26.1.0, SVG Export Plug-In . SVG Version: 6.00 Build 0)  -->
<svg version="1.1" id="Layer_1" xmlns="http://www.w3.org/2000/svg" xmlns:xlink="http://www.w3.org/1999/xlink" x="0px" y="0px"
	 viewBox="0 0 500 500" style="enable-background:new 0 0 500 500;" xml:space="preserve">
<style type="text/css">
	.st0{clip-path:url(#SVGID_00000131349310031271954770000006727094527046279345_);}
	.st1{clip-path:url(#SVGID_00000009559585569977518880000008392134137225322416_);}
	.st2{fill:#F9FAFC;}
	.st3{clip-path:url(#SVGID_00000015324146263020163560000013286360504285003671_);}
	.st4{fill:url(#SVGID_00000171711812251216193060000010833871627801480879_);}
	.st5{fill:url(#SVGID_00000104706314107469013210000005243870619189976982_);}
	.st6{clip-path:url(#SVGID_00000156578122240510436830000005553638886515832197_);}
	.st7{opacity:5.000000e-02;fill:#FFFFFF;enable-background:new    ;}
	.st8{fill:url(#SVGID_00000000185400031532580800000014278619430804989570_);}
	.st9{opacity:0.1;fill:#8A0042;enable-background:new    ;}
	.st10{opacity:0.2;fill:#E83B46;enable-background:new    ;}
	.st11{fill:url(#SVGID_00000011025240308839898110000008826789859050384524_);}
	.st12{opacity:0.1;}
	.st13{fill:#8A0042;}
	.st14{opacity:0.6;fill:url(#SVGID_00000076589854274566268620000017867806140005941688_);enable-background:new    ;}
	.st15{fill:url(#SVGID_00000063620720009130994090000005252100530656757644_);}
	.st16{opacity:0.3;fill:#8A0042;enable-background:new    ;}
	.st17{opacity:0.5;fill:url(#SVGID_00000030487108430579581960000016772145830424970142_);enable-background:new    ;}
	.st18{clip-path:url(#SVGID_00000029008478996117383060000011803229975930974906_);}
	.st19{fill:#FFFFFF;}
	.st20{fill:#FFDC40;}
	.st21{clip-path:url(#SVGID_00000076569776907215501010000015861908629678745989_);}
	.st22{opacity:0.6;fill:url(#SVGID_00000015314704420719027930000004905769886972371369_);enable-background:new    ;}
	.st23{fill:url(#SVGID_00000106125255216313549930000014480157150278460082_);}
	.st24{fill:url(#SVGID_00000065756201681896585080000011035244764178495679_);}
	.st25{fill:url(#SVGID_00000116936503225186232880000008940359823480404913_);}
	.st26{fill:url(#SVGID_00000060713344430337665890000017157067749843710897_);}
	.st27{opacity:0.2;fill:#860142;enable-background:new    ;}
	.st28{fill:url(#SVGID_00000057129130876904814400000008834593679091127936_);}
	.st29{opacity:0.2;}
	.st30{fill:#860142;}
	.st31{opacity:0.3;}
	.st32{opacity:0.4;fill:#860142;enable-background:new    ;}
	.st33{opacity:0.2;fill:#FFA36B;enable-background:new    ;}
	.st34{opacity:0.3;fill:#172879;enable-background:new    ;}
	.st35{fill:url(#SVGID_00000035489421756598630550000010636433145064787333_);}
	.st36{fill:url(#SVGID_00000105386831398077587860000015242970353768801704_);}
	.st37{fill:url(#SVGID_00000041979049880383598000000004332053439107750528_);}
	.st38{fill:url(#SVGID_00000163062822973922983540000016020055635784082821_);}
	.st39{fill:url(#SVGID_00000061431070664321285950000005980994064735273112_);}
	.st40{fill:#3B0364;}
	.st41{fill:#E2EDF7;}
	.st42{fill:url(#SVGID_00000101820669719317897650000017736495246222588310_);}
	.st43{fill:#17297A;}
	.st44{fill:url(#SVGID_00000131360575841880571580000004285983067730314418_);}
	.st45{fill:url(#SVGID_00000062161596428791240960000013602834683581253047_);}
	.st46{fill:url(#SVGID_00000181784070590596317960000013300251405143861650_);}
	.st47{fill:url(#SVGID_00000039129918668217719890000017308995530886740148_);}
	.st48{opacity:0.4;}
	.st49{opacity:0.4;fill:#CD2D2F;enable-background:new    ;}
	.st50{fill:url(#SVGID_00000158709686902327808670000010933186749837826972_);}
	.st51{fill:url(#SVGID_00000157993570483073640720000013335688992893952443_);}
	.st52{opacity:0.6;fill:url(#SVGID_00000165956932475438479290000012202658565891893414_);enable-background:new    ;}
	.st53{fill:url(#SVGID_00000059267551216364920100000010298538517667428749_);}
	.st54{fill:url(#SVGID_00000149373386726479500470000000396396783901788579_);}
	.st55{fill:url(#SVGID_00000049912973889789662630000002651092537736251277_);}
</style>
<g id="BACKGROUND_2">
</g>
<g id="DESIGNED_BY_FREEPIK">
</g>
<g>
	<defs>
		<circle id="SVGID_1_" cx="250" cy="250" r="250"/>
	</defs>
	<clipPath id="SVGID_00000054238507120378560860000008739478802934115214_">
		<use xlink:href="#SVGID_1_"  style="overflow:visible;"/>
	</clipPath>
	<g id="BACKGROUND_1" style="clip-path:url(#SVGID_00000054238507120378560860000008739478802934115214_);">
		<g>
			<g>
				<g>
					<defs>
						<circle id="SVGID_00000011012411664118903990000002747394630866114483_" cx="250" cy="250" r="171.4"/>
					</defs>
					<clipPath id="SVGID_00000018953628494566271750000005710241069175804553_">
						<use xlink:href="#SVGID_00000011012411664118903990000002747394630866114483_"  style="overflow:visible;"/>
					</clipPath>
					<g style="clip-path:url(#SVGID_00000018953628494566271750000005710241069175804553_);">
						<g>
							<g id="XMLID_141_">
								<g id="XMLID_160_">
									<path id="XMLID_168_" class="st2" d="M409.5,395.2c0,0.6,0.1,1.2,0.2,1.8l-0.5,0.2c-0.3-0.2-0.6-0.1-0.8,0.1
										c-0.2,0.3-0.2,0.6,0.1,0.9s0.6,0.2,0.9-0.1c0,0,0.1-0.1,0.1-0.2l0.5-0.1c0.2,0.6,0.5,1.1,0.9,1.6l0.6-0.4
										c-0.8-1.1-1.2-2.4-1.2-3.7H409.5z"/>
									<path id="XMLID_167_" class="st2" d="M411.8,389.7c-0.1,0.1-0.2,0.2-0.4,0.4l-0.5-0.4c0-0.2-0.1-0.5-0.3-0.6
										c-0.3-0.2-0.8-0.2-1,0.1s-0.2,0.8,0.1,1c0.2,0.2,0.5,0.2,0.7,0.1l0.5,0.4c-0.4,0.6-0.8,1.2-1,1.9l0.7,0.2
										c0.3-1,0.9-1.9,1.6-2.6c0.4-0.4,0.7-0.7,1.1-0.9l-0.4-0.6C412.6,389,412.1,389.3,411.8,389.7z"/>
									<path id="XMLID_166_" class="st2" d="M418.2,386.8c0.2-0.3,0.2-0.6-0.1-0.9s-0.6-0.2-0.9,0.1c-0.2,0.2-0.2,0.6,0.1,0.8
										l0,0.5c-0.6,0-1.2,0-1.8,0.2l0.2,0.7c1.3-0.3,2.6-0.2,3.9,0.3l0.3-0.7c-0.6-0.2-1.2-0.4-1.8-0.4l0-0.5
										C418.1,386.9,418.2,386.9,418.2,386.8z"/>
									<path id="XMLID_165_" class="st2" d="M418.6,397.3c-0.3,0.3-0.5,0.6-0.8,0.8c-0.6,0.6-1.3,1.2-1.9,1.6
										c-0.3,0.2-0.7,0.5-1.1,0.7c2.1,0.6,4.4,0,6-1.6c2-2,2.4-5.1,1-7.4c-0.2,0.8-0.5,1.6-0.9,2.5
										C420.3,395.1,419.5,396.2,418.6,397.3z"/>
									<path id="XMLID_161_" class="st2" d="M412.8,390.8c-2.4,2.4-2.4,6.2-0.1,8.5c0.3,0.3,0.6,0.6,1,0.8
										c0.8-0.1,2.5-1.3,4.3-3.3c1.9-2.2,3.1-4.4,3.2-6.2c-0.1-0.1-0.3-0.3-0.4-0.4C418.4,388.4,415,388.6,412.8,390.8z
										 M415.9,396.9c-0.7,0.7-1.9,0.7-2.6,0c-0.7-0.7-0.7-1.9,0-2.6c0.7-0.7,1.9-0.7,2.6,0C416.6,395,416.6,396.2,415.9,396.9z
										 M418.6,392.9c-0.5,0.5-1.4,0.5-1.9,0s-0.5-1.4,0-1.9s1.4-0.5,1.9,0C419.1,391.5,419.1,392.4,418.6,392.9z"/>
								</g>
								<path id="XMLID_158_" class="st2" d="M425.5,380.8c-0.3,0.1-0.8,0.4-1.1,0.8c-0.3,0.4-0.4,0.8,0.1,1.3l0.6,0.6l1.6-1.6
									l1.2,1.2l-1.6,1.6l3.9,3.9l-1.4,1.4l-3.9-3.9l-1,1l-1.2-1.2l1-1l-0.6-0.6c-1.2-1.2-1.3-2.6-0.1-3.8c0.5-0.5,0.9-0.7,1.3-0.9
									L425.5,380.8z"/>
								<path id="XMLID_156_" class="st2" d="M431.1,379.8c-0.1,0.1-0.3,0.2-0.4,0.3c-0.6,0.6-0.7,1.5,0.1,2.2l2.8,2.8l-1.4,1.4
									l-5.1-5.1l1.3-1.3l0.5,0.5c-0.2-0.8,0.1-1.5,0.7-2.1c0.3-0.3,0.7-0.5,1-0.5L431.1,379.8z"/>
								<path id="XMLID_153_" class="st2" d="M437.9,375.7c0.2,0.2,0.3,0.4,0.4,0.5l-3.6,3.6c0.9,0.6,1.7,0.4,2.4-0.2
									c0.4-0.4,0.7-1.1,0.8-1.8l1.7,0.1c0,1.1-0.5,2.1-1.4,2.9c-1.5,1.5-3.7,1.6-5.3,0c-1.6-1.6-1.6-3.7-0.1-5.2
									C434.2,374.1,436.3,374.1,437.9,375.7z M433.8,378.9l2.2-2.2c-0.8-0.5-1.5-0.5-2.1,0.1C433.3,377.4,433.3,378.1,433.8,378.9
									z"/>
								<path id="XMLID_150_" class="st2" d="M443.3,370.3c0.2,0.2,0.3,0.4,0.4,0.5l-3.6,3.6c0.9,0.6,1.7,0.4,2.4-0.2
									c0.4-0.4,0.7-1.1,0.8-1.8l1.7,0.1c0,1.1-0.5,2.1-1.4,2.9c-1.5,1.5-3.7,1.6-5.3,0c-1.6-1.6-1.6-3.7-0.1-5.2
									C439.6,368.6,441.7,368.7,443.3,370.3z M439.2,373.5l2.2-2.2c-0.8-0.5-1.5-0.5-2.1,0.1C438.7,371.9,438.7,372.7,439.2,373.5
									z"/>
								<path id="XMLID_147_" class="st2" d="M449.2,364.4c1.5,1.5,1.6,3.7,0.2,5.1c-0.7,0.7-1.4,0.9-2.1,0.8l2.6,2.6l-1.4,1.4
									l-7.2-7.2l1.3-1.3l0.6,0.6c-0.1-0.7,0.1-1.5,0.8-2.2C445.5,362.8,447.7,362.9,449.2,364.4z M445.2,368.4
									c0.8,0.8,1.9,0.9,2.7,0.1c0.8-0.8,0.7-1.9-0.1-2.7c-0.8-0.8-1.9-0.9-2.7-0.1C444.3,366.5,444.4,367.6,445.2,368.4z"/>
								<path id="XMLID_144_" class="st2" d="M447.2,358c0.5,0.5,0.5,1.2,0,1.7c-0.5,0.5-1.2,0.5-1.7,0s-0.5-1.3,0-1.8
									C446,357.5,446.7,357.5,447.2,358z M453.8,364.9l-1.4,1.4l-5.1-5.1l1.4-1.4L453.8,364.9z"/>
								<path id="XMLID_142_" class="st2" d="M452.8,359.4l0.1-3.7l1.7-1.7l-0.1,4.9l5.2,0.2l-1.7,1.7l-4-0.1l2,2l-1.4,1.4l-7.5-7.5
									l1.4-1.4L452.8,359.4z"/>
							</g>
							<g>
								<path class="st2" d="M362.9,455.7l-0.8-0.8c0.1,0.9-0.1,1.9-0.8,2.6c-1.3,1.3-3.2,1.2-4.9-0.4c-1.6-1.6-1.7-3.5-0.4-4.9
									c0.7-0.7,1.6-1,2.6-0.8l-2.7-2.7l0.8-0.8l6.9,6.9L362.9,455.7z M361.6,454.3l-2.3-2.3c-0.7-0.2-1.7,0.1-2.3,0.7
									c-1,1-0.8,2.4,0.3,3.5c1.1,1.1,2.5,1.3,3.5,0.3C361.5,456,361.7,455,361.6,454.3z"/>
								<path class="st2" d="M362.2,451.4c-1.5-1.5-1.6-3.7-0.2-5.1c1.5-1.5,3.6-1.2,5.1,0.3l0.2,0.2l-4,4c1,0.9,2.5,1,3.5-0.1
									c0.6-0.6,0.9-1.4,0.9-2.2l0.9,0.1c0,1-0.4,1.9-1.2,2.8C365.9,453,363.8,453,362.2,451.4z M362.7,447c-1.1,1.1-0.7,2.5,0,3.3
									l3.3-3.3C365.2,446.2,363.8,445.8,362.7,447z"/>
								<path class="st2" d="M369.5,447.8l-0.2-1c0.7,0,1.7-0.2,2.4-0.9c0.8-0.8,0.8-1.5,0.3-2c-1.2-1.2-3.6,2.6-5.4,0.8
									c-0.8-0.8-0.8-2.1,0.4-3.3c0.9-0.9,1.8-1.1,2.6-1.1l0.2,0.9c-0.7-0.1-1.5,0.2-2.1,0.9c-0.7,0.7-0.8,1.5-0.3,1.9
									c1.1,1.1,3.5-2.7,5.4-0.8c0.8,0.8,0.8,2.2-0.5,3.5C371.5,447.4,370.5,447.8,369.5,447.8z"/>
								<path class="st2" d="M368.8,437.4c-0.3-0.3-0.3-0.8,0-1c0.3-0.3,0.8-0.3,1.1,0s0.3,0.8,0,1
									C369.5,437.7,369,437.7,368.8,437.4z M375.1,443.5l-5-5l0.8-0.8l5,5L375.1,443.5z"/>
								<path class="st2" d="M378.5,442.7l-0.2-1c0.9,0.1,1.6-0.2,2.3-0.9c0.8-0.8,1.2-2,0.1-3.1L380,437c0.1,0.9-0.1,1.9-0.8,2.6
									c-1.3,1.3-3.2,1.2-4.8-0.4c-1.6-1.6-1.7-3.5-0.4-4.8c0.7-0.7,1.6-0.9,2.6-0.8l-0.8-0.8l0.8-0.8l4.9,4.9
									c1.7,1.7,1,3.3-0.2,4.6C380.4,442.3,379.6,442.7,378.5,442.7z M379.4,436.4l-2.2-2.2c-0.7-0.2-1.7,0.1-2.3,0.7
									c-1,1-0.8,2.4,0.3,3.5c1.1,1.1,2.5,1.3,3.5,0.3C379.3,438,379.5,437.1,379.4,436.4z"/>
								<path class="st2" d="M386.3,432.4l-3.3-3.3c-0.9-0.9-1.6-0.7-2.3,0c-0.6,0.6-0.8,1.6-0.7,2.3l3.7,3.7l-0.8,0.8l-5-5l0.8-0.8
									l0.7,0.7c-0.1-0.8,0.2-1.9,0.9-2.6c1-1,2.1-1.1,3.2,0l3.5,3.5L386.3,432.4z"/>
								<path class="st2" d="M385.5,428.1c-1.5-1.5-1.6-3.7-0.2-5.1c1.5-1.5,3.6-1.2,5.1,0.3l0.2,0.2l-4,4c1,0.9,2.5,1,3.5-0.1
									c0.6-0.6,0.9-1.4,0.9-2.2l0.9,0.1c0,1-0.4,1.9-1.2,2.8C389.2,429.6,387.1,429.6,385.5,428.1z M386,423.6
									c-1.1,1.1-0.7,2.5,0,3.3l3.3-3.3C388.6,422.9,387.1,422.5,386,423.6z"/>
								<path class="st2" d="M397.5,421.1l-0.8-0.8c0.1,0.9-0.1,1.9-0.8,2.6c-1.3,1.3-3.2,1.2-4.9-0.4c-1.6-1.6-1.7-3.5-0.4-4.9
									c0.7-0.7,1.6-1,2.6-0.8l-2.7-2.7l0.8-0.8l6.9,6.9L397.5,421.1z M396.2,419.7l-2.3-2.3c-0.7-0.2-1.7,0.1-2.3,0.7
									c-1,1-0.8,2.4,0.3,3.5c1.1,1.1,2.5,1.3,3.5,0.3C396.1,421.4,396.3,420.4,396.2,419.7z"/>
								<path class="st2" d="M402,416.6l-6.9-6.9l0.8-0.8l2.7,2.7c-0.1-1,0.1-1.9,0.8-2.6c1.3-1.3,3.3-1.2,4.9,0.4
									c1.6,1.6,1.7,3.5,0.4,4.9c-0.7,0.7-1.7,1-2.6,0.8l0.8,0.8L402,416.6z M403.7,413.8c1-1,0.8-2.4-0.3-3.5
									c-1.1-1.1-2.5-1.3-3.5-0.3c-0.6,0.6-0.9,1.6-0.7,2.3l2.3,2.3C402.1,414.6,403.1,414.4,403.7,413.8z"/>
								<path class="st2" d="M408.8,412.3c0.2-0.1,0.4-0.2,0.5-0.3c0.3-0.3,0.5-0.7,0.2-1.3l-0.4-1.1l-7.1-3l0.8-0.8l5.8,2.4
									l-2.4-5.8l0.9-0.9l3.5,8.5c0.4,1,0.2,1.8-0.5,2.5c-0.2,0.2-0.5,0.4-0.6,0.5L408.8,412.3z"/>
							</g>
						</g>
						<g>
							<g>
								<defs>
									
										<rect id="SVGID_00000008862886959335186400000015427359156953766798_" x="25.3" y="-2" transform="matrix(0.7071 -0.7071 0.7071 0.7071 -94.7496 267.3173)" width="500" height="500"/>
								</defs>
								<clipPath id="SVGID_00000034050066502712101730000001152320167634446757_">
									<use xlink:href="#SVGID_00000008862886959335186400000015427359156953766798_"  style="overflow:visible;"/>
								</clipPath>
								<g style="clip-path:url(#SVGID_00000034050066502712101730000001152320167634446757_);">
									
										<radialGradient id="SVGID_00000060740607348146703510000012397824570330766237_" cx="-236.2073" cy="-368.6718" r="765.6198" gradientTransform="matrix(0.7071 -0.7071 -0.7071 -0.7071 248.0966 18.9822)" gradientUnits="userSpaceOnUse">
										<stop  offset="0" style="stop-color:#8364FF"/>
										<stop  offset="0.7909" style="stop-color:#0025FF"/>
										<stop  offset="0.9951" style="stop-color:#99179F"/>
									</radialGradient>
									<polygon style="fill:url(#SVGID_00000060740607348146703510000012397824570330766237_);" points="714.5,171.5 170.6,715.4 
										-192.1,352.8 351.9,-191.2 									"/>
									
										<radialGradient id="SVGID_00000178890028793909478240000003753064406264119697_" cx="-238.4768" cy="-374.8323" r="860.6647" gradientTransform="matrix(0.7071 -0.7071 -0.7071 -0.7071 248.0966 18.9822)" gradientUnits="userSpaceOnUse">
										<stop  offset="0" style="stop-color:#402AFF"/>
										<stop  offset="0.7909" style="stop-color:#D3AAFF"/>
										<stop  offset="0.9951" style="stop-color:#99179F"/>
									</radialGradient>
									<path style="fill:url(#SVGID_00000178890028793909478240000003753064406264119697_);" d="M485.5-11
										c7.1-8.6,13.6-17.6,19.8-26.8L636.8,93.7c-30.3,9.1-63.3,11-95.2,10.6c-47.5-0.6-95.7-5.3-142,5.3
										c-59,13.5-109.3,50.6-162.9,78.8c-53.5,28.3-118,48.1-173.9,24.7c-25.5-10.7-46.7-29.6-63.1-52.1L106.7,54
										c29.9,6,62.7-1.5,85.5-22c14.4-13.1,25.4-30.8,43.1-38.9c23.4-10.7,51-1.1,73.1,11.9s43.1,29.8,68.4,34.7
										C418,47.7,458.7,21.3,485.5-11z M333-115.6c-21,10.2-45.7,15.6-68.2,11.5l-25.9,25.9c2.2,1.4,4.4,2.9,6.6,4.2
										C281.7-52,327.1-45.7,368-56.8c28.1-7.6,53.8-23.4,73.6-44.6l-51.9-51.9C371.5-139.5,353.5-125.6,333-115.6z"/>
								</g>
							</g>
							<g>
								<defs>
									
										<rect id="SVGID_00000029025074672236589690000007123656851272793986_" x="25.3" y="-2" transform="matrix(0.7071 -0.7071 0.7071 0.7071 -94.7496 267.3173)" width="500" height="500"/>
								</defs>
								<clipPath id="SVGID_00000084521205040182501740000012444729530114910391_">
									<use xlink:href="#SVGID_00000029025074672236589690000007123656851272793986_"  style="overflow:visible;"/>
								</clipPath>
								<g style="clip-path:url(#SVGID_00000084521205040182501740000012444729530114910391_);">
									<g>
										<ellipse class="st7" cx="426.8" cy="190.6" rx="57.9" ry="57.9"/>
										<g>
											
												<radialGradient id="SVGID_00000154423141265162548200000014559547395901178251_" cx="-14.0643" cy="-210.493" r="89.459" gradientTransform="matrix(0.7071 -0.7071 -0.7071 -0.7071 248.0966 18.9822)" gradientUnits="userSpaceOnUse">
												<stop  offset="0.3364" style="stop-color:#E83B46"/>
												<stop  offset="0.4253" style="stop-color:#E94149"/>
												<stop  offset="0.5437" style="stop-color:#EC5250"/>
												<stop  offset="0.6779" style="stop-color:#F26D5B"/>
												<stop  offset="0.7867" style="stop-color:#F78967"/>
												<stop  offset="0.8238" style="stop-color:#F89268"/>
												<stop  offset="0.8839" style="stop-color:#FAAA69"/>
												<stop  offset="0.9592" style="stop-color:#FDD16B"/>
												<stop  offset="1" style="stop-color:#FFE96D"/>
											</radialGradient>
											<path style="fill:url(#SVGID_00000154423141265162548200000014559547395901178251_);" d="M426.8,137.6
												c29.2,0,52.9,23.7,52.9,52.9s-23.7,52.9-52.9,52.9s-52.9-23.7-52.9-52.9S397.6,137.6,426.8,137.6z"/>
											<path class="st9" d="M445.3,149.2c-0.1-1.8-1.1-3.3-1.8-4.9c-0.5-1.4-0.7-2.8-0.6-4.2c12.3,3.9,22.6,12.2,29.2,23
												c-3.8,7.6-13,12.6-21.4,10.8c-1.5-0.3-3.1-0.8-4.6-0.5c-2.3,0.5-3.7,2.8-5.9,3.8c-4.2,2.1-9.6-2.1-10-6.8
												s2.8-9.1,6.8-11.8C440.7,156.2,445.6,153.6,445.3,149.2z M425.2,216c0.8-3.7,2.2-8,5.8-9.2c3.6-1.1,7.6,1.7,11.3,0.8
												c4-1,5.8-6.1,4.6-10.1c-1.2-3.9-4.5-6.9-7.9-9.3c-4.7-3.5-11.5-6.5-16-2.8c-6-2.5-1-10-1-14c0-2.2-1.7-4.5-1.5-6.3
												c0.2-3,3.1-4.9,3.1-7.8c0.1-3.8-9.7-3-11.6-2.1c-4.9,2.5-7.1,9-12.2,11.7c-3.5,1.8-7.7,2.1-10.9,4.4
												c-3,2.2-4.6,5.9-6,9.4c-2.7,6.5-5.4,13.1-8,19.6c4.3,22.8,23.2,40.4,46.7,42.8C421.4,234.1,423.2,225,425.2,216z
												 M476.1,171.1c-3.3,2.7-7.1,5-10,7.6c-7,6.3-12.9,15.5-10.9,24.7c0.4,2,1.4,4,3.2,4.9c3.9,2,8.1-2.5,9.6-6.7
												c1.5-4.1,3.2-9.3,7.5-10.2c1.5-0.3,3,0.1,4.2,0.9c0-0.6,0-1.2,0-1.9C479.8,183.7,478.5,177.1,476.1,171.1z M384.2,167.3
												c1.5-1.9,2.5-4.2,4-6.2c2.5-3.4,6.4-5.7,10.1-7.8s7.6-4.2,10.4-7.4c1.5-1.7,2.6-3.9,3.1-6.2c-15.4,4.6-27.9,15.9-34,30.7
												c0,0,0,0,0.1,0C380.3,170.8,382.7,169.2,384.2,167.3z M476,210.1c-1,0.7-2,1.3-3,1.9c-4.3,2.5-8.9,4.9-11.5,9.2
												c-1.8,2.9-2,6.9-0.5,9.8C467.6,225.4,472.8,218.3,476,210.1z M431.1,219.2c-3.1,6.6,12.2,14.3,14,20
												c0.1,0.3,0.2,0.7,0.2,1c3.8-1.4,7.4-3.3,10.7-5.5C452.9,229.2,434.9,211.2,431.1,219.2z"/>
											<path class="st10" d="M426.8,231.1c-27.1,0-49.5-20.4-52.6-46.8c-0.2,2-0.4,4.1-0.4,6.2c0,29.2,23.7,52.9,52.9,52.9
												s52.9-23.7,52.9-52.9c0-2.1-0.1-4.1-0.4-6.2C476.4,210.7,454,231.1,426.8,231.1z"/>
										</g>
									</g>
									<g>
										
											<radialGradient id="SVGID_00000092414689654809428390000008006878989073110168_" cx="-213.3191" cy="33.0911" r="97.7089" gradientTransform="matrix(0.7071 -0.7071 -0.7071 -0.7071 248.0966 18.9822)" gradientUnits="userSpaceOnUse">
											<stop  offset="0.3364" style="stop-color:#E83B46"/>
											<stop  offset="0.4253" style="stop-color:#E94149"/>
											<stop  offset="0.5437" style="stop-color:#EC5250"/>
											<stop  offset="0.6779" style="stop-color:#F26D5B"/>
											<stop  offset="0.7867" style="stop-color:#F78967"/>
											<stop  offset="0.8238" style="stop-color:#F89268"/>
											<stop  offset="0.8839" style="stop-color:#FAAA69"/>
											<stop  offset="0.9592" style="stop-color:#FDD16B"/>
											<stop  offset="1" style="stop-color:#FFE96D"/>
										</radialGradient>
										<circle style="fill:url(#SVGID_00000092414689654809428390000008006878989073110168_);" cx="121.1" cy="144" r="50.9"/>
										<g class="st12">
											<path class="st13" d="M152,136.5c-1.3-5-3.6-10-2.8-15c0.8-5.2,4.7-9.2,7.9-13.4c-3.4-3.4-7.3-6.4-11.7-8.7
												c0,20,2.6,40.3-2.9,59.5c-2.8,9.9-7.7,19.1-9.2,29.3c-0.3,1.8-0.4,3.6-0.5,5.5c1-0.2,2-0.5,2.9-0.8
												C146.1,175.5,156.9,156,152,136.5z"/>
											<path class="st13" d="M89.3,183.8c4.4-5.3,8.2-11.6,8-18.4c-0.3-9.1-7.3-17.3-6-26.2c1.5-10.5,14-18,12.7-28.5
												c-0.5-4.4-3.5-8.1-5.8-12c-7,3.5-13.1,8.6-17.8,14.9c1.4,12,2.8,24,4.3,36c0.9,7.4,1.7,15.2-1.5,21.9
												c-0.6,1.3-1.4,2.5-2.3,3.7C83.3,178.3,86.1,181.2,89.3,183.8z"/>
											<path class="st13" d="M160.1,173.8c0.1,0.9,0.2,1.8,0.3,2.7c4.8-5.8,8.4-12.7,10.2-20.5c3.2-13.1,1-26.2-5.2-37
												C161.5,137.1,158.5,155.4,160.1,173.8z"/>
											<path class="st13" d="M110,193.7c1.1-2.2,2.3-4.4,3.6-6.4c4.4-6.7,10.4-12.5,13.3-19.9c6.1-15.8-3.2-33.9,1-50.3
												c2-7.5,6.6-14,9.4-21.3c-1.4-0.5-2.8-0.9-4.2-1.2c-7.9-1.9-15.9-1.8-23.3-0.2c0,0.6,0.1,1.2,0.1,1.8
												c1.6,18.9,1.2,37.9-1.2,56.7c-1.6,12.9-4.2,25.6-7.2,38.2c2.4,1,4.9,1.8,7.5,2.4C109.4,193.6,109.7,193.6,110,193.7z"/>
										</g>
										<path class="st9" d="M170.6,144.3c-6.6,27.3-34.1,44.1-61.4,37.5c-21.3-5.1-36.2-23-38.6-43.6
											c-2.9,25.2,13.4,49.1,38.6,55.2c27.3,6.6,54.8-10.2,61.4-37.5c1.5-6,1.8-12.1,1.1-17.9
											C171.5,140.2,171.1,142.2,170.6,144.3z"/>
										
											<linearGradient id="SVGID_00000042734085612585409170000009052675623240931737_" gradientUnits="userSpaceOnUse" x1="-538.1167" y1="-512.5236" x2="-690.9297" y2="-615.8711" gradientTransform="matrix(0.8334 -0.5527 -0.5527 -0.8334 325.6812 -676.1436)">
											<stop  offset="6.060000e-02" style="stop-color:#01F4EA"/>
											<stop  offset="0.2293" style="stop-color:#3DF6E6"/>
											<stop  offset="0.4386" style="stop-color:#81F8E2"/>
											<stop  offset="0.628" style="stop-color:#B7FADF"/>
											<stop  offset="0.7906" style="stop-color:#DEFBDD"/>
											<stop  offset="0.92" style="stop-color:#F6FCDC"/>
											<stop  offset="1" style="stop-color:#FFFCDB"/>
										</linearGradient>
										
											<path style="opacity:0.6;fill:url(#SVGID_00000042734085612585409170000009052675623240931737_);enable-background:new    ;" d="
											M137.8,95.9c1.9,0.7,3.8,1.4,5.6,2.3c5.4-4.9,9.4-7.1,11.4-5.8s1.6,5.9-0.7,12.8c-3.7,10.9-12.2,27.4-23.6,44.9
											c-11.4,17.5-23.1,31.9-31.6,39.7c-5.3,4.9-9.4,7.1-11.4,5.8c-2-1.3-1.6-5.9,0.7-12.8c-1.6-1.3-3-2.7-4.4-4.2
											c-15.4,27.9-23.3,48.5-18.8,51.4c4.5,2.9,20.1-12.6,39.5-37.9c8.9-11.7,18.7-25.4,28.5-40.4c9.8-15,18.5-29.4,25.6-42.3
											c15.4-27.9,23.3-48.5,18.8-51.4C172.8,55.1,157.2,70.6,137.8,95.9z"/>
									</g>
									<g>
										<path class="st7" d="M584.2,20c-45.3,45.3-105.5,70.2-169.5,70.2c-132.2,0-239.8-107.6-239.8-239.8
											c0-64.1,24.9-124.3,70.2-169.6s105.5-70.2,169.6-70.2c132.2,0,239.8,107.6,239.8,239.8C654.4-85.5,629.5-25.2,584.2,20z"
											/>
										
											<linearGradient id="SVGID_00000091017073106646400650000001324689787645949096_" gradientUnits="userSpaceOnUse" x1="11.662" y1="1.378" x2="462.1263" y2="1.378" gradientTransform="matrix(0.7071 -0.7071 -0.7071 -0.7071 248.0966 18.9822)">
											<stop  offset="0.1096" style="stop-color:#FF3065"/>
											<stop  offset="0.3265" style="stop-color:#D5167C"/>
											<stop  offset="0.4496" style="stop-color:#C30A86"/>
											<stop  offset="0.5442" style="stop-color:#B7098A"/>
											<stop  offset="0.7149" style="stop-color:#970696"/>
											<stop  offset="0.9406" style="stop-color:#6501AA"/>
											<stop  offset="1" style="stop-color:#5600AF"/>
										</linearGradient>
										
											<circle style="fill:url(#SVGID_00000091017073106646400650000001324689787645949096_);" cx="414.6" cy="-149.5" r="225.2"/>
										<path class="st9" d="M342.6-82c21.1,21.1,21.1,55.2,0,76.3s-55.2,21.1-76.3,0s-21.1-55.2,0-76.3S321.5-103.1,342.6-82z
											 M245-237.8c-25.2,25.2-25.2,66.1,0,91.3s66.1,25.2,91.3,0s25.2-66.1,0-91.3C311.1-263,270.2-263,245-237.8z M385.3-110.9
											c25.5,25.5,66.9,25.5,92.5,0s25.5-66.9,0-92.5s-66.9-25.5-92.5,0S359.8-136.4,385.3-110.9z M348.7-329.3
											c-22.5,22.5-22.5,58.9,0,81.3s58.9,22.4,81.3,0s22.5-58.8,0-81.3C407.5-351.7,371.1-351.7,348.7-329.3z M486.5-237
											c19.8,19.8,51.9,19.8,71.7,0s19.8-51.9,0-71.7c-19.8-19.8-51.9-19.8-71.7,0S466.7-256.8,486.5-237z M537.1-93.7
											c20.8,20.8,54.5,20.8,75.3,0c20.8-20.8,20.8-54.5,0-75.3s-54.5-20.8-75.3,0C516.3-148.3,516.3-114.5,537.1-93.7z
											 M403.6-60.1c-23.4,23.4-23.4,61.4,0,84.8s61.4,23.4,84.8,0s23.4-61.4,0-84.8C465-83.5,427-83.5,403.6-60.1z M254-124.8
											c8.7,8.7,8.7,22.8,0,31.5c-8.7,8.7-22.8,8.7-31.5,0s-8.7-22.8,0-31.5S245.3-133.5,254-124.8z M287.3-305.1
											c-7.8,7.8-7.8,20.5,0,28.3c7.8,7.8,20.5,7.8,28.3,0c7.8-7.8,7.8-20.5,0-28.3C307.7-312.9,295.1-312.9,287.3-305.1z
											 M451.7-342.4c-6,6-6,15.7,0,21.7s15.7,6,21.7,0s6-15.7,0-21.7C467.5-348.4,457.7-348.4,451.7-342.4z M445.9-246.3
											c-3.1,3.1-3.1,8,0,11.1s8,3.1,11.1,0s3.1-8,0-11.1C453.9-249.4,448.9-249.4,445.9-246.3z M362-221.2
											c-2.5,2.5-2.5,6.6,0,9.1c2.5,2.5,6.6,2.5,9.1,0s2.5-6.6,0-9.1C368.6-223.7,364.6-223.7,362-221.2z M335.6-126.6
											c-5.6,5.6-5.6,14.6,0,20.2c5.6,5.6,14.6,5.6,20.2,0c5.6-5.6,5.6-14.6,0-20.2C350.3-132.1,341.2-132.1,335.6-126.6z
											 M341.6,10c-8.6,8.6-8.6,22.5,0,31.1c8.6,8.6,22.5,8.6,31.1,0c8.6-8.6,8.6-22.5,0-31.1C364.1,1.4,350.2,1.4,341.6,10z
											 M488.9-102.7c-5.8,5.8-5.8,15.2,0,21.1c5.8,5.8,15.2,5.8,21.1,0c5.8-5.8,5.8-15.2,0-21.1
											C504.1-108.5,494.7-108.5,488.9-102.7z M369.2-94.8c-6.1,6.1-6.1,15.9,0,21.9s15.9,6.1,22,0s6.1-15.9,0-21.9
											C385.1-100.8,375.3-100.8,369.2-94.8z M502.3-201.5c-6.3,6.3-6.3,16.4,0,22.7s16.4,6.3,22.7,0s6.3-16.4,0-22.7
											C518.7-207.7,508.6-207.7,502.3-201.5z M571.7-238.3c-6.5,6.5-6.5,17.1,0,23.7c6.5,6.5,17.1,6.5,23.7,0
											c6.5-6.5,6.5-17.1,0-23.7C588.8-244.9,578.2-244.9,571.7-238.3z M525.7-59.4c-12.2,12.2-12.2,31.9,0,44s31.9,12.2,44,0
											s12.2-31.9,0-44S537.9-71.5,525.7-59.4z M262-279.9c-3.5,3.5-3.5,9.1,0,12.5s9.1,3.5,12.5,0s3.5-9.1,0-12.5
											S265.5-283.4,262-279.9z M215.7-153.2c-1.7,1.7-1.7,4.5,0,6.2s4.5,1.7,6.2,0s1.7-4.5,0-6.2
											C220.3-154.9,217.5-154.9,215.7-153.2z M320.9-326.3c-1.8,1.8-1.8,4.8,0,6.6s4.8,1.8,6.6,0s1.8-4.8,0-6.6
											S322.8-328.1,320.9-326.3z"/>
										<path class="st16" d="M496.9-154.2c-0.7-15.8-7-31.3-19.1-43.3c-25.5-25.5-66.9-25.5-92.5,0c-12,12-18.4,27.6-19.1,43.3
											c-0.8-17.7,5.6-35.6,19.1-49.1c25.5-25.5,66.9-25.5,92.5,0C491.3-189.8,497.6-171.9,496.9-154.2z M457-246.3
											c-3.1-3.1-8-3.1-11.1,0c-1.9,1.9-2.6,4.6-2.1,7.1c0.3-1.5,1-2.9,2.1-4c3.1-3.1,8-3.1,11.1,0c1.1,1.1,1.9,2.6,2.1,4
											C459.6-241.8,458.9-244.4,457-246.3z M362-218.2c2.5-2.5,6.6-2.5,9.1,0c0.9,0.9,1.4,1.9,1.7,3c0.5-2.1,0-4.4-1.7-6.1
											c-2.5-2.5-6.6-2.5-9.1,0c-1.6,1.6-2.2,4-1.7,6.1C360.6-216.2,361.2-217.3,362-218.2z M525-201.5c-6.3-6.3-16.4-6.3-22.7,0
											c-3.5,3.5-5.1,8.3-4.6,12.9c0.3-3.6,1.9-7.1,4.6-9.8c6.3-6.3,16.4-6.3,22.7,0c2.7,2.7,4.3,6.2,4.6,9.8
											C530-193.2,528.5-198,525-201.5z M320.9-323.2c1.8-1.8,4.8-1.8,6.6,0c0.5,0.5,0.9,1.1,1.1,1.8c0.6-1.6,0.2-3.5-1.1-4.8
											c-1.8-1.8-4.8-1.8-6.6,0c-1.3,1.3-1.7,3.2-1.1,4.8C320.1-322.1,320.4-322.7,320.9-323.2z M287.3-302.1
											c7.8-7.8,20.5-7.8,28.3,0c3.5,3.5,5.4,8,5.8,12.6c0.4-5.6-1.5-11.4-5.8-15.6c-7.8-7.8-20.5-7.8-28.3,0
											c-4.3,4.3-6.2,10-5.8,15.6C281.8-294.1,283.8-298.6,287.3-302.1z M509.9-102.7c-5.8-5.8-15.2-5.8-21.1,0
											c-3.3,3.3-4.7,7.8-4.3,12.1c0.3-3.3,1.8-6.5,4.3-9c5.8-5.8,15.2-5.8,21.1,0c2.5,2.5,3.9,5.7,4.3,9
											C514.7-95,513.2-99.4,509.9-102.7z M451.7-339.4c6-6,15.7-6,21.7,0c2.6,2.6,4.1,5.9,4.4,9.3c0.4-4.4-1-9-4.4-12.4
											c-6-6-15.7-6-21.7,0c-3.4,3.4-4.9,8-4.4,12.4C447.6-333.5,449.1-336.8,451.7-339.4z M355.8-126.6
											c-5.6-5.6-14.6-5.6-20.2,0c-3.2,3.2-4.5,7.5-4.1,11.6c0.3-3.1,1.7-6.2,4.1-8.6c5.6-5.6,14.6-5.6,20.2,0
											c2.4,2.4,3.8,5.4,4.1,8.6C360.4-119.1,359-123.4,355.8-126.6z M391.2-94.8c-6.1-6.1-15.9-6.1-22,0
											c-3.4,3.4-4.9,8-4.5,12.5c0.3-3.4,1.8-6.8,4.5-9.4c6.1-6.1,15.9-6.1,22,0c2.6,2.6,4.1,6,4.5,9.4
											C396.1-86.7,394.6-91.3,391.2-94.8z M331.9-285.7c0.7-13.7,6.3-27.2,16.8-37.7c22.5-22.5,58.9-22.5,81.3,0
											c10.5,10.5,16.1,24,16.8,37.7c0.8-15.7-4.8-31.6-16.8-43.6c-22.5-22.5-58.9-22.5-81.3,0
											C336.7-317.3,331.1-301.4,331.9-285.7z M537.1-169.1c-11.1,11.1-16.3,26-15.5,40.6c0.7-12.6,5.8-25.1,15.5-34.8
											c20.8-20.8,54.5-20.8,75.3,0c9.7,9.7,14.8,22.1,15.5,34.8c0.8-14.6-4.4-29.4-15.5-40.6
											C591.6-189.9,557.9-189.9,537.1-169.1z M525.7-59.4c-6.5,6.5-9.5,15.1-9.1,23.5c0.4-7.5,3.4-14.8,9.1-20.5
											c12.2-12.2,31.9-12.2,44,0c5.7,5.7,8.7,13,9.1,20.5c0.4-8.5-2.6-17.1-9.1-23.5C557.6-71.5,537.9-71.5,525.7-59.4z
											 M486.5-308.8c-10.6,10.6-15.6,24.8-14.8,38.8c0.7-12,5.6-23.8,14.8-33c19.8-19.8,51.9-19.8,71.7,0
											c9.2,9.2,14.1,21,14.8,33c0.8-13.9-4.1-28.1-14.8-38.8C538.4-328.6,506.3-328.6,486.5-308.8z M571.7-238.3
											c-3.7,3.6-5.3,8.6-4.8,13.4c0.3-3.8,2-7.4,4.8-10.3c6.5-6.5,17.1-6.5,23.7,0c2.9,2.9,4.5,6.5,4.8,10.3
											c0.4-4.8-1.2-9.7-4.8-13.4C588.8-244.9,578.2-244.9,571.7-238.3z M262-276.9c3.5-3.5,9.1-3.5,12.5,0
											c1.3,1.3,2.2,3,2.5,4.7c0.5-2.7-0.3-5.7-2.5-7.8c-3.5-3.5-9.1-3.5-12.5,0c-2.1,2.1-2.9,5-2.5,7.8
											C259.9-273.9,260.7-275.5,262-276.9z M403.6-60.1c-12.5,12.5-18.3,29-17.5,45.3c0.7-14.4,6.5-28.5,17.5-39.5
											c23.4-23.4,61.4-23.4,84.8,0c11,11,16.8,25.1,17.5,39.5c0.8-16.3-5-32.9-17.5-45.3C465-83.5,427-83.5,403.6-60.1z
											 M341.6,10c-4.7,4.7-6.8,11-6.4,17.1c0.4-5.1,2.5-10.1,6.4-14c8.6-8.6,22.5-8.6,31.1,0c3.9,3.9,6,8.9,6.4,14
											c0.4-6.1-1.7-12.4-6.4-17.1C364.1,1.4,350.2,1.4,341.6,10z M245-232c25.2-25.2,66.1-25.2,91.3,0
											c11.9,11.9,18.1,27.2,18.8,42.7c0.8-17.5-5.5-35.2-18.8-48.6c-25.2-25.2-66.1-25.2-91.3,0c-13.3,13.3-19.6,31.1-18.8,48.6
											C226.9-204.8,233.2-220.2,245-232z M215.7-150.1c1.7-1.7,4.5-1.7,6.2,0c0.5,0.5,0.8,1,1,1.6c0.6-1.6,0.2-3.4-1-4.6
											c-1.7-1.7-4.5-1.7-6.2,0c-1.3,1.3-1.6,3.1-1,4.6C214.9-149.1,215.3-149.6,215.7-150.1z M222.5-121.7
											c8.7-8.7,22.8-8.7,31.5,0c4,4,6.1,9.1,6.5,14.2c0.4-6.2-1.7-12.5-6.5-17.3c-8.7-8.7-22.8-8.7-31.5,0
											c-4.7,4.7-6.9,11.1-6.5,17.3C216.3-112.7,218.5-117.8,222.5-121.7z M266.3-76.2c21.1-21.1,55.2-21.1,76.3,0
											c9.8,9.8,15,22.4,15.7,35.2c0.8-14.8-4.4-29.8-15.7-41.1c-21.1-21.1-55.2-21.1-76.3,0C255-70.8,249.8-55.8,250.6-41
											C251.3-53.8,256.5-66.4,266.3-76.2z"/>
										
											<linearGradient id="SVGID_00000066480820204782407180000005047686852303561135_" gradientUnits="userSpaceOnUse" x1="11.6625" y1="-23.8598" x2="411.6501" y2="-23.8598" gradientTransform="matrix(0.7071 -0.7071 -0.7071 -0.7071 248.0966 18.9822)">
											<stop  offset="0" style="stop-color:#9796FE"/>
											<stop  offset="0.9927" style="stop-color:#FF7DFF"/>
										</linearGradient>
										
											<path style="opacity:0.5;fill:url(#SVGID_00000066480820204782407180000005047686852303561135_);enable-background:new    ;" d="
											M414.6,29.6C298,29.6,202.1-59,190.6-172.6c-0.8,7.6-1.2,15.3-1.2,23.1c0,124.4,100.8,225.2,225.2,225.2
											S639.9-25.1,639.9-149.5c0-7.8-0.4-15.5-1.2-23.1C627.1-59,531.2,29.6,414.6,29.6z"/>
									</g>
								</g>
							</g>
							<g>
								<defs>
									
										<rect id="SVGID_00000013901263823422131130000012364595510362234035_" x="25.3" y="-2" transform="matrix(0.7071 -0.7071 0.7071 0.7071 -94.7496 267.3173)" width="500" height="500"/>
								</defs>
								<clipPath id="SVGID_00000062910601991505281260000011493960948867499178_">
									<use xlink:href="#SVGID_00000013901263823422131130000012364595510362234035_"  style="overflow:visible;"/>
								</clipPath>
								<g style="clip-path:url(#SVGID_00000062910601991505281260000011493960948867499178_);">
									<g>
										<path class="st19" d="M163.1,335l2.2,0.7c0.8,0.2,1.6,0.2,2.4,0l2.2-0.6c0.1,0,0.2,0.1,0.1,0.1l-0.6,2.2
											c-0.2,0.8-0.2,1.6,0,2.4l0.7,2.2c0,0.1-0.1,0.2-0.1,0.1l-2.2-0.7c-0.8-0.2-1.6-0.2-2.4,0l-2.2,0.6c-0.1,0-0.2-0.1-0.1-0.1
											l0.6-2.2c0.2-0.8,0.2-1.6,0-2.4l-0.7-2.2C162.9,335.1,163,335,163.1,335z"/>
										<path class="st19" d="M560.2,65.3l2.2,0.7c0.8,0.2,1.6,0.2,2.4,0l2.2-0.6c0.1,0,0.2,0.1,0.1,0.1l-0.6,2.2
											c-0.2,0.8-0.2,1.6,0,2.4l0.7,2.2c0,0.1,0,0.2-0.1,0.1l-2.2-0.7c-0.8-0.2-1.6-0.2-2.4,0l-2.2,0.6c-0.1,0-0.2-0.1-0.1-0.1
											l0.6-2.2c0.2-0.8,0.2-1.6,0-2.4l-0.7-2.2C560.1,65.3,560.2,65.2,560.2,65.3z"/>
										<path class="st19" d="M328.7,143.7l2.2,0.7c0.8,0.2,1.6,0.2,2.4,0l2.2-0.6c0.1,0,0.2,0.1,0.1,0.1l-0.6,2.2
											c-0.2,0.8-0.2,1.6,0,2.4l0.7,2.2c0,0.1,0,0.2-0.1,0.1l-2.2-0.7c-0.8-0.2-1.6-0.2-2.4,0l-2.2,0.6c-0.1,0-0.2-0.1-0.1-0.1
											l0.6-2.2c0.2-0.8,0.2-1.6,0-2.4l-0.7-2.2C328.5,143.8,328.6,143.7,328.7,143.7z"/>
										<path class="st19" d="M591.6,240.9l2.2,0.7c0.8,0.2,1.6,0.2,2.4,0l2.2-0.6c0.1,0,0.2,0.1,0.1,0.1l-0.6,2.2
											c-0.2,0.8-0.2,1.6,0,2.4l0.7,2.2c0,0.1,0,0.2-0.1,0.1l-2.2-0.7c-0.8-0.2-1.6-0.2-2.4,0l-2.2,0.6c-0.1,0-0.2-0.1-0.1-0.1
											l0.6-2.2c0.2-0.8,0.2-1.6,0-2.4l-0.7-2.2C591.4,241,591.5,240.9,591.6,240.9z"/>
										<path class="st19" d="M329.1,225.3l2.2,0.7c0.8,0.2,1.6,0.2,2.4,0l2.2-0.6c0.1,0,0.2,0.1,0.1,0.1l-0.6,2.2
											c-0.2,0.8-0.2,1.6,0,2.4l0.7,2.2c0,0.1,0,0.2-0.1,0.1l-2.2-0.7c-0.8-0.2-1.6-0.2-2.4,0l-2.2,0.6c-0.1,0-0.2-0.1-0.1-0.1
											l0.6-2.2c0.2-0.8,0.2-1.6,0-2.4l-0.7-2.2C328.9,225.4,329,225.3,329.1,225.3z"/>
										<path class="st19" d="M211.6,30.3l2.3,0.7c0.8,0.2,1.6,0.2,2.4,0l2.3-0.7c0.1,0,0.2,0.1,0.1,0.1l-0.7,2.3
											c-0.2,0.8-0.2,1.6,0,2.4l0.7,2.3c0,0.1-0.1,0.2-0.1,0.1l-2.3-0.7c-0.8-0.2-1.6-0.2-2.4,0l-2.3,0.7c-0.1,0-0.2-0.1-0.1-0.1
											l0.7-2.3c0.2-0.8,0.2-1.6,0-2.4l-0.7-2.3C211.5,30.4,211.5,30.3,211.6,30.3z"/>
										<path class="st19" d="M326.8,313.1l2.3,0.7c0.8,0.2,1.6,0.2,2.4,0l2.3-0.7c0.1,0,0.2,0.1,0.1,0.1l-0.7,2.3
											c-0.2,0.8-0.2,1.6,0,2.4l0.7,2.3c0,0.1-0.1,0.2-0.1,0.1l-2.3-0.7c-0.8-0.2-1.6-0.2-2.4,0l-2.3,0.7c-0.1,0-0.2-0.1-0.1-0.1
											l0.7-2.3c0.2-0.8,0.2-1.6,0-2.4l-0.7-2.3C326.6,313.1,326.7,313,326.8,313.1z"/>
										<path class="st19" d="M104.6,218.3l0.9,0.2c0.3,0.1,0.6,0.1,0.9,0l0.9-0.2c0,0,0.1,0,0.1,0.1l-0.2,0.9
											c-0.1,0.3-0.1,0.6,0,0.9l0.2,0.9c0,0,0,0.1-0.1,0.1l-0.9-0.2c-0.3-0.1-0.6-0.1-0.9,0l-0.9,0.2c0,0-0.1,0-0.1-0.1l0.2-0.9
											c0.1-0.3,0.1-0.6,0-0.9L104.6,218.3C104.6,218.3,104.6,218.3,104.6,218.3z"/>
										<path class="st19" d="M173.4,231.2l0.9,0.2c0.3,0.1,0.6,0.1,0.9,0l0.9-0.2c0,0,0.1,0,0.1,0.1l-0.2,0.9
											c-0.1,0.3-0.1,0.6,0,0.9l0.2,0.9c0,0,0,0.1-0.1,0.1l-0.9-0.2c-0.3-0.1-0.6-0.1-0.9,0l-0.9,0.2c0,0-0.1,0-0.1-0.1l0.2-0.9
											c0.1-0.3,0.1-0.6,0-0.9L173.4,231.2C173.3,231.2,173.3,231.2,173.4,231.2z"/>
										<path class="st19" d="M293.3,131.5l0.9,0.2c0.3,0.1,0.6,0.1,0.9,0l0.9-0.2c0,0,0.1,0,0,0.1l-0.2,0.9
											c-0.1,0.3-0.1,0.6,0,0.9l0.2,0.9c0,0,0,0.1,0,0.1l-0.9-0.2c-0.3-0.1-0.6-0.1-0.9,0l-0.9,0.2c0,0-0.1,0,0-0.1l0.2-0.9
											c0.1-0.3,0.1-0.6,0-0.9L293.3,131.5C293.3,131.5,293.3,131.5,293.3,131.5z"/>
										<path class="st19" d="M-15.9,202.9l0.9,0.2c0.3,0.1,0.6,0.1,0.9,0l0.9-0.2c0,0,0.1,0,0.1,0.1l-0.2,0.9
											c-0.1,0.3-0.1,0.6,0,0.9l0.2,0.9c0,0,0,0.1-0.1,0.1l-0.9-0.2c-0.3-0.1-0.6-0.1-0.9,0l-0.9,0.2c0,0-0.1,0-0.1-0.1l0.2-0.9
											c0.1-0.3,0.1-0.6,0-0.9L-15.9,202.9C-16,203-15.9,202.9-15.9,202.9z"/>
										<path class="st19" d="M85,256.8l1.1,0.3c0.4,0.1,0.8,0.1,1.2,0l1.1-0.3c0,0,0.1,0,0.1,0.1l-0.3,1.1
											c-0.1,0.4-0.1,0.8,0,1.2l0.3,1.1c0,0,0,0.1-0.1,0.1l-1.1-0.3c-0.4-0.1-0.8-0.1-1.2,0l-1.1,0.3c0,0-0.1,0-0.1-0.1l0.3-1.1
											c0.1-0.4,0.1-0.8,0-1.2L85,256.8C85,256.8,85,256.8,85,256.8z"/>
										<path class="st19" d="M539.7,131.3l0.9,0.2c0.3,0.1,0.6,0.1,0.9,0l0.9-0.2c0,0,0.1,0,0,0.1l-0.2,0.9
											c-0.1,0.3-0.1,0.6,0,0.9l0.2,0.9c0,0,0,0.1,0,0.1l-0.9-0.2c-0.3-0.1-0.6-0.1-0.9,0l-0.9,0.2c0,0-0.1,0,0-0.1l0.2-0.9
											c0.1-0.3,0.1-0.6,0-0.9L539.7,131.3C539.7,131.3,539.7,131.3,539.7,131.3z"/>
										<path class="st19" d="M520.2,169.8l1.1,0.3c0.4,0.1,0.8,0.1,1.2,0l1.1-0.3c0,0,0.1,0,0.1,0.1l-0.3,1.1
											c-0.1,0.4-0.1,0.8,0,1.2l0.3,1.1c0,0,0,0.1-0.1,0.1l-1.1-0.3c-0.4-0.1-0.8-0.1-1.2,0l-1.1,0.3c0,0-0.1,0-0.1-0.1l0.3-1.1
											c0.1-0.4,0.1-0.8,0-1.2L520.2,169.8C520.1,169.8,520.1,169.8,520.2,169.8z"/>
										<path class="st19" d="M6.8,189.3l1.1,0.3c0.4,0.1,0.8,0.1,1.2,0l1.1-0.3c0,0,0.1,0,0.1,0.1l-0.3,1.1
											c-0.1,0.4-0.1,0.8,0,1.2l0.3,1.1c0,0,0,0.1-0.1,0.1l-1.1-0.3c-0.4-0.1-0.8-0.1-1.2,0l-1.1,0.3c0,0-0.1,0-0.1-0.1l0.3-1.1
											c0.1-0.4,0.1-0.8,0-1.2L6.8,189.3C6.7,189.3,6.7,189.3,6.8,189.3z"/>
										<path class="st19" d="M199.3,3.5l1.1,0.3c0.4,0.1,0.8,0.1,1.2,0l1.1-0.3c0,0,0.1,0,0.1,0.1l-0.3,1.1
											c-0.1,0.4-0.1,0.8,0,1.2l0.3,1.1c0,0,0,0.1-0.1,0.1l-1.1-0.3c-0.4-0.1-0.8-0.1-1.2,0l-1.1,0.3c0,0-0.1,0-0.1-0.1l0.3-1.1
											c0.1-0.4,0.1-0.8,0-1.2L199.3,3.5C199.2,3.6,199.2,3.5,199.3,3.5z"/>
										<path class="st19" d="M443.7,120.1l1.6,0.5c0.5,0.2,1.1,0.2,1.7,0l1.6-0.5c0.1,0,0.1,0,0.1,0.1l-0.5,1.6
											c-0.2,0.6-0.2,1.1,0,1.7l0.5,1.6c0,0.1,0,0.1-0.1,0.1l-1.6-0.5c-0.5-0.2-1.1-0.2-1.7,0l-1.6,0.5c-0.1,0-0.1,0-0.1-0.1
											l0.5-1.6c0.2-0.6,0.2-1.1,0-1.7l-0.5-1.6C443.5,120.1,443.6,120,443.7,120.1z"/>
									</g>
									<g>
										<path class="st20" d="M489.4,116.4c0.4,0.4,0.4,1.2,0,1.6c-0.4,0.4-1.2,0.4-1.6,0c-0.4-0.4-0.4-1.2,0-1.6
											C488.2,116,488.9,116,489.4,116.4z"/>
										<path class="st20" d="M367.3,243.2c0.4,0.4,0.4,1.2,0,1.6c-0.4,0.4-1.2,0.4-1.6,0c-0.4-0.4-0.4-1.2,0-1.6
											S366.9,242.8,367.3,243.2z"/>
										<path class="st20" d="M389.3,284c0.4,0.4,0.4,1.2,0,1.6c-0.4,0.4-1.2,0.4-1.6,0c-0.4-0.4-0.4-1.2,0-1.6
											C388.1,283.6,388.9,283.6,389.3,284z"/>
										<path class="st20" d="M575.2,108c0.3,0.3,0.3,0.9,0,1.2c-0.3,0.3-0.8,0.3-1.2,0c-0.3-0.3-0.3-0.9,0-1.2
											C574.3,107.7,574.8,107.7,575.2,108z"/>
										<path class="st20" d="M173.8,185.7c0.3,0.3,0.3,0.9,0,1.2s-0.9,0.3-1.2,0s-0.3-0.9,0-1.2S173.5,185.4,173.8,185.7z"/>
										<path class="st20" d="M590.7,68.2c0.5,0,0.9,0.3,0.9,0.8s-0.3,0.9-0.7,0.9c-0.5,0-0.9-0.3-0.9-0.8
											C590,68.6,590.3,68.2,590.7,68.2z"/>
										<circle class="st20" cx="26.6" cy="177.3" r="2.1"/>
										<path class="st20" d="M364,268.3c0.8,0.8,0.8,2.2,0,3s-2.2,0.8-3,0s-0.8-2.2,0-3C361.9,267.5,363.2,267.5,364,268.3z"/>
										
											<ellipse transform="matrix(0.3246 -0.9459 0.9459 0.3246 317.8629 630.7836)" class="st20" cx="600.6" cy="92.8" rx="2.1" ry="2.1"/>
										<path class="st20" d="M297.2,89c0.8,0.8,0.8,2.2,0,3s-2.2,0.8-3,0s-0.8-2.2,0-3S296.4,88.2,297.2,89z"/>
										<path class="st20" d="M198.1,119.2c0.8,0.8,0.8,2.2,0,3s-2.2,0.8-3,0c-0.8-0.8-0.8-2.2,0-3
											C195.9,118.4,197.2,118.4,198.1,119.2z"/>
										<circle class="st20" cx="378.4" cy="101" r="2.1"/>
										<path class="st20" d="M194.6-7.6c0.8,0.8,0.8,2.2,0,3s-2.2,0.8-3,0c-0.8-0.8-0.8-2.2,0-3C192.4-8.4,193.8-8.4,194.6-7.6z"
											/>
										<path class="st20" d="M44.2,200.8c0.4,0.4,0.4,1.2,0,1.6c-0.4,0.4-1.2,0.4-1.6,0c-0.4-0.4-0.4-1.2,0-1.6
											C43,200.4,43.7,200.4,44.2,200.8z"/>
										<path class="st20" d="M121.1,290.6c0.4,0.4,0.4,1.2,0,1.6c-0.4,0.4-1.2,0.4-1.6,0c-0.4-0.4-0.4-1.2,0-1.6
											C119.9,290.1,120.7,290.1,121.1,290.6z"/>
										<circle class="st20" cx="340.7" cy="268.2" r="0.9"/>
										<circle class="st20" cx="330.7" cy="341.5" r="0.9"/>
										<circle class="st20" cx="487.5" cy="130.1" r="0.5"/>
										<path class="st20" d="M211.8,100.4c0.2,0.2,0.2,0.5,0,0.7c-0.2,0.2-0.5,0.2-0.6,0s-0.2-0.5,0-0.7
											C211.3,100.3,211.6,100.3,211.8,100.4z"/>
										<path class="st20" d="M191.8,77.2c0.5-0.1,0.9,0.3,0.9,0.8c0.1,0.5-0.3,0.9-0.8,0.9c-0.5,0.1-0.9-0.3-0.9-0.8
											C191,77.7,191.3,77.3,191.8,77.2z"/>
										<path class="st20" d="M270.7,61.7c0.5,0,0.9,0.3,0.9,0.8c0,0.5-0.3,0.9-0.8,0.9c-0.5,0-0.9-0.3-0.9-0.8
											S270.2,61.8,270.7,61.7z"/>
										<path class="st20" d="M196.3,165.2c0.5-0.1,0.9,0.3,0.9,0.8c0.1,0.5-0.3,0.9-0.8,0.9c-0.5,0.1-0.9-0.3-0.9-0.8
											C195.5,165.6,195.9,165.2,196.3,165.2z"/>
										<circle class="st20" cx="608.3" cy="120.8" r="0.5"/>
										<path class="st20" d="M132.5,305.6c0.3,0.3,0.3,0.9,0,1.2s-0.9,0.3-1.2,0s-0.3-0.9,0-1.2
											C131.6,305.3,132.2,305.3,132.5,305.6z"/>
										<circle class="st20" cx="381.3" cy="322.9" r="0.5"/>
										<circle class="st20" cx="395.6" cy="241.1" r="0.5"/>
										<path class="st20" d="M150.7,258.3c0.3,0.3,0.3,0.9,0,1.2s-0.9,0.3-1.2,0s-0.3-0.9,0-1.2S150.4,258,150.7,258.3z"/>
										<path class="st20" d="M174.9,251.4c-0.3,0.3-0.9,0.3-1.2,0s-0.3-0.9,0-1.2s0.9-0.3,1.2,0
											C175.3,250.5,175.3,251.1,174.9,251.4z"/>
										<path class="st20" d="M292.9,321.9c0.2,0.2,0.2,0.5,0,0.7s-0.5,0.2-0.7,0s-0.2-0.5,0-0.7
											C292.4,321.7,292.7,321.7,292.9,321.9z"/>
										<path class="st20" d="M395.3,243.1c0.2,0.2,0.2,0.5,0,0.7s-0.5,0.2-0.7,0.1s-0.2-0.5,0-0.7
											C394.8,243,395.1,243,395.3,243.1z"/>
										<path class="st20" d="M38.7,223.7c0.2,0.1,0.3,0.4,0.2,0.6s-0.4,0.4-0.6,0.2s-0.3-0.4-0.2-0.6S38.5,223.6,38.7,223.7z"/>
									</g>
								</g>
							</g>
							<g>
								<defs>
									
										<rect id="SVGID_00000119799161772254670640000016314773225717705659_" x="25.3" y="-2" transform="matrix(0.7071 -0.7071 0.7071 0.7071 -94.7496 267.3173)" width="500" height="500"/>
								</defs>
								<clipPath id="SVGID_00000111152075424923770440000011170115122184283563_">
									<use xlink:href="#SVGID_00000119799161772254670640000016314773225717705659_"  style="overflow:visible;"/>
								</clipPath>
								<g style="clip-path:url(#SVGID_00000111152075424923770440000011170115122184283563_);">
									
										<linearGradient id="SVGID_00000178200374294423257010000009989360313798861465_" gradientUnits="userSpaceOnUse" x1="-1057.6761" y1="-1459.4042" x2="-1057.6761" y2="-1910.7937" gradientTransform="matrix(1 0 0 -1 1305.1099 -1391.5959)">
										<stop  offset="6.060000e-02" style="stop-color:#01F4EA"/>
										<stop  offset="0.2293" style="stop-color:#3DF6E6"/>
										<stop  offset="0.4386" style="stop-color:#81F8E2"/>
										<stop  offset="0.628" style="stop-color:#B7FADF"/>
										<stop  offset="0.7906" style="stop-color:#DEFBDD"/>
										<stop  offset="0.92" style="stop-color:#F6FCDC"/>
										<stop  offset="1" style="stop-color:#FFFCDB"/>
									</linearGradient>
									
										<path style="opacity:0.6;fill:url(#SVGID_00000178200374294423257010000009989360313798861465_);enable-background:new    ;" d="
										M699.7,366.9c-1.9-41.4-10.1-82.6-7.9-124.1L646.7,120c-19-7.7-41.3-6.9-59.7,2.1c-18.5,9-32.8,25.9-38.6,45.6
										c-5.9,20-5.1,45.2-22.8,56.2c-13.9,8.6-33,6.6-45.8,17.1c-11.8,9.7-7.1,25.5-16.2,36.5c-5,6-13.3,7.8-21.1,8.5
										c-15.9,1.3-30.3,2.8-38,18.5c-2.6,5.4-4.8,11.2-9.1,15.5c-12,11.7-26.1-7.1-39.4,0.1c-17.6,9.4-2.3,41.4-24,46.7
										c-7.4,1.8-15.7-2.7-18.2-9.8c-2-5.6-1.1-12.7-5.6-16.6c-6.1-5.2-16.8,0.1-22.8-5.1c-3.3-2.8-3.8-7.6-3.6-11.9
										c0.1-4.3,0.7-8.8-1.2-12.7c-5.1-10.6-23.8-8.6-28.2-19.5c-0.8-2-1-4.3-1.9-6.3c-0.7-1.6-1.8-2.8-3-3.2
										c-1.2,0.4-2.4,1.6-3,3.2c-0.9,2-1,4.3-1.9,6.3c-4.4,10.9-23,8.9-28.2,19.5c-1.9,3.9-1.3,8.4-1.2,12.7
										c0.1,4.3-0.4,9.1-3.6,11.9c-6.1,5.2-16.8-0.1-22.8,5.1c-4.5,3.9-3.6,11-5.6,16.6c-2.6,7.1-10.9,11.6-18.2,9.8
										c-22.3-5.4-5.6-42.4-27.2-48.1c-10.1-2.6-20.3,7.9-30.3,5.1c-10.9-3-12.2-18.1-19.5-26.7c-6.3-7.4-16.7-9.6-26.4-10.6
										c-9.7-1.1-19.9-1.8-27.9-7.4c-11.3-8-4.1-16.1-7.5-25.7c-3.3-9.4-14.7-17.5-23.7-20.5c-10.2-3.5-21.9-3.2-31.1-8.9
										c-17.7-11-16.9-36.2-22.8-56.2c-5.8-19.7-20.2-36.7-38.6-45.6s-40.7-9.7-59.7-2.1L-197,242.8c2.2,41.4-6,82.6-7.9,124.1
										s3.7,85.6,29.4,118.1c26.6,33.7,70.2,49,112.5,56.4c84.8,14.8,174,3.4,252.4-32.2c22.7-10.3,45.7-23.8,57.4-45.8
										c0.2-0.3,0.3-0.6,0.5-1c0.2,0.3,0.3,0.6,0.5,1c11.8,22,34.8,35.4,57.5,45.8c78.4,35.6,167.6,47,252.4,32.2
										c42.3-7.4,85.9-22.7,112.5-56.4C696.1,452.5,701.6,408.3,699.7,366.9z"/>
									
										<linearGradient id="SVGID_00000054956545901801091820000008513626011993102750_" gradientUnits="userSpaceOnUse" x1="-175.5412" y1="-213.1875" x2="-303.5084" y2="-334.9625" gradientTransform="matrix(0.7071 -0.7071 -0.7071 -0.7071 248.0966 18.9822)">
										<stop  offset="0" style="stop-color:#FFFFFF"/>
										<stop  offset="0.178" style="stop-color:#FFFDF8"/>
										<stop  offset="0.4433" style="stop-color:#FFF6E3"/>
										<stop  offset="0.7615" style="stop-color:#FFEBC2"/>
										<stop  offset="1" style="stop-color:#FFE2A5"/>
									</linearGradient>
									<path style="fill:url(#SVGID_00000054956545901801091820000008513626011993102750_);" d="M744.9,159.1
										c-3.3-13.8-11.2-26.6-22.9-34.5c-14.2-9.6-34-11.1-48.4-2c-24.6,15.5-25.4,52-45,73.5c-8.7,9.6-20.6,15.5-32.2,21.1
										s-23.6,11.1-32.9,20.1c-13.8,13.4-13.4,32.1-17.1,49.6c-4.5,21.3-12.8,44.9-32.8,53.4c-17.7,7.5-37.8,0.4-56.3-5
										c-18.5-5.4-41.1-8-54.6,5.7c-11.1,11.3-13.2,31.2-27.7,37.6c-7.7,3.4-16.5,1.7-24.9,2.3c-10.6,0.8-17.8,17.6-27.7,22.7
										c-10.6,5.3-27.1,3.6-32.2-8.6c-2.5-6-2.3-12.8-2.9-19.3c-0.5-6.5-2.1-13.5-7-17.8c-4.7-4.1-14-6.1-14.6-13.6
										c-0.3-3.8,1.3-7.4,2.5-11c1.3-3.6,2.2-7.6,0.6-11c-2.5-5.4-10-7-12.4-12.4c-1.7-4,0-8.5-0.3-12.8
										c-0.2-3.3-4.7-11.5-8.6-12.5c-3.9,1-8.4,9.2-8.6,12.5c-0.2,4.3,1.4,8.8-0.3,12.8c-2.3,5.4-9.9,7-12.4,12.4
										c-1.6,3.4-0.7,7.5,0.6,11s2.9,7.2,2.5,11c-0.6,7.5-9.9,9.5-14.6,13.6c-4.9,4.3-6.5,11.3-7,17.8s-0.4,13.3-2.9,19.3
										c-5,12.2-21.6,13.9-32.2,8.6c-10-5-17.1-21.9-27.7-22.7c-8.4-0.6-17.2,1.1-24.9-2.3c-14.5-6.4-16.6-26.3-27.7-37.6
										c-13.5-13.7-36.1-11.1-54.6-5.7c-18.5,5.4-38.6,12.5-56.3,5c-20-8.5-28.3-32.1-32.8-53.4c-4.5-21.3-8.6-44.8-25.4-58.7
										c-0.2-0.1-0.3-0.2-0.5-0.4L-193.4,344l376.7,376.7l20.1-20.1L744.9,159.1z"/>
									<g>
										
											<linearGradient id="SVGID_00000160190261475970222980000012448719045344205955_" gradientUnits="userSpaceOnUse" x1="-1090.735" y1="-1620.2358" x2="-1090.735" y2="-1684.5784" gradientTransform="matrix(1 0 0 -1 1305.1099 -1391.5959)">
											<stop  offset="0" style="stop-color:#580043"/>
											<stop  offset="0.1707" style="stop-color:#630043"/>
											<stop  offset="0.4728" style="stop-color:#810043"/>
											<stop  offset="0.8683" style="stop-color:#B10043"/>
											<stop  offset="1" style="stop-color:#C30043"/>
										</linearGradient>
										<path style="fill:url(#SVGID_00000160190261475970222980000012448719045344205955_);" d="M236.4,251.4l-6.7-33.9
											c0,0-29,19.5-36.1,62.1c-0.9,5.7-1.3,11.1-1.3,16.3C207,281,221.7,266.2,236.4,251.4z"/>
										
											<linearGradient id="SVGID_00000095326387777251614420000008602017483217759875_" gradientUnits="userSpaceOnUse" x1="-1024.6147" y1="-1620.2358" x2="-1024.6147" y2="-1684.5784" gradientTransform="matrix(1 0 0 -1 1305.1099 -1391.5959)">
											<stop  offset="0" style="stop-color:#580043"/>
											<stop  offset="0.1707" style="stop-color:#630043"/>
											<stop  offset="0.4728" style="stop-color:#810043"/>
											<stop  offset="0.8683" style="stop-color:#B10043"/>
											<stop  offset="1" style="stop-color:#C30043"/>
										</linearGradient>
										<path style="fill:url(#SVGID_00000095326387777251614420000008602017483217759875_);" d="M258.4,251.4l6.7-33.9
											c0,0,29,19.5,36.1,62.1c1,5.7,1.3,11.1,1.3,16.3C287.8,281,273.2,266.2,258.4,251.4z"/>
										
											<linearGradient id="SVGID_00000026858640811719325380000011840799324559000978_" gradientUnits="userSpaceOnUse" x1="-1085.5679" y1="-1572.8159" x2="-1029.7811" y2="-1572.8159" gradientTransform="matrix(1 0 0 -1 1305.1099 -1391.5959)">
											<stop  offset="0" style="stop-color:#E3EEF8"/>
											<stop  offset="5.640000e-02" style="stop-color:#CBDDF4"/>
											<stop  offset="0.1349" style="stop-color:#B1CBF0"/>
											<stop  offset="0.2154" style="stop-color:#9EBEED"/>
											<stop  offset="0.2982" style="stop-color:#93B6EC"/>
											<stop  offset="0.3872" style="stop-color:#8FB3EB"/>
											<stop  offset="0.5018" style="stop-color:#A4C2EE"/>
											<stop  offset="0.7373" style="stop-color:#DAE7F6"/>
											<stop  offset="0.7788" style="stop-color:#E4EEF7"/>
											<stop  offset="1" style="stop-color:#C7D9F2"/>
										</linearGradient>
										<path style="fill:url(#SVGID_00000026858640811719325380000011840799324559000978_);" d="M247.4,85.1
											c27.2,46,29.7,79.8,27.1,140.6c-1.2,27.9-16.6,51.7-16.6,51.7h-10.5h-10.5c0,0-15.3-23.8-16.6-51.7
											C217.7,164.9,220.2,131.1,247.4,85.1z"/>
										<path class="st27" d="M280.7,232.8c0.2,0.2,0.3,0.4,0.5,0.6v16.3l17.1,17.1c0.1,0.3,0.2,0.7,0.3,1L280.8,250
											c0-0.1-0.1-0.1-0.1-0.2L280.7,232.8L280.7,232.8z M209.1,239.7l4.9,4.9l-4.8,4.8l-3.7-3.7c-0.1,0.1-0.2,0.3-0.3,0.4
											l11.5,11.5l-7.3,7.3l-8.9-8.9c-0.1,0.2-0.1,0.3-0.2,0.5l8.8,8.8l-15.6,15.6c0,0.3-0.1,0.5-0.1,0.8l23.9-23.9
											c0.1-0.1,0.1-0.3,0-0.4l-7.7-7.7l4.9-4.9c0.1-0.1,0.1-0.3,0-0.4l-5.1-5.1C209.3,239.5,209.2,239.6,209.1,239.7z"/>
										
											<linearGradient id="SVGID_00000144325861443931862350000015031577576227465632_" gradientUnits="userSpaceOnUse" x1="-1085.5679" y1="-1572.8159" x2="-1029.7811" y2="-1572.8159" gradientTransform="matrix(1 0 0 -1 1305.1099 -1391.5959)">
											<stop  offset="3.760000e-02" style="stop-color:#FF9066"/>
											<stop  offset="4.570000e-02" style="stop-color:#FA8463"/>
											<stop  offset="7.600000e-02" style="stop-color:#E85C59"/>
											<stop  offset="0.1073" style="stop-color:#D93B51"/>
											<stop  offset="0.1392" style="stop-color:#CE214B"/>
											<stop  offset="0.172" style="stop-color:#C50E47"/>
											<stop  offset="0.2063" style="stop-color:#C10444"/>
											<stop  offset="0.2445" style="stop-color:#BF0043"/>
											<stop  offset="0.5747" style="stop-color:#FF0043"/>
											<stop  offset="0.6281" style="stop-color:#FF1047"/>
											<stop  offset="0.7325" style="stop-color:#FF3951"/>
											<stop  offset="0.8758" style="stop-color:#FF7B62"/>
											<stop  offset="1" style="stop-color:#FFBA71"/>
										</linearGradient>
										<path style="fill:url(#SVGID_00000144325861443931862350000015031577576227465632_);" d="M247.4,85.1
											c27.2,46,29.7,79.8,27.1,140.6c-1.2,27.9-16.6,51.7-16.6,51.7h-10.5h-10.5c0,0-15.3-23.8-16.6-51.7
											C217.7,164.9,220.2,131.1,247.4,85.1z"/>
										<g class="st29">
											<path class="st30" d="M222.1,202.2L222.1,202.2c-0.3,0-0.6-0.3-0.6-0.6v-1.7c0-0.3,0.3-0.6,0.6-0.6l0,0
												c0.3,0,0.6,0.3,0.6,0.6v1.7C222.7,201.9,222.4,202.2,222.1,202.2z"/>
											<path class="st30" d="M226.2,202.2L226.2,202.2c-0.3,0-0.6-0.3-0.6-0.6v-1.7c0-0.3,0.3-0.6,0.6-0.6l0,0
												c0.3,0,0.6,0.3,0.6,0.6v1.7C226.8,201.9,226.5,202.2,226.2,202.2z"/>
											<path class="st30" d="M230.3,202.2L230.3,202.2c-0.3,0-0.6-0.3-0.6-0.6v-1.7c0-0.3,0.3-0.6,0.6-0.6l0,0
												c0.3,0,0.6,0.3,0.6,0.6v1.7C230.8,201.9,230.6,202.2,230.3,202.2z"/>
											<path class="st30" d="M234.3,202.2L234.3,202.2c-0.3,0-0.6-0.3-0.6-0.6v-1.7c0-0.3,0.3-0.6,0.6-0.6l0,0
												c0.3,0,0.6,0.3,0.6,0.6v1.7C234.9,201.9,234.6,202.2,234.3,202.2z"/>
											<path class="st30" d="M238.4,202.2L238.4,202.2c-0.3,0-0.6-0.3-0.6-0.6v-1.7c0-0.3,0.3-0.6,0.6-0.6l0,0
												c0.3,0,0.6,0.3,0.6,0.6v1.7C239,201.9,238.7,202.2,238.4,202.2z"/>
											<path class="st30" d="M242.5,202.2L242.5,202.2c-0.3,0-0.6-0.3-0.6-0.6v-1.7c0-0.3,0.3-0.6,0.6-0.6l0,0
												c0.3,0,0.6,0.3,0.6,0.6v1.7C243,201.9,242.8,202.2,242.5,202.2z"/>
											<path class="st30" d="M246.5,202.2L246.5,202.2c-0.3,0-0.6-0.3-0.6-0.6v-1.7c0-0.3,0.3-0.6,0.6-0.6l0,0
												c0.3,0,0.6,0.3,0.6,0.6v1.7C247.1,201.9,246.9,202.2,246.5,202.2z"/>
											<path class="st30" d="M250.6,202.2L250.6,202.2c-0.3,0-0.6-0.3-0.6-0.6v-1.7c0-0.3,0.3-0.6,0.6-0.6l0,0
												c0.3,0,0.6,0.3,0.6,0.6v1.7C251.2,201.9,250.9,202.2,250.6,202.2z"/>
											<path class="st30" d="M254.7,202.2L254.7,202.2c-0.3,0-0.6-0.3-0.6-0.6v-1.7c0-0.3,0.3-0.6,0.6-0.6l0,0
												c0.3,0,0.6,0.3,0.6,0.6v1.7C255.3,201.9,255,202.2,254.7,202.2z"/>
											<path class="st30" d="M258.7,202.2L258.7,202.2c-0.3,0-0.6-0.3-0.6-0.6v-1.7c0-0.3,0.3-0.6,0.6-0.6l0,0
												c0.3,0,0.6,0.3,0.6,0.6v1.7C259.3,201.9,259.1,202.2,258.7,202.2z"/>
											<path class="st30" d="M262.8,202.2L262.8,202.2c-0.3,0-0.6-0.3-0.6-0.6v-1.7c0-0.3,0.3-0.6,0.6-0.6l0,0
												c0.3,0,0.6,0.3,0.6,0.6v1.7C263.4,201.9,263.1,202.2,262.8,202.2z"/>
											<path class="st30" d="M266.9,202.2L266.9,202.2c-0.3,0-0.6-0.3-0.6-0.6v-1.7c0-0.3,0.3-0.6,0.6-0.6l0,0
												c0.3,0,0.6,0.3,0.6,0.6v1.7C267.5,201.9,267.2,202.2,266.9,202.2z"/>
											<path class="st30" d="M270.9,202.2L270.9,202.2c-0.3,0-0.6-0.3-0.6-0.6v-1.7c0-0.3,0.3-0.6,0.6-0.6l0,0
												c0.3,0,0.6,0.3,0.6,0.6v1.7C271.5,201.9,271.3,202.2,270.9,202.2z"/>
										</g>
										<g class="st31">
											<path class="st32" d="M222.9,156.5c-0.3,0-0.5,0.2-0.5,0.5s0.2,0.5,0.5,0.5s0.5-0.2,0.5-0.5S223.1,156.5,222.9,156.5z
												 M222.9,159.6c-0.3,0-0.5,0.2-0.5,0.5s0.2,0.5,0.5,0.5s0.5-0.2,0.5-0.5S223.1,159.6,222.9,159.6z M222.9,162.8
												c-0.3,0-0.5,0.2-0.5,0.5s0.2,0.5,0.5,0.5s0.5-0.2,0.5-0.5S223.1,162.8,222.9,162.8z M222.9,165.9c-0.3,0-0.5,0.2-0.5,0.5
												c0,0.3,0.2,0.5,0.5,0.5c0.3,0,0.5-0.2,0.5-0.5S223.1,165.9,222.9,165.9z M222.9,169c-0.3,0-0.5,0.2-0.5,0.5
												s0.2,0.5,0.5,0.5s0.5-0.2,0.5-0.5C223.3,169.2,223.1,169,222.9,169z M222.9,172.2c-0.3,0-0.5,0.2-0.5,0.5
												s0.2,0.5,0.5,0.5s0.5-0.2,0.5-0.5S223.1,172.2,222.9,172.2z M222.9,175.3c-0.3,0-0.5,0.2-0.5,0.5s0.2,0.5,0.5,0.5
												s0.5-0.2,0.5-0.5S223.1,175.3,222.9,175.3z M222.9,178.4c-0.3,0-0.5,0.2-0.5,0.5s0.2,0.5,0.5,0.5s0.5-0.2,0.5-0.5
												S223.1,178.4,222.9,178.4z M222.9,181.6c-0.3,0-0.5,0.2-0.5,0.5s0.2,0.5,0.5,0.5s0.5-0.2,0.5-0.5
												S223.1,181.6,222.9,181.6z M222.9,184.7c-0.3,0-0.5,0.2-0.5,0.5s0.2,0.5,0.5,0.5c0.3,0,0.5-0.2,0.5-0.5
												C223.3,184.9,223.1,184.7,222.9,184.7z M222.9,187.8c-0.3,0-0.5,0.2-0.5,0.5c0,0.3,0.2,0.5,0.5,0.5s0.5-0.2,0.5-0.5
												S223.1,187.8,222.9,187.8z"/>
										</g>
										<g class="st29">
											<path class="st30" d="M250.3,95.3c0,0,0,0.1,0,0.1c0.1,0.1,8.4,14.3,13.3,32.8h-35.8c-0.1,0.2-0.1,0.3-0.2,0.5H264h3.2
												c0-0.2-0.1-0.3-0.2-0.5h-2.8c-2.5-9.6-6-18.1-8.8-24.1h2.2c-0.1-0.2-0.2-0.3-0.2-0.5h-2.2c-2.3-4.9-4.1-7.9-4.3-8.4V91
												c-0.2-0.3-0.3-0.6-0.5-0.9L250.3,95.3L250.3,95.3z"/>
											<path class="st30" d="M265.8,147.8c-0.1,0-0.2,0.1-0.2,0.2v17.3c0,0.1,0.1,0.2,0.2,0.2h8.4c0-0.2,0-0.3,0-0.5h-8.1v-16.8
												h5.8c0-0.2-0.1-0.3-0.1-0.5H265.8z"/>
											<path class="st30" d="M267.7,214.7v18.2h-41.4l0,0l0,0H221c0,0.2,0,0.3,0.1,0.5h5c0.1,17.4,10.7,38.6,13.5,44h0.6
												c-2.6-4.9-13.4-26.4-13.6-44H268h5.8c0-0.2,0-0.3,0.1-0.5h-5.6v-18h6.7c0-0.2,0-0.3,0-0.5h-7
												C267.8,214.4,267.7,214.5,267.7,214.7z"/>
										</g>
										<path class="st27" d="M219.5,195.7h55.8c0-0.5,0-1.1,0-1.6h-55.8C219.5,194.6,219.5,195.2,219.5,195.7z"/>
										<path class="st33" d="M219.5,197.3h55.8c0-0.5,0-1.1,0-1.6h-55.8C219.5,196.2,219.5,196.8,219.5,197.3z"/>
										<path class="st34" d="M247.4,156.8c-6.2,0-11.2,5-11.2,11.2s5,11.2,11.2,11.2s11.2-5,11.2-11.2S253.6,156.8,247.4,156.8z
											 M255.7,167.9c0,4.5-3.6,8.1-8.1,8.1s-8.1-3.6-8.1-8.1s3.6-8.1,8.1-8.1C252,159.8,255.7,163.4,255.7,167.9z"/>
										
											<linearGradient id="SVGID_00000038393244540877252950000001529725254231576757_" gradientUnits="userSpaceOnUse" x1="-1057.5399" y1="-1552.8667" x2="-1057.5399" y2="-1566.0676" gradientTransform="matrix(1 0 0 -1 1305.1099 -1391.5959)">
											<stop  offset="0" style="stop-color:#580043"/>
											<stop  offset="0.1707" style="stop-color:#630043"/>
											<stop  offset="0.4728" style="stop-color:#810043"/>
											<stop  offset="0.8683" style="stop-color:#B10043"/>
											<stop  offset="1" style="stop-color:#C30043"/>
										</linearGradient>
										<path style="fill:url(#SVGID_00000038393244540877252950000001529725254231576757_);" d="M258.6,167.6c0,6.1-4.9,11-11,11
											c-6.1,0-11-4.9-11-11c0-6.1,4.9-11,11-11C253.7,156.6,258.6,161.5,258.6,167.6z"/>
										
											<linearGradient id="SVGID_00000150072954251918050880000008660043120521853579_" gradientUnits="userSpaceOnUse" x1="-1088.4222" y1="-1510.743" x2="-1040.0656" y2="-1586.5967" gradientTransform="matrix(1 0 0 -1 1305.1099 -1391.5959)">
											<stop  offset="6.060000e-02" style="stop-color:#01F4EA"/>
											<stop  offset="0.2293" style="stop-color:#3DF6E6"/>
											<stop  offset="0.4386" style="stop-color:#81F8E2"/>
											<stop  offset="0.628" style="stop-color:#B7FADF"/>
											<stop  offset="0.7906" style="stop-color:#DEFBDD"/>
											<stop  offset="0.92" style="stop-color:#F6FCDC"/>
											<stop  offset="1" style="stop-color:#FFFCDB"/>
										</linearGradient>
										<path style="fill:url(#SVGID_00000150072954251918050880000008660043120521853579_);" d="M255.7,167.6
											c0,4.5-3.6,8.1-8.1,8.1s-8.1-3.6-8.1-8.1s3.6-8.1,8.1-8.1S255.7,163.1,255.7,167.6z"/>
										<g>
											
												<linearGradient id="SVGID_00000130633367496396560510000003298232596154394547_" gradientUnits="userSpaceOnUse" x1="-3924.7896" y1="-933.0333" x2="-3911.1414" y2="-933.0333" gradientTransform="matrix(0.7071 -0.7071 -0.7071 -0.7071 2355.5425 -3265.6582)">
												<stop  offset="0" style="stop-color:#FFFFFF"/>
												<stop  offset="1" style="stop-color:#FFFFFF;stop-opacity:0"/>
											</linearGradient>
											<path style="fill:url(#SVGID_00000130633367496396560510000003298232596154394547_);" d="M249.7,160.9
												c-0.7-0.2-1.4-0.3-2.2-0.3c0,0-0.1,0-0.1,0c-2.3,2.3-4.6,4.6-6.9,6.9c0,0,0,0,0,0c0,0.8,0.1,1.5,0.3,2.2L249.7,160.9z"/>
											
												<linearGradient id="SVGID_00000034796337193783720540000001383536522900006036_" gradientUnits="userSpaceOnUse" x1="-3924.7896" y1="-938.8493" x2="-3911.1414" y2="-938.8493" gradientTransform="matrix(0.7071 -0.7071 -0.7071 -0.7071 2355.5425 -3265.6582)">
												<stop  offset="0" style="stop-color:#FFFFFF"/>
												<stop  offset="1" style="stop-color:#FFFFFF;stop-opacity:0"/>
											</linearGradient>
											<path style="fill:url(#SVGID_00000034796337193783720540000001383536522900006036_);" d="M254.2,165.5
												c-0.3-1-0.9-1.9-1.6-2.7c-3.3,3.3-6.6,6.6-9.9,9.9c0.8,0.7,1.7,1.3,2.7,1.6C248.4,171.4,251.3,168.4,254.2,165.5z"/>
											
												<linearGradient id="SVGID_00000148628857886342012370000012695270950266593171_" gradientUnits="userSpaceOnUse" x1="-3924.7896" y1="-942.597" x2="-3911.1414" y2="-942.597" gradientTransform="matrix(0.7071 -0.7071 -0.7071 -0.7071 2355.5425 -3265.6582)">
												<stop  offset="0" style="stop-color:#FFFFFF"/>
												<stop  offset="1" style="stop-color:#FFFFFF;stop-opacity:0"/>
											</linearGradient>
											<path style="fill:url(#SVGID_00000148628857886342012370000012695270950266593171_);" d="M254.4,169.1
												c0.1-0.4,0.2-0.9,0.2-1.4l-6.9,6.9c0.5,0,0.9-0.1,1.4-0.2C250.9,172.6,252.6,170.9,254.4,169.1z"/>
										</g>
										<path class="st40" d="M247.9,157.9c0,0.2-0.2,0.4-0.4,0.4s-0.4-0.2-0.4-0.4s0.2-0.4,0.4-0.4S247.9,157.7,247.9,157.9z"/>
										<path class="st41" d="M247.9,157.9c0,0.2-0.2,0.4-0.4,0.4s-0.4-0.2-0.4-0.4s0.2-0.4,0.4-0.4S247.9,157.7,247.9,157.9z
											 M242.4,158.9c-0.2,0.1-0.3,0.4-0.2,0.6s0.4,0.3,0.6,0.2s0.3-0.4,0.2-0.6S242.6,158.8,242.4,158.9z M238.8,162.6
											c-0.1,0.2-0.1,0.5,0.2,0.6c0.2,0.1,0.5,0.1,0.6-0.2c0.1-0.2,0.1-0.5-0.2-0.6C239.2,162.3,238.9,162.4,238.8,162.6z
											 M237.5,167.7c0,0.2,0.2,0.4,0.4,0.4s0.4-0.2,0.4-0.4s-0.2-0.4-0.4-0.4C237.6,167.2,237.5,167.4,237.5,167.7z
											 M238.9,172.7c0.1,0.2,0.4,0.3,0.6,0.2s0.3-0.4,0.2-0.6s-0.4-0.3-0.6-0.2C238.8,172.2,238.7,172.5,238.9,172.7z
											 M242.6,176.4c0.2,0.1,0.5,0.1,0.6-0.2c0.1-0.2,0.1-0.5-0.2-0.6c-0.2-0.1-0.5-0.1-0.6,0.2
											C242.3,176,242.4,176.3,242.6,176.4z M247.7,177.7c0.2,0,0.4-0.2,0.4-0.4s-0.2-0.4-0.4-0.4s-0.4,0.2-0.4,0.4
											C247.2,177.5,247.4,177.7,247.7,177.7z M252.7,176.3c0.2-0.1,0.3-0.4,0.2-0.6s-0.4-0.3-0.6-0.2s-0.3,0.4-0.2,0.6
											C252.2,176.4,252.5,176.4,252.7,176.3z M256.4,172.6c0.1-0.2,0-0.5-0.2-0.6c-0.2-0.1-0.5-0.1-0.6,0.2
											c-0.1,0.2-0.1,0.5,0.2,0.6C256,172.9,256.2,172.8,256.4,172.6z M257.7,167.5c0-0.2-0.2-0.4-0.4-0.4s-0.4,0.2-0.4,0.4
											s0.2,0.4,0.4,0.4C257.5,167.9,257.7,167.7,257.7,167.5z M256.3,162.5c-0.1-0.2-0.4-0.3-0.6-0.2s-0.3,0.4-0.2,0.6
											s0.4,0.3,0.6,0.2C256.3,162.9,256.4,162.7,256.3,162.5z M252.5,158.8c-0.2-0.1-0.5-0.1-0.6,0.2c-0.1,0.2-0.1,0.5,0.2,0.6
											c0.2,0.1,0.5,0.1,0.6-0.2C252.8,159.2,252.8,158.9,252.5,158.8z"/>
										
											<linearGradient id="SVGID_00000124125248064336317690000009967314332398954151_" gradientUnits="userSpaceOnUse" x1="-1057.6748" y1="-1669.6348" x2="-1057.6748" y2="-1691.2361" gradientTransform="matrix(1 0 0 -1 1305.1099 -1391.5959)">
											<stop  offset="0" style="stop-color:#580043"/>
											<stop  offset="0.1707" style="stop-color:#630043"/>
											<stop  offset="0.4728" style="stop-color:#810043"/>
											<stop  offset="0.8683" style="stop-color:#B10043"/>
											<stop  offset="1" style="stop-color:#C30043"/>
										</linearGradient>
										<polygon style="fill:url(#SVGID_00000124125248064336317690000009967314332398954151_);" points="267.2,299.3 
											227.7,299.3 236.9,277.4 258,277.4 										"/>
										<g class="st31">
											<polygon class="st43" points="264.9,294 263.4,290.3 231.5,290.3 229.9,294 											"/>
											<polygon class="st43" points="235.3,281.2 233.8,284.9 261.1,284.9 259.5,281.2 											"/>
										</g>
										
											<linearGradient id="SVGID_00000052815760223281310610000007789772578209664687_" gradientUnits="userSpaceOnUse" x1="-1052.7007" y1="-1666.9115" x2="-1061.9927" y2="-1681.8137" gradientTransform="matrix(1 0 0 -1 1305.1099 -1391.5959)">
											<stop  offset="0" style="stop-color:#580043"/>
											<stop  offset="0.1707" style="stop-color:#630043"/>
											<stop  offset="0.4728" style="stop-color:#810043"/>
											<stop  offset="0.8683" style="stop-color:#B10043"/>
											<stop  offset="1" style="stop-color:#C30043"/>
										</linearGradient>
										<polygon style="fill:url(#SVGID_00000052815760223281310610000007789772578209664687_);" points="261.9,283.9 
											260.3,280.2 234.6,280.2 233,283.9 										"/>
										
											<linearGradient id="SVGID_00000100370837945663028060000012568974574701002162_" gradientUnits="userSpaceOnUse" x1="-1051.5841" y1="-1674.1976" x2="-1063.1202" y2="-1692.699" gradientTransform="matrix(1 0 0 -1 1305.1099 -1391.5959)">
											<stop  offset="0" style="stop-color:#580043"/>
											<stop  offset="0.1707" style="stop-color:#630043"/>
											<stop  offset="0.4728" style="stop-color:#810043"/>
											<stop  offset="0.8683" style="stop-color:#B10043"/>
											<stop  offset="1" style="stop-color:#C30043"/>
										</linearGradient>
										<polygon style="fill:url(#SVGID_00000100370837945663028060000012568974574701002162_);" points="265.9,293 264.3,289.3 
											230.6,289.3 229,293 										"/>
									</g>
									
										<linearGradient id="SVGID_00000155846674767577135540000003028295103344910494_" gradientUnits="userSpaceOnUse" x1="-282.3681" y1="-283.43" x2="-471.2223" y2="-426.877" gradientTransform="matrix(0.7071 -0.7071 -0.7071 -0.7071 248.0966 18.9822)">
										<stop  offset="0" style="stop-color:#FFFFFF"/>
										<stop  offset="0.178" style="stop-color:#FFFDF8"/>
										<stop  offset="0.4433" style="stop-color:#FFF6E3"/>
										<stop  offset="0.7615" style="stop-color:#FFEBC2"/>
										<stop  offset="1" style="stop-color:#FFE2A5"/>
									</linearGradient>
									<path style="fill:url(#SVGID_00000155846674767577135540000003028295103344910494_);" d="M735.5,168.5
										c-1.9-9.1-6.1-17.6-13-23.8c-9.7-8.7-25.1-11.4-36.2-4.6c-14.2,8.6-17.1,27.7-17.7,44.3c-0.6,16.6-1.4,35.4-13.8,46.4
										c-7.5,6.6-17.7,9-27.6,10.4c-9.9,1.4-20.1,2.1-29.1,6.4c-12.7,5.9-16.8,18.9-21.6,30.9c-11,27.5-23.2,87.8-64.5,82.3
										c-14.9-2-29.5-12.9-43.8-8c-12.7,4.3-18.1,18.8-22.5,31.4c-4.4,12.6-11.5,26.9-24.6,29.1c-15.6,2.6-28.5-13.5-44.3-14.9
										c-10.2-0.9-19.7,4.6-28,10.5c-8.3,5.9-16.5,12.7-26.4,15c-22.1,5.3-38.8-24.1-61.6-10.7c-10.4,6.1-15.5,20.7-27.4,23
										c-15.6,3-25.5-17.1-40.6-21.9c-20.4-6.5-41.1,16.9-61.9,11.5c-19.9-5.1-27.3-33.4-47.4-37.2c-15.4-2.9-31.4,10.4-46.1,5
										C21.8,388,18.2,365,2.5,359.1c-23.1-8.8-43.7,24.4-66.8,13.6c-7.5-3.5-12.8-10.6-16.7-18c-3.8-7.4-6.4-15.4-10.4-22.7
										c-8.5-15.7-23.4-27.8-40.5-33c-4.5-1.4-9.2-2.3-13.9-2.7l-47.6,47.6l376.7,376.7L735.5,168.5z"/>
									
										<linearGradient id="SVGID_00000003812502993434064230000015684761207053581230_" gradientUnits="userSpaceOnUse" x1="-364.9263" y1="-328.2964" x2="-483.6479" y2="-480.9383" gradientTransform="matrix(0.7071 -0.7071 -0.7071 -0.7071 248.0966 18.9822)">
										<stop  offset="0" style="stop-color:#FFFFFF"/>
										<stop  offset="0.178" style="stop-color:#FFFDF8"/>
										<stop  offset="0.4433" style="stop-color:#FFF6E3"/>
										<stop  offset="0.7615" style="stop-color:#FFEBC2"/>
										<stop  offset="1" style="stop-color:#FFE2A5"/>
									</linearGradient>
									<path style="fill:url(#SVGID_00000003812502993434064230000015684761207053581230_);" d="M467.6,438.9
										c-9.6-12.1-26.6-18-41.6-14.4s-32.3,16-35.4,31.2c-12.9-1.7-26.5,2.6-36,11.4c-9.5,8.8-12.2,18.6-11.5,31.6
										c-12.8-15.3-34.6-22.4-54-17.4c-19.3,5-39.2,19.3-42.9,38.8c-7.9-5.7-18.4-7.5-27.7-4.8c-9.3,2.7-17.3,9.9-20.9,18.9
										c-7.5-6.7-20.4,0.1-27.1,7.6c-13.8-19.5-37.7-31.3-61.6-30.5c-23.8,0.9-46.2,10.4-58.5,30.8c-8.1-13.1-22.9-21.8-38.3-22.6
										s-31,6.4-40.4,18.6l197.6,197.6L467.6,438.9z"/>
									<g class="st48">
										<path class="st49" d="M268,258.9c-0.2,0.2-0.2,0.5,0,0.7s0.5,0.2,0.7,0s0.2-0.5,0-0.7C268.5,258.8,268.1,258.8,268,258.9z
											 M270.2,261.2c-0.2,0.2-0.2,0.5,0,0.7s0.5,0.2,0.7,0s0.2-0.5,0-0.7S270.4,261,270.2,261.2z M272.4,263.4
											c-0.2,0.2-0.2,0.5,0,0.7s0.5,0.2,0.7,0s0.2-0.5,0-0.7C272.9,263.2,272.6,263.2,272.4,263.4z M274.6,265.6
											c-0.2,0.2-0.2,0.5,0,0.7s0.5,0.2,0.7,0s0.2-0.5,0-0.7C275.1,265.4,274.8,265.4,274.6,265.6z M276.8,267.8
											c-0.2,0.2-0.2,0.5,0,0.7s0.5,0.2,0.7,0s0.2-0.5,0-0.7S277,267.6,276.8,267.8z M279,270c-0.2,0.2-0.2,0.5,0,0.7
											s0.5,0.2,0.7,0s0.2-0.5,0-0.7S279.2,269.8,279,270z M281.2,272.2c-0.2,0.2-0.2,0.5,0,0.7s0.5,0.2,0.7,0s0.2-0.5,0-0.7
											C281.8,272,281.4,272,281.2,272.2z M283.5,274.5c-0.2,0.2-0.2,0.5,0,0.7s0.5,0.2,0.7,0s0.2-0.5,0-0.7
											C284,274.3,283.7,274.3,283.5,274.5z M285.7,276.7c-0.2,0.2-0.2,0.5,0,0.7s0.5,0.2,0.7,0s0.2-0.5,0-0.7
											C286.2,276.5,285.9,276.5,285.7,276.7z M287.9,278.9c-0.2,0.2-0.2,0.5,0,0.7s0.5,0.2,0.7,0s0.2-0.5,0-0.7
											C288.4,278.7,288.1,278.7,287.9,278.9z M290.1,281.1c-0.2,0.2-0.2,0.5,0,0.7s0.5,0.2,0.7,0s0.2-0.5,0-0.7
											C290.6,280.9,290.3,280.9,290.1,281.1z M292.3,283.3c-0.2,0.2-0.2,0.5,0,0.7s0.5,0.2,0.7,0s0.2-0.5,0-0.7
											C292.8,283.1,292.5,283.1,292.3,283.3z M294.5,285.5c-0.2,0.2-0.2,0.5,0,0.7s0.5,0.2,0.7,0s0.2-0.5,0-0.7
											C295,285.4,294.7,285.4,294.5,285.5z M296.8,287.8c-0.2,0.2-0.2,0.5,0,0.7s0.5,0.2,0.7,0s0.2-0.5,0-0.7
											C297.3,287.6,297,287.6,296.8,287.8z M299,290c-0.2,0.2-0.2,0.5,0,0.7s0.5,0.2,0.7,0s0.2-0.5,0-0.7
											C299.5,289.8,299.2,289.8,299,290z"/>
									</g>
									<g class="st48">
										<path class="st49" d="M225.9,259.5c-0.2-0.2-0.5-0.2-0.7,0c-0.2,0.2-0.2,0.5,0,0.7s0.5,0.2,0.7,0
											C226,260,226,259.7,225.9,259.5z M223.6,261.7c-0.2-0.2-0.5-0.2-0.7,0c-0.2,0.2-0.2,0.5,0,0.7s0.5,0.2,0.7,0
											S223.8,261.9,223.6,261.7z M221.4,263.9c-0.2-0.2-0.5-0.2-0.7,0c-0.2,0.2-0.2,0.5,0,0.7s0.5,0.2,0.7,0
											C221.6,264.4,221.6,264.1,221.4,263.9z M219.2,266.1c-0.2-0.2-0.5-0.2-0.7,0c-0.2,0.2-0.2,0.5,0,0.7s0.5,0.2,0.7,0
											C219.4,266.6,219.4,266.3,219.2,266.1z M217,268.4c-0.2-0.2-0.5-0.2-0.7,0c-0.2,0.2-0.2,0.5,0,0.7s0.5,0.2,0.7,0
											S217.2,268.5,217,268.4z M214.8,270.6c-0.2-0.2-0.5-0.2-0.7,0c-0.2,0.2-0.2,0.5,0,0.7s0.5,0.2,0.7,0
											C215,271.1,215,270.8,214.8,270.6z M212.6,272.8c-0.2-0.2-0.5-0.2-0.7,0s-0.2,0.5,0,0.7s0.5,0.2,0.7,0
											C212.7,273.3,212.7,273,212.6,272.8z M210.3,275c-0.2-0.2-0.5-0.2-0.7,0c-0.2,0.2-0.2,0.5,0,0.7s0.5,0.2,0.7,0
											C210.5,275.5,210.5,275.2,210.3,275z M208.1,277.2c-0.2-0.2-0.5-0.2-0.7,0c-0.2,0.2-0.2,0.5,0,0.7s0.5,0.2,0.7,0
											S208.3,277.4,208.1,277.2z M205.9,279.4c-0.2-0.2-0.5-0.2-0.7,0c-0.2,0.2-0.2,0.5,0,0.7s0.5,0.2,0.7,0
											C206.1,279.9,206.1,279.6,205.9,279.4z M203.7,281.6c-0.2-0.2-0.5-0.2-0.7,0c-0.2,0.2-0.2,0.5,0,0.7s0.5,0.2,0.7,0
											C203.9,282.1,203.9,281.8,203.7,281.6z M201.5,283.9c-0.2-0.2-0.5-0.2-0.7,0c-0.2,0.2-0.2,0.5,0,0.7s0.5,0.2,0.7,0
											C201.7,284.4,201.7,284,201.5,283.9z M199.3,286.1c-0.2-0.2-0.5-0.2-0.7,0c-0.2,0.2-0.2,0.5,0,0.7s0.5,0.2,0.7,0
											C199.4,286.6,199.4,286.3,199.3,286.1z M197,288.3c-0.2-0.2-0.5-0.2-0.7,0c-0.2,0.2-0.2,0.5,0,0.7s0.5,0.2,0.7,0
											C197.2,288.8,197.2,288.5,197,288.3z M194.8,290.5c-0.2-0.2-0.5-0.2-0.7,0c-0.2,0.2-0.2,0.5,0,0.7s0.5,0.2,0.7,0
											C195,291,195,290.7,194.8,290.5z"/>
									</g>
								</g>
							</g>
						</g>
					</g>
				</g>
			</g>
			<g>
				<ellipse class="st7" cx="426.5" cy="190.7" rx="57.9" ry="57.9"/>
				<g>
					
						<radialGradient id="SVGID_00000127034265825077558650000014017869259246177212_" cx="-14.4328" cy="-210.3378" r="89.459" gradientTransform="matrix(0.7071 -0.7071 -0.7071 -0.7071 248.0966 18.9822)" gradientUnits="userSpaceOnUse">
						<stop  offset="0.3364" style="stop-color:#E83B46"/>
						<stop  offset="0.4253" style="stop-color:#E94149"/>
						<stop  offset="0.5437" style="stop-color:#EC5250"/>
						<stop  offset="0.6779" style="stop-color:#F26D5B"/>
						<stop  offset="0.7867" style="stop-color:#F78967"/>
						<stop  offset="0.8238" style="stop-color:#F89268"/>
						<stop  offset="0.8839" style="stop-color:#FAAA69"/>
						<stop  offset="0.9592" style="stop-color:#FDD16B"/>
						<stop  offset="1" style="stop-color:#FFE96D"/>
					</radialGradient>
					<path style="fill:url(#SVGID_00000127034265825077558650000014017869259246177212_);" d="M426.5,137.7
						c29.2,0,52.9,23.7,52.9,52.9s-23.7,52.9-52.9,52.9s-52.9-23.7-52.9-52.9S397.2,137.7,426.5,137.7z"/>
					<path class="st9" d="M444.9,149.4c-0.1-1.8-1.1-3.3-1.8-4.9c-0.5-1.4-0.7-2.8-0.6-4.2c12.3,3.9,22.6,12.2,29.2,23
						c-3.8,7.6-13,12.6-21.4,10.8c-1.5-0.3-3.1-0.8-4.6-0.5c-2.3,0.5-3.7,2.8-5.9,3.8c-4.2,2.1-9.6-2.1-10-6.8s2.8-9.1,6.8-11.8
						C440.3,156.3,445.2,153.8,444.9,149.4z M424.8,216.2c0.8-3.7,2.2-8,5.8-9.2c3.6-1.1,7.6,1.7,11.3,0.8c4-1,5.8-6.1,4.6-10.1
						c-1.2-3.9-4.5-6.9-7.9-9.3c-4.7-3.5-11.5-6.5-16-2.8c-6-2.5-1-10-1-14c0-2.2-1.7-4.5-1.5-6.3c0.2-3,3.1-4.9,3.1-7.8
						c0.1-3.8-9.7-3-11.6-2.1c-4.9,2.5-7.1,9-12.2,11.7c-3.5,1.8-7.7,2.1-10.9,4.4c-3,2.2-4.6,5.9-6,9.4c-2.7,6.5-5.4,13.1-8,19.6
						c4.3,22.8,23.2,40.4,46.7,42.8C421,234.3,422.8,225.1,424.8,216.2z M475.7,171.2c-3.3,2.7-7.1,5-10,7.6
						c-7,6.3-12.9,15.5-10.9,24.7c0.4,2,1.4,4,3.2,4.9c3.9,2,8.1-2.5,9.6-6.7c1.5-4.1,3.2-9.3,7.5-10.2c1.5-0.3,3,0.1,4.2,0.9
						c0-0.6,0-1.2,0-1.9C479.4,183.8,478.1,177.3,475.7,171.2z M383.9,167.5c1.5-1.9,2.5-4.2,4-6.2c2.5-3.4,6.4-5.7,10.1-7.8
						s7.6-4.2,10.4-7.4c1.5-1.7,2.6-3.9,3.1-6.2c-15.4,4.6-27.9,15.9-34,30.7c0,0,0,0,0.1,0C380,171,382.3,169.4,383.9,167.5z
						 M475.6,210.3c-1,0.7-2,1.3-3,1.9c-4.3,2.5-8.9,4.9-11.5,9.2c-1.8,2.9-2,6.9-0.5,9.8C467.2,225.6,472.4,218.4,475.6,210.3z
						 M430.8,219.3c-3.1,6.6,12.2,14.3,14,20c0.1,0.3,0.2,0.7,0.2,1c3.8-1.4,7.4-3.3,10.7-5.5C452.5,229.3,434.6,211.4,430.8,219.3z
						"/>
					<path class="st10" d="M426.5,231.3c-27.1,0-49.5-20.4-52.6-46.8c-0.2,2-0.4,4.1-0.4,6.2c0,29.2,23.7,52.9,52.9,52.9
						s52.9-23.7,52.9-52.9c0-2.1-0.1-4.1-0.4-6.2C476,210.9,453.6,231.3,426.5,231.3z"/>
				</g>
			</g>
			<g>
				
					<radialGradient id="SVGID_00000080926167497976928270000003005157034279398560_" cx="-209.4238" cy="33.8972" r="97.7089" gradientTransform="matrix(0.7071 -0.7071 -0.7071 -0.7071 248.0966 18.9822)" gradientUnits="userSpaceOnUse">
					<stop  offset="0.3364" style="stop-color:#E83B46"/>
					<stop  offset="0.4253" style="stop-color:#E94149"/>
					<stop  offset="0.5437" style="stop-color:#EC5250"/>
					<stop  offset="0.6779" style="stop-color:#F26D5B"/>
					<stop  offset="0.7867" style="stop-color:#F78967"/>
					<stop  offset="0.8238" style="stop-color:#F89268"/>
					<stop  offset="0.8839" style="stop-color:#FAAA69"/>
					<stop  offset="0.9592" style="stop-color:#FDD16B"/>
					<stop  offset="1" style="stop-color:#FFE96D"/>
				</radialGradient>
				<circle style="fill:url(#SVGID_00000080926167497976928270000003005157034279398560_);" cx="123.3" cy="140.7" r="50.9"/>
				<g class="st12">
					<path class="st13" d="M154.2,133.2c-1.3-5-3.6-10-2.8-15c0.8-5.2,4.7-9.2,7.9-13.4c-3.4-3.4-7.3-6.4-11.7-8.7
						c0,20,2.6,40.3-2.9,59.4c-2.8,9.9-7.7,19.1-9.2,29.3c-0.3,1.8-0.4,3.6-0.5,5.5c1-0.2,2-0.5,2.9-0.8
						C148.3,172.2,159.1,152.6,154.2,133.2z"/>
					<path class="st13" d="M91.5,180.5c4.4-5.3,8.2-11.6,8-18.4c-0.3-9.1-7.3-17.3-6-26.2c1.5-10.5,14-18,12.7-28.5
						c-0.5-4.4-3.5-8.1-5.8-12c-7,3.5-13.1,8.6-17.8,14.9c1.4,12,2.8,24,4.3,36c0.9,7.4,1.7,15.2-1.5,21.9c-0.6,1.3-1.4,2.5-2.3,3.7
						C85.5,175,88.3,177.9,91.5,180.5z"/>
					<path class="st13" d="M162.3,170.5c0.1,0.9,0.2,1.8,0.3,2.7c4.8-5.8,8.4-12.7,10.2-20.5c3.2-13.1,1-26.2-5.2-37
						C163.6,133.8,160.7,152.1,162.3,170.5z"/>
					<path class="st13" d="M112.1,190.4c1.1-2.2,2.3-4.4,3.6-6.4c4.4-6.7,10.4-12.5,13.3-19.9c6.1-15.8-3.2-33.9,1-50.3
						c2-7.5,6.6-14,9.4-21.3c-1.4-0.5-2.8-0.9-4.2-1.2c-7.9-1.9-15.9-1.8-23.3-0.2c0,0.6,0.1,1.2,0.1,1.8
						c1.6,18.9,1.2,37.9-1.2,56.7c-1.6,12.9-4.2,25.6-7.2,38.2c2.4,1,4.9,1.8,7.5,2.4C111.6,190.2,111.9,190.3,112.1,190.4z"/>
				</g>
				<path class="st9" d="M172.8,141c-6.6,27.3-34.1,44.1-61.4,37.5c-21.3-5.1-36.2-23-38.6-43.6c-2.9,25.2,13.4,49.1,38.6,55.2
					c27.3,6.6,54.9-10.2,61.4-37.5c1.5-6,1.8-12.1,1.1-17.9C173.6,136.8,173.3,138.9,172.8,141z"/>
				
					<linearGradient id="SVGID_00000010274665879629399970000000000771920811691692_" gradientUnits="userSpaceOnUse" x1="-534.4604" y1="-510.9583" x2="-687.2734" y2="-614.3058" gradientTransform="matrix(0.8334 -0.5527 -0.5527 -0.8334 325.6812 -676.1436)">
					<stop  offset="6.060000e-02" style="stop-color:#584057"/>
					<stop  offset="0.6365" style="stop-color:#5E575E"/>
					<stop  offset="1" style="stop-color:#606060"/>
				</linearGradient>
				
					<path style="opacity:0.6;fill:url(#SVGID_00000010274665879629399970000000000771920811691692_);enable-background:new    ;" d="
					M139.9,92.6c1.9,0.7,3.8,1.4,5.6,2.3c5.4-4.9,9.4-7.1,11.4-5.8c2,1.3,1.6,5.9-0.7,12.8c-3.7,10.9-12.2,27.4-23.6,44.9
					c-11.4,17.5-23.1,31.9-31.6,39.7c-5.3,4.9-9.4,7.1-11.4,5.8c-2-1.3-1.6-5.9,0.7-12.8c-1.6-1.3-3-2.7-4.4-4.2
					c-15.4,27.9-23.3,48.5-18.8,51.4c4.5,2.9,20.1-12.6,39.5-37.9c8.9-11.7,18.7-25.4,28.5-40.4c9.8-15,18.5-29.4,25.6-42.3
					c15.4-27.9,23.3-48.5,18.8-51.4C175,51.8,159.4,67.3,139.9,92.6z"/>
			</g>
			<g>
				
					<linearGradient id="SVGID_00000008860608012968992940000000208349737692577203_" gradientUnits="userSpaceOnUse" x1="-175.3023" y1="-213.2879" x2="-303.2694" y2="-335.063" gradientTransform="matrix(0.7071 -0.7071 -0.7071 -0.7071 248.0966 18.9822)">
					<stop  offset="0" style="stop-color:#FFFFFF"/>
					<stop  offset="0.178" style="stop-color:#FFFDF8"/>
					<stop  offset="0.4433" style="stop-color:#FFF6E3"/>
					<stop  offset="0.7615" style="stop-color:#FFEBC2"/>
					<stop  offset="1" style="stop-color:#FFE2A5"/>
				</linearGradient>
				<path style="fill:url(#SVGID_00000008860608012968992940000000208349737692577203_);" d="M745.1,159
					c-3.3-13.8-11.2-26.6-22.9-34.5c-14.2-9.6-34-11.1-48.4-2c-24.6,15.5-25.4,52-45,73.5c-8.7,9.6-20.6,15.5-32.2,21.1
					s-23.6,11.1-32.9,20.1c-13.8,13.4-13.4,32.1-17.1,49.6c-4.5,21.3-12.8,44.9-32.8,53.4c-17.7,7.5-37.8,0.4-56.3-5
					c-18.5-5.4-41.1-8-54.6,5.7c-11.1,11.3-13.2,31.2-27.7,37.6c-7.7,3.4-16.5,1.7-24.9,2.3c-10.6,0.8-17.8,17.6-27.7,22.7
					c-10.6,5.3-27.1,3.6-32.2-8.6c-2.5-6-2.3-12.8-2.9-19.3c-0.5-6.5-2.1-13.5-7-17.8c-4.7-4.1-14-6.1-14.6-13.6
					c-0.3-3.8,1.3-7.4,2.5-11c1.3-3.6,2.2-7.6,0.6-11c-2.5-5.4-10-7-12.4-12.4c-1.7-4,0-8.5-0.3-12.8c-0.2-3.3-4.7-11.5-8.6-12.5
					c-3.9,1-8.4,9.2-8.6,12.5c-0.2,4.3,1.4,8.8-0.3,12.8c-2.3,5.4-9.9,7-12.4,12.4c-1.6,3.4-0.7,7.5,0.6,11s2.9,7.2,2.5,11
					c-0.6,7.5-9.9,9.5-14.6,13.6c-4.9,4.3-6.5,11.3-7,17.8s-0.4,13.3-2.9,19.3c-5,12.2-21.6,13.9-32.2,8.6
					c-10-5-17.1-21.9-27.7-22.7c-8.4-0.6-17.2,1.1-24.9-2.3c-14.5-6.4-16.6-26.3-27.7-37.6c-13.5-13.7-36.1-11.1-54.6-5.7
					c-18.5,5.4-38.6,12.5-56.3,5c-20-8.5-28.3-32.1-32.8-53.4c-4.5-21.3-8.6-44.8-25.4-58.7c-0.2-0.1-0.3-0.2-0.5-0.4l-116.1,116.1
					l376.7,376.7l20.1-20.1L745.1,159z"/>
				
					<linearGradient id="SVGID_00000170984032917048176410000015417247930621180584_" gradientUnits="userSpaceOnUse" x1="-282.1294" y1="-283.5304" x2="-470.9835" y2="-426.9773" gradientTransform="matrix(0.7071 -0.7071 -0.7071 -0.7071 248.0966 18.9822)">
					<stop  offset="0" style="stop-color:#FFFFFF"/>
					<stop  offset="0.178" style="stop-color:#FFFDF8"/>
					<stop  offset="0.4433" style="stop-color:#FFF6E3"/>
					<stop  offset="0.7615" style="stop-color:#FFEBC2"/>
					<stop  offset="1" style="stop-color:#FFE2A5"/>
				</linearGradient>
				<path style="fill:url(#SVGID_00000170984032917048176410000015417247930621180584_);" d="M735.8,168.4
					c-1.9-9.1-6.1-17.6-13-23.8c-9.7-8.7-25.1-11.4-36.2-4.6c-14.2,8.6-17.1,27.7-17.7,44.4c-0.6,16.6-1.4,35.4-13.8,46.4
					c-7.5,6.6-17.7,9-27.6,10.4c-9.9,1.4-20.1,2.1-29.1,6.4c-12.7,5.9-16.8,18.9-21.6,30.9c-11,27.5-23.2,87.8-64.5,82.3
					c-14.9-2-29.5-12.9-43.8-8c-12.7,4.3-18.1,18.8-22.5,31.4c-4.4,12.6-11.5,26.9-24.6,29.1c-15.6,2.6-28.5-13.5-44.3-14.9
					c-10.2-0.9-19.7,4.6-28,10.5c-8.3,5.9-16.5,12.7-26.4,15c-22.1,5.3-38.8-24.1-61.6-10.7c-10.4,6.1-15.5,20.7-27.4,23
					c-15.6,3-25.5-17.1-40.6-21.9c-20.4-6.5-41.1,16.9-61.9,11.5c-19.9-5.1-27.3-33.4-47.4-37.2c-15.4-2.9-31.4,10.4-46.1,5
					C22,387.9,18.4,364.9,2.8,359c-23.1-8.8-43.7,24.4-66.8,13.6c-7.5-3.5-12.8-10.6-16.7-18c-3.8-7.4-6.4-15.4-10.4-22.7
					c-8.5-15.7-23.4-27.8-40.5-33c-4.5-1.4-9.2-2.3-13.9-2.7l-47.6,47.6l376.7,376.7L735.8,168.4z"/>
				
					<linearGradient id="SVGID_00000051364234507357647100000004506379187667985060_" gradientUnits="userSpaceOnUse" x1="-364.687" y1="-328.3969" x2="-483.4086" y2="-481.0388" gradientTransform="matrix(0.7071 -0.7071 -0.7071 -0.7071 248.0966 18.9822)">
					<stop  offset="0" style="stop-color:#FFFFFF"/>
					<stop  offset="0.178" style="stop-color:#FFFDF8"/>
					<stop  offset="0.4433" style="stop-color:#FFF6E3"/>
					<stop  offset="0.7615" style="stop-color:#FFEBC2"/>
					<stop  offset="1" style="stop-color:#FFE2A5"/>
				</linearGradient>
				<path style="fill:url(#SVGID_00000051364234507357647100000004506379187667985060_);" d="M467.9,438.8
					c-9.6-12.1-26.6-18-41.6-14.4s-32.3,16-35.4,31.2c-12.9-1.7-26.5,2.6-36,11.4c-9.5,8.8-12.2,18.6-11.5,31.6
					c-12.8-15.3-34.6-22.4-54-17.4c-19.3,5-39.2,19.3-42.9,38.9c-7.9-5.7-18.4-7.5-27.7-4.8c-9.3,2.7-17.3,9.9-20.9,18.9
					c-7.5-6.7-20.4,0.1-27.1,7.6c-13.8-19.5-37.7-31.3-61.6-30.5c-23.8,0.9-46.2,10.4-58.5,30.8c-8.1-13.1-22.9-21.8-38.3-22.6
					s-31,6.4-40.4,18.6l197.6,197.6L467.9,438.8z"/>
				<g class="st48">
					<path class="st49" d="M268.2,258.8c-0.2,0.2-0.2,0.5,0,0.7s0.5,0.2,0.7,0s0.2-0.5,0-0.7C268.7,258.7,268.4,258.6,268.2,258.8z
						 M270.4,261.1c-0.2,0.2-0.2,0.5,0,0.7s0.5,0.2,0.7,0s0.2-0.5,0-0.7S270.6,260.9,270.4,261.1z M272.6,263.3
						c-0.2,0.2-0.2,0.5,0,0.7s0.5,0.2,0.7,0s0.2-0.5,0-0.7S272.8,263.1,272.6,263.3z M274.8,265.5c-0.2,0.2-0.2,0.5,0,0.7
						s0.5,0.2,0.7,0s0.2-0.5,0-0.7C275.3,265.3,275,265.3,274.8,265.5z M277.1,267.7c-0.2,0.2-0.2,0.5,0,0.7s0.5,0.2,0.7,0
						s0.2-0.5,0-0.7S277.2,267.5,277.1,267.7z M279.3,269.9c-0.2,0.2-0.2,0.5,0,0.7s0.5,0.2,0.7,0s0.2-0.5,0-0.7
						C279.8,269.7,279.5,269.7,279.3,269.9z M281.5,272.1c-0.2,0.2-0.2,0.5,0,0.7s0.5,0.2,0.7,0s0.2-0.5,0-0.7
						C282,272,281.7,272,281.5,272.1z M283.7,274.4c-0.2,0.2-0.2,0.5,0,0.7s0.5,0.2,0.7,0s0.2-0.5,0-0.7
						C284.2,274.2,283.9,274.2,283.7,274.4z M285.9,276.6c-0.2,0.2-0.2,0.5,0,0.7s0.5,0.2,0.7,0s0.2-0.5,0-0.7
						C286.4,276.4,286.1,276.4,285.9,276.6z M288.1,278.8c-0.2,0.2-0.2,0.5,0,0.7s0.5,0.2,0.7,0s0.2-0.5,0-0.7
						S288.3,278.6,288.1,278.8z M290.4,281c-0.2,0.2-0.2,0.5,0,0.7s0.5,0.2,0.7,0s0.2-0.5,0-0.7C290.9,280.8,290.5,280.8,290.4,281z
						 M292.6,283.2c-0.2,0.2-0.2,0.5,0,0.7s0.5,0.2,0.7,0s0.2-0.5,0-0.7C293.1,283,292.8,283,292.6,283.2z M294.8,285.4
						c-0.2,0.2-0.2,0.5,0,0.7s0.5,0.2,0.7,0s0.2-0.5,0-0.7S295,285.2,294.8,285.4z M297,287.6c-0.2,0.2-0.2,0.5,0,0.7s0.5,0.2,0.7,0
						s0.2-0.5,0-0.7C297.5,287.5,297.2,287.5,297,287.6z M299.2,289.9c-0.2,0.2-0.2,0.5,0,0.7s0.5,0.2,0.7,0s0.2-0.5,0-0.7
						S299.4,289.7,299.2,289.9z"/>
				</g>
				<g class="st48">
					<path class="st49" d="M226.1,259.4c-0.2-0.2-0.5-0.2-0.7,0c-0.2,0.2-0.2,0.5,0,0.7s0.5,0.2,0.7,0S226.3,259.6,226.1,259.4z
						 M223.9,261.6c-0.2-0.2-0.5-0.2-0.7,0c-0.2,0.2-0.2,0.5,0,0.7s0.5,0.2,0.7,0C224.1,262.1,224.1,261.8,223.9,261.6z
						 M221.7,263.8c-0.2-0.2-0.5-0.2-0.7,0c-0.2,0.2-0.2,0.5,0,0.7s0.5,0.2,0.7,0C221.9,264.3,221.9,264,221.7,263.8z M219.4,266
						c-0.2-0.2-0.5-0.2-0.7,0c-0.2,0.2-0.2,0.5,0,0.7s0.5,0.2,0.7,0C219.6,266.5,219.6,266.2,219.4,266z M217.2,268.2
						c-0.2-0.2-0.5-0.2-0.7,0c-0.2,0.2-0.2,0.5,0,0.7s0.5,0.2,0.7,0C217.4,268.8,217.4,268.4,217.2,268.2z M215,270.5
						c-0.2-0.2-0.5-0.2-0.7,0c-0.2,0.2-0.2,0.5,0,0.7s0.5,0.2,0.7,0C215.2,271,215.2,270.7,215,270.5z M212.8,272.7
						c-0.2-0.2-0.5-0.2-0.7,0c-0.2,0.2-0.2,0.5,0,0.7s0.5,0.2,0.7,0C213,273.2,213,272.9,212.8,272.7z M210.6,274.9
						c-0.2-0.2-0.5-0.2-0.7,0c-0.2,0.2-0.2,0.5,0,0.7s0.5,0.2,0.7,0C210.8,275.4,210.8,275.1,210.6,274.9z M208.4,277.1
						c-0.2-0.2-0.5-0.2-0.7,0c-0.2,0.2-0.2,0.5,0,0.7s0.5,0.2,0.7,0C208.6,277.6,208.6,277.3,208.4,277.1z M206.1,279.3
						c-0.2-0.2-0.5-0.2-0.7,0c-0.2,0.2-0.2,0.5,0,0.7s0.5,0.2,0.7,0C206.3,279.8,206.3,279.5,206.1,279.3z M203.9,281.5
						c-0.2-0.2-0.5-0.2-0.7,0c-0.2,0.2-0.2,0.5,0,0.7s0.5,0.2,0.7,0C204.1,282,204.1,281.7,203.9,281.5z M201.7,283.8
						c-0.2-0.2-0.5-0.2-0.7,0c-0.2,0.2-0.2,0.5,0,0.7s0.5,0.2,0.7,0C201.9,284.3,201.9,284,201.7,283.8z M199.5,286
						c-0.2-0.2-0.5-0.2-0.7,0c-0.2,0.2-0.2,0.5,0,0.7s0.5,0.2,0.7,0C199.7,286.5,199.7,286.2,199.5,286z M197.3,288.2
						c-0.2-0.2-0.5-0.2-0.7,0c-0.2,0.2-0.2,0.5,0,0.7s0.5,0.2,0.7,0C197.5,288.7,197.5,288.4,197.3,288.2z M195.1,290.4
						c-0.2-0.2-0.5-0.2-0.7,0s-0.2,0.5,0,0.7s0.5,0.2,0.7,0S195.3,290.6,195.1,290.4z"/>
				</g>
			</g>
		</g>
	</g>
</g>
</svg>
