<?xml version="1.0" encoding="UTF-8" standalone="no"?>
<svg
   version="1.1"
   width="1440"
   height="560"
   preserveAspectRatio="none"
   viewBox="0 0 1440 560"
   id="svg19"
   sodipodi:docname="bg-hero-inv.svg"
   inkscape:export-filename="bg-hero.png"
   inkscape:export-xdpi="96"
   inkscape:export-ydpi="96"
   inkscape:version="1.2 (dc2aedaf03, 2022-05-15)"
   xmlns:inkscape="http://www.inkscape.org/namespaces/inkscape"
   xmlns:sodipodi="http://sodipodi.sourceforge.net/DTD/sodipodi-0.dtd"
   xmlns="http://www.w3.org/2000/svg"
   xmlns:svg="http://www.w3.org/2000/svg">
  <sodipodi:namedview
     id="namedview21"
     pagecolor="#ffffff"
     bordercolor="#000000"
     borderopacity="0.25"
     inkscape:showpageshadow="2"
     inkscape:pageopacity="0.0"
     inkscape:pagecheckerboard="0"
     inkscape:deskcolor="#d1d1d1"
     showgrid="false"
     inkscape:zoom="0.85902778"
     inkscape:cx="711.85125"
     inkscape:cy="280.54972"
     inkscape:window-width="1920"
     inkscape:window-height="1027"
     inkscape:window-x="-8"
     inkscape:window-y="-8"
     inkscape:window-maximized="1"
     inkscape:current-layer="svg19" />
  <g
     mask="url(#SvgjsMask1010)"
     fill="none"
     id="g12"
     transform="rotate(180,720.71787,288.61911)">
    <rect
       width="1440"
       height="560"
       x="0"
       y="0"
       fill="#1e3266"
       id="rect2" />
    <path
       d="M 1464,560 H 0 V 323.36 q 51.01,-68.99 120,-17.98 53.47,-66.53 120,-13.06 54.88,-65.12 120,-10.23 85.46,-34.54 120,50.92 54,-18 72,36.01 28.14,-43.86 72,-15.72 27,-45 72,-18 47.34,-72.67 120,-25.33 61.66,-10.34 72,51.33 29.1,-90.9 120,-61.79 82.13,-37.87 120,44.27 45.11,-26.9 72,18.21 7.17,-64.83 72,-57.66 66.09,-53.91 120,12.18 22.33,-49.67 72,-27.35 z"
       fill="#182f5d"
       id="path4" />
    <path
       d="M 1464,560 H 0 V 373.13 q 80.02,-39.98 120,40.05 47.25,-72.75 120,-25.51 41.5,-30.5 72,10.99 46.79,-73.21 120,-26.42 28.42,-43.58 72,-15.16 83.88,-36.11 120,47.77 26.07,-45.93 72,-19.86 45.04,-74.96 120,-29.91 58.02,-13.98 72,44.03 26.02,-45.98 72,-19.95 48.25,-71.74 120,-23.49 58.79,-13.21 72,45.57 49.1,-22.9 72,26.2 23.95,-96.05 120,-72.1 73.66,-46.34 120,27.33 z"
       fill="#25467d"
       id="path6" />
    <path
       d="M 1488,560 H 0 v -97.18 q 50.31,-69.69 120,-19.38 53.19,-66.81 120,-13.61 75.67,-44.33 120,31.33 45.65,-26.35 72,19.3 12.11,-59.9 72,-47.79 30.25,-41.75 72,-11.51 48.71,-23.29 72,25.42 64.04,-7.96 72,56.08 43.42,-28.58 72,14.84 17.63,-54.37 72,-36.74 10.02,-61.98 72,-51.96 72.69,-47.3 120,25.39 70.15,-49.85 120,20.3 50.74,-21.26 72,29.48 32.78,-87.22 120,-54.43 69.83,-50.17 120,19.65 z"
       fill="rgba(255, 255, 255, 1)"
       id="path8" />
    <path
       d="M 1464,560 H 0 v 1.8 q 27.68,-92.32 120,-64.64 77.07,-42.93 120,34.14 67.47,-52.53 120,14.94 17.62,-54.38 72,-36.76 41.01,-30.98 72,10.03 22.84,-49.16 72,-26.33 80.46,-39.54 120,40.93 68.64,-51.36 120,17.29 21.93,-50.07 72,-28.14 52.84,-67.16 120,-14.33 92.99,-27.01 120,65.98 53.74,-66.26 120,-12.52 7.45,-64.55 72,-57.11 41.58,-30.42 72,11.16 53.89,-18.1 72,35.79 z"
       fill="#ffffff"
       id="path10" />
  </g>
  <defs
     id="defs17">
    <mask
       id="SvgjsMask1010">
      <rect
         width="1440"
         height="560"
         fill="#ffffff"
         id="rect14" />
    </mask>
  </defs>
</svg>
