<svg xmlns="http://www.w3.org/2000/svg" version="1.1" xmlns:xlink="http://www.w3.org/1999/xlink" xmlns:svgjs="http://svgjs.com/svgjs" width="1440" height="560" preserveAspectRatio="none" viewBox="0 0 1440 560"><g mask="url(&quot;#SvgjsMask1010&quot;)" fill="none"><rect width="1440" height="560" x="0" y="0" fill="#1e3266"></rect><path d="M1464 560L0 560 L0 323.36Q51.01 254.37, 120 305.38Q173.47 238.85, 240 292.32Q294.88 227.2, 360 282.09Q445.46 247.55, 480 333.01Q534 315.01, 552 369.02Q580.14 325.16, 624 353.3Q651 308.3, 696 335.3Q743.34 262.63, 816 309.97Q877.66 299.63, 888 361.3Q917.1 270.4, 1008 299.51Q1090.13 261.64, 1128 343.78Q1173.11 316.88, 1200 361.99Q1207.17 297.16, 1272 304.33Q1338.09 250.42, 1392 316.51Q1414.33 266.84, 1464 289.16z" fill="#182f5d"></path><path d="M1464 560L0 560 L0 373.13Q80.02 333.15, 120 413.18Q167.25 340.43, 240 387.67Q281.5 357.17, 312 398.66Q358.79 325.45, 432 372.24Q460.42 328.66, 504 357.08Q587.88 320.97, 624 404.85Q650.07 358.92, 696 384.99Q741.04 310.03, 816 355.08Q874.02 341.1, 888 399.11Q914.02 353.13, 960 379.16Q1008.25 307.42, 1080 355.67Q1138.79 342.46, 1152 401.24Q1201.1 378.34, 1224 427.44Q1247.95 331.39, 1344 355.34Q1417.66 309, 1464 382.67z" fill="#25467d"></path><path d="M1488 560L0 560 L0 462.82Q50.31 393.13, 120 443.44Q173.19 376.63, 240 429.83Q315.67 385.5, 360 461.16Q405.65 434.81, 432 480.46Q444.11 420.56, 504 432.67Q534.25 390.92, 576 421.16Q624.71 397.87, 648 446.58Q712.04 438.62, 720 502.66Q763.42 474.08, 792 517.5Q809.63 463.13, 864 480.76Q874.02 418.78, 936 428.8Q1008.69 381.5, 1056 454.19Q1126.15 404.34, 1176 474.49Q1226.74 453.23, 1248 503.97Q1280.78 416.75, 1368 449.54Q1437.83 399.37, 1488 469.19z" fill="rgba(255, 255, 255, 1)"></path><path d="M1464 560L0 560 L0 561.8Q27.68 469.48, 120 497.16Q197.07 454.23, 240 531.3Q307.47 478.77, 360 546.24Q377.62 491.86, 432 509.48Q473.01 478.5, 504 519.51Q526.84 470.35, 576 493.18Q656.46 453.64, 696 534.11Q764.64 482.75, 816 551.4Q837.93 501.33, 888 523.26Q940.84 456.1, 1008 508.93Q1100.99 481.92, 1128 574.91Q1181.74 508.65, 1248 562.39Q1255.45 497.84, 1320 505.28Q1361.58 474.86, 1392 516.44Q1445.89 498.34, 1464 552.23z" fill="white"></path></g><defs><mask id="SvgjsMask1010"><rect width="1440" height="560" fill="#ffffff"></rect></mask></defs></svg>