<?xml version="1.0" encoding="UTF-8" standalone="no"?>
<!-- Created with Inkscape (http://www.inkscape.org/) -->

<svg
   width="48.202744mm"
   height="28.758619mm"
   viewBox="0 0 48.202744 28.758619"
   version="1.1"
   id="svg618"
   inkscape:version="1.2 (dc2aedaf03, 2022-05-15)"
   sodipodi:docname="logo-branco.svg"
   xmlns:inkscape="http://www.inkscape.org/namespaces/inkscape"
   xmlns:sodipodi="http://sodipodi.sourceforge.net/DTD/sodipodi-0.dtd"
   xmlns="http://www.w3.org/2000/svg"
   xmlns:svg="http://www.w3.org/2000/svg">
  <sodipodi:namedview
     id="namedview620"
     pagecolor="#ffffff"
     bordercolor="#000000"
     borderopacity="0.25"
     inkscape:showpageshadow="2"
     inkscape:pageopacity="0.0"
     inkscape:pagecheckerboard="0"
     inkscape:deskcolor="#d1d1d1"
     inkscape:document-units="mm"
     showgrid="false"
     inkscape:zoom="0.75455247"
     inkscape:cx="229.93762"
     inkscape:cy="210.72093"
     inkscape:window-width="1920"
     inkscape:window-height="1027"
     inkscape:window-x="-8"
     inkscape:window-y="-8"
     inkscape:window-maximized="1"
     inkscape:current-layer="layer1" />
  <defs
     id="defs615">
    <clipPath
       clipPathUnits="userSpaceOnUse"
       id="clipPath495">
      <path
         d="m -264.915,838.1625 h 595.276 v -955.023 h -595.276 z"
         id="path497"
         style="stroke-width:0.999998" />
    </clipPath>
    <clipPath
       clipPathUnits="userSpaceOnUse"
       id="clipPath491">
      <path
         d="m -115.9463,838.1235 h 595.276 v -955.023 h -595.276 z"
         id="path493"
         style="stroke-width:0.999998" />
    </clipPath>
    <clipPath
       clipPathUnits="userSpaceOnUse"
       id="clipPath487">
      <path
         d="m -203.1445,838.1235 h 595.276 v -955.023 h -595.276 z"
         id="path489"
         style="stroke-width:0.999998" />
    </clipPath>
    <clipPath
       clipPathUnits="userSpaceOnUse"
       id="clipPath483">
      <path
         d="m -483.7939,838.1625 h 595.276 v -955.023 h -595.276 z"
         id="path485"
         style="stroke-width:0.999998" />
    </clipPath>
    <clipPath
       clipPathUnits="userSpaceOnUse"
       id="clipPath479">
      <path
         d="m -334.8242,838.1235 h 595.276 v -955.023 h -595.276 z"
         id="path481"
         style="stroke-width:0.999998" />
    </clipPath>
    <clipPath
       clipPathUnits="userSpaceOnUse"
       id="clipPath475">
      <path
         d="m -422.0225,838.1235 h 595.276 v -955.023 h -595.276 z"
         id="path477"
         style="stroke-width:0.999998" />
    </clipPath>
    <clipPath
       clipPathUnits="userSpaceOnUse"
       id="clipPath491-3">
      <path
         d="m -115.9463,838.1235 h 595.276 v -955.023 h -595.276 z"
         id="path493-0"
         style="stroke-width:0.999998" />
    </clipPath>
    <clipPath
       clipPathUnits="userSpaceOnUse"
       id="clipPath487-5">
      <path
         d="m -203.1445,838.1235 h 595.276 v -955.023 h -595.276 z"
         id="path489-7"
         style="stroke-width:0.999998" />
    </clipPath>
  </defs>
  <g
     inkscape:label="Camada 1"
     inkscape:groupmode="layer"
     id="layer1"
     transform="translate(78.328719,-139.90381)">
    <g
       id="g903"
       transform="matrix(0.35277777,0,0,-0.35277777,-114.57533,195.50864)">
      <g
         id="g38"
         transform="translate(115.9463,116.8995)"
         clip-path="url(#clipPath491-3)">
        <path
           d="m 0,0 c 0,-5.359 3.44,-8.96 8.24,-8.96 4.72,0 8.16,3.601 8.16,8.96 0,5.36 -3.44,8.96 -8.16,8.96 C 3.44,8.96 0,5.36 0,0 m 16.8,-14.88 c -2.88,-3.76 -7.04,-5.92 -12,-5.92 -10.64,0 -18,8.16 -18,20.8 0,12.641 7.36,20.801 18,20.801 4.721,0 8.721,-2 11.6,-5.441 V 40.001 H 30.001 V -20 H 16.8 Z"
           style="fill:#ffffff;fill-opacity:1;fill-rule:nonzero;stroke:none"
           id="path40" />
      </g>
      <path
         d="m 153.945,136.901 h 13.601 V 96.9 h -13.601 z m -0.96,13.36 c 0,4.16 3.281,7.359 7.761,7.359 4.56,0 7.84,-3.199 7.84,-7.359 0,-4.16 -3.28,-7.441 -7.84,-7.441 -4.48,0 -7.761,3.281 -7.761,7.441"
         style="fill:#ffffff;fill-opacity:1;fill-rule:nonzero;stroke:none"
         id="path42" />
      <g
         id="g44"
         transform="translate(203.1445,116.8995)"
         clip-path="url(#clipPath487-5)">
        <path
           d="m 0,0 c 0,5.36 -3.439,8.96 -8.16,8.96 -4.799,0 -8.24,-3.6 -8.24,-8.96 0,-5.359 3.441,-8.96 8.24,-8.96 C -3.439,-8.96 0,-5.359 0,0 m -7.6,-40.8 c -11.68,0 -19.76,6.88 -21.2,17.6 h 12.88 c 0.64,-4.4 3.6,-7.2 7.92,-7.2 5.2,0 8,3.6 8,9.2 v 5.841 C -2.88,-18.8 -6.88,-20.8 -11.6,-20.8 c -10.64,0 -18,8.16 -18,20.8 0,12.641 7.36,20.801 18,20.801 4.96,0 9.121,-2.16 12,-5.92 v 5.12 H 13.601 V -20.8 c 0,-12.16 -9.201,-20 -21.201,-20"
           style="fill:#ffffff;fill-opacity:1;fill-rule:nonzero;stroke:none"
           id="path46" />
      </g>
      <path
         d="m 224.743,136.901 h 13.601 V 96.9 h -13.601 z m -0.96,13.36 c 0,4.16 3.28,7.359 7.761,7.359 4.56,0 7.84,-3.199 7.84,-7.359 0,-4.16 -3.28,-7.441 -7.84,-7.441 -4.481,0 -7.761,3.281 -7.761,7.441"
         style="fill:#ffffff;fill-opacity:1;fill-rule:nonzero;stroke:none"
         id="path48" />
    </g>
  </g>
</svg>
