<?xml version="1.0" encoding="utf-8"?>
<!-- Generator: Adobe Illustrator 26.1.0, SVG Export Plug-In . SVG Version: 6.00 Build 0)  -->
<svg version="1.1" xmlns="http://www.w3.org/2000/svg" xmlns:xlink="http://www.w3.org/1999/xlink" x="0px" y="0px"
	 viewBox="0 0 500 500" style="enable-background:new 0 0 500 500;" xml:space="preserve">
<style type="text/css">
	.st0{clip-path:url(#SVGID_00000150083514218471388740000004153992497617188268_);}
	.st1{fill:#F9FAFC;}
	.st2{clip-path:url(#SVGID_00000152232512473359051000000002832385407170092695_);}
	.st3{fill:url(#SVGID_00000101076764771897742210000004673563243167973020_);}
	.st4{fill:url(#SVGID_00000108299638388934954990000012614849740705925270_);}
	.st5{opacity:0.05;fill:#FFFFFF;}
	.st6{fill:url(#SVGID_00000027563547496757596360000018335534932345194905_);}
	.st7{opacity:0.1;fill:#8A0042;}
	.st8{opacity:0.2;fill:#E83B46;}
	.st9{fill:url(#SVGID_00000164498326784717456210000000680491783458879641_);}
	.st10{opacity:0.1;}
	.st11{fill:#8A0042;}
	.st12{opacity:0.6;fill:url(#SVGID_00000176755147383486407300000013541669186812555433_);}
	.st13{fill:url(#SVGID_00000116949101089993964890000002635985157553412737_);}
	.st14{opacity:0.3;fill:#8A0042;}
	.st15{opacity:0.5;fill:url(#SVGID_00000088128317758356962410000017555707264787675823_);}
	.st16{fill:#FFFFFF;}
	.st17{fill:#FFDC40;}
	.st18{opacity:0.6;fill:url(#SVGID_00000031895825539492541410000003845640644902684037_);}
	.st19{fill:url(#SVGID_00000098909897009171843850000003963709672830575789_);}
	.st20{fill:url(#SVGID_00000101082180989223019260000001007226698654076067_);}
	.st21{fill:url(#SVGID_00000149357820837795664510000016277340099829926792_);}
	.st22{fill:url(#SVGID_00000052784763196912092020000005124791832585167245_);}
	.st23{opacity:0.2;fill:#860142;}
	.st24{fill:url(#SVGID_00000163775715974852998740000015393871485950691207_);}
	.st25{opacity:0.2;}
	.st26{fill:#860142;}
	.st27{opacity:0.3;}
	.st28{opacity:0.4;fill:#860142;}
	.st29{opacity:0.2;fill:#FFA36B;}
	.st30{opacity:0.3;fill:#172879;}
	.st31{fill:url(#SVGID_00000080923299024685194160000004098692805048670882_);}
	.st32{fill:url(#SVGID_00000003104354137846025130000011918750766461946547_);}
	.st33{fill:url(#SVGID_00000042003523863057500120000012259797904555077043_);}
	.st34{fill:url(#SVGID_00000010995096063933688450000013444011774182464921_);}
	.st35{fill:url(#SVGID_00000178189325465397578740000008494424851695157131_);}
	.st36{fill:#3B0364;}
	.st37{fill:#E2EDF7;}
	.st38{fill:url(#SVGID_00000013177567903805903820000018347980010500641721_);}
	.st39{fill:#17297A;}
	.st40{fill:url(#SVGID_00000014628388711530551630000011772521618604180867_);}
	.st41{fill:url(#SVGID_00000134242587260122398490000017205590006521458600_);}
	.st42{fill:url(#SVGID_00000016795944149950318940000004871823255580691355_);}
	.st43{fill:url(#SVGID_00000149367913050949403240000013956038116085913763_);}
	.st44{opacity:0.4;}
	.st45{opacity:0.4;fill:#CD2D2F;}
	.st46{fill:url(#SVGID_00000119078113870875251110000007484699442761628849_);}
	.st47{fill:url(#SVGID_00000083801043512333350940000002922454976340888767_);}
	.st48{opacity:0.6;fill:url(#SVGID_00000094609623256657723950000015821216508067787926_);}
	.st49{fill:url(#SVGID_00000168803657310431430170000000250274193513248900_);}
	.st50{fill:url(#SVGID_00000100378976843609274120000011010470196328881044_);}
	.st51{fill:url(#SVGID_00000080208387519729810580000002127133875883553677_);}
</style>
<g id="BACKGROUND_2">
</g>
<g id="BACKGROUND_1">
	<g>
		<g>
			<defs>
				<circle id="SVGID_1_" cx="250" cy="250" r="171.41"/>
			</defs>
			<clipPath id="SVGID_00000062182285656960684420000009052814227271577257_">
				<use xlink:href="#SVGID_1_"  style="overflow:visible;"/>
			</clipPath>
			<g style="clip-path:url(#SVGID_00000062182285656960684420000009052814227271577257_);">
				<g>
					<g id="XMLID_141_">
						<g id="XMLID_160_">
							<path id="XMLID_168_" class="st1" d="M409.5,395.21c0.01,0.62,0.09,1.23,0.24,1.81l-0.5,0.16c-0.26-0.16-0.6-0.11-0.8,0.14
								c-0.21,0.26-0.16,0.64,0.1,0.85c0.26,0.21,0.64,0.16,0.85-0.1c0.04-0.05,0.07-0.11,0.09-0.17l0.48-0.15
								c0.21,0.57,0.5,1.11,0.85,1.61l0.62-0.43c-0.76-1.09-1.17-2.37-1.19-3.72L409.5,395.21z"/>
							<path id="XMLID_167_" class="st1" d="M411.75,389.7c-0.12,0.12-0.24,0.25-0.35,0.37l-0.49-0.39
								c0.03-0.24-0.07-0.48-0.27-0.64c-0.31-0.25-0.76-0.19-1.01,0.12c-0.25,0.31-0.19,0.76,0.12,1.01
								c0.2,0.16,0.46,0.19,0.68,0.11l0.49,0.39c-0.42,0.59-0.76,1.23-1,1.91l0.71,0.25c0.34-0.98,0.9-1.85,1.64-2.59
								c0.35-0.35,0.74-0.66,1.15-0.93l-0.41-0.64C412.57,388.97,412.14,389.32,411.75,389.7z"/>
							<path id="XMLID_166_" class="st1" d="M418.22,386.84c0.21-0.26,0.16-0.64-0.1-0.85c-0.26-0.21-0.64-0.16-0.85,0.1
								c-0.19,0.25-0.16,0.59,0.06,0.81l-0.04,0.55c-0.6-0.01-1.2,0.05-1.8,0.19l0.17,0.74c1.31-0.3,2.65-0.21,3.88,0.26l0.27-0.71
								c-0.57-0.21-1.16-0.36-1.76-0.43l0.04-0.53C418.14,386.93,418.18,386.89,418.22,386.84z"/>
							<path id="XMLID_165_" class="st1" d="M418.59,397.31c-0.26,0.29-0.52,0.57-0.79,0.84c-0.62,0.62-1.27,1.18-1.88,1.63
								c-0.32,0.23-0.71,0.49-1.1,0.69c2.06,0.58,4.38,0.04,6.02-1.6c2.02-2.02,2.37-5.08,1.02-7.39c-0.16,0.8-0.48,1.65-0.94,2.53
								C420.33,395.1,419.53,396.25,418.59,397.31z"/>
							<path id="XMLID_161_" class="st1" d="M412.83,390.78c-2.37,2.37-2.41,6.18-0.1,8.5c0.3,0.3,0.63,0.57,0.99,0.79
								c0.82-0.13,2.54-1.28,4.3-3.26c1.91-2.16,3.07-4.42,3.19-6.24c-0.14-0.13-0.29-0.26-0.44-0.38
								C418.4,388.36,414.99,388.61,412.83,390.78z M415.91,396.91c-0.72,0.72-1.89,0.72-2.62,0c-0.72-0.72-0.72-1.89,0-2.62
								c0.72-0.72,1.89-0.72,2.62,0C416.63,395.02,416.63,396.19,415.91,396.91z M418.61,392.92c-0.53,0.53-1.39,0.53-1.92,0
								s-0.53-1.39,0-1.92c0.53-0.53,1.39-0.53,1.92,0C419.14,391.52,419.14,392.39,418.61,392.92z"/>
						</g>
						<path id="XMLID_158_" class="st1" d="M425.46,380.78c-0.29,0.13-0.79,0.35-1.15,0.81c-0.34,0.44-0.36,0.84,0.12,1.31
							l0.61,0.61l1.58-1.58l1.21,1.21l-1.58,1.58l3.86,3.86l-1.37,1.37l-3.86-3.86l-0.95,0.95l-1.21-1.21l0.95-0.95l-0.63-0.63
							c-1.19-1.19-1.33-2.6-0.15-3.78c0.45-0.45,0.9-0.73,1.34-0.91L425.46,380.78z"/>
						<path id="XMLID_156_" class="st1" d="M431.14,379.81c-0.15,0.1-0.29,0.22-0.4,0.34c-0.63,0.63-0.68,1.45,0.07,2.21l2.76,2.76
							l-1.37,1.37l-5.07-5.07l1.32-1.32l0.55,0.55c-0.16-0.8,0.12-1.5,0.74-2.12c0.29-0.29,0.69-0.51,1.01-0.54L431.14,379.81z"/>
						<path id="XMLID_153_" class="st1" d="M437.89,375.72c0.16,0.16,0.33,0.36,0.43,0.49l-3.6,3.6c0.88,0.59,1.71,0.39,2.36-0.25
							c0.44-0.44,0.74-1.09,0.8-1.77l1.68,0.08c-0.05,1.1-0.54,2.08-1.39,2.93c-1.55,1.55-3.69,1.58-5.29-0.02
							c-1.6-1.6-1.64-3.73-0.12-5.25C434.23,374.06,436.31,374.14,437.89,375.72z M433.81,378.86l2.25-2.25
							c-0.77-0.52-1.53-0.5-2.12,0.09C433.29,377.35,433.3,378.11,433.81,378.86z"/>
						<path id="XMLID_150_" class="st1" d="M443.31,370.31c0.16,0.16,0.33,0.36,0.43,0.49l-3.6,3.6c0.88,0.59,1.71,0.39,2.36-0.25
							c0.44-0.44,0.74-1.09,0.8-1.77l1.68,0.08c-0.05,1.1-0.54,2.08-1.39,2.93c-1.55,1.55-3.69,1.58-5.29-0.02
							c-1.6-1.6-1.64-3.73-0.12-5.25C439.64,368.65,441.72,368.73,443.31,370.31z M439.22,373.45l2.25-2.25
							c-0.77-0.52-1.53-0.5-2.12,0.09C438.7,371.94,438.71,372.7,439.22,373.45z"/>
						<path id="XMLID_147_" class="st1" d="M449.21,364.41c1.52,1.52,1.61,3.73,0.21,5.12c-0.68,0.68-1.43,0.89-2.15,0.83l2.62,2.62
							l-1.36,1.36l-7.16-7.16l1.33-1.33l0.56,0.56c-0.08-0.74,0.12-1.51,0.82-2.21C445.49,362.8,447.69,362.89,449.21,364.41z
							 M445.2,368.42c0.8,0.8,1.93,0.87,2.7,0.09c0.81-0.81,0.69-1.93-0.09-2.71c-0.77-0.77-1.9-0.89-2.71-0.09
							C444.33,366.5,444.4,367.62,445.2,368.42z"/>
						<path id="XMLID_144_" class="st1" d="M447.21,358.02c0.49,0.49,0.49,1.25-0.01,1.74c-0.49,0.49-1.25,0.49-1.74,0
							c-0.49-0.49-0.5-1.26-0.01-1.75C445.95,357.53,446.72,357.53,447.21,358.02z M453.76,364.94l-1.37,1.37l-5.07-5.07l1.37-1.37
							L453.76,364.94z"/>
						<path id="XMLID_142_" class="st1" d="M452.78,359.39l0.1-3.72l1.67-1.67l-0.07,4.85l5.16,0.21l-1.68,1.68l-3.97-0.13
							l2.05,2.05l-1.37,1.37l-7.54-7.54l1.37-1.37L452.78,359.39z"/>
					</g>
					<g>
						<path class="st1" d="M362.93,455.68l-0.75-0.75c0.13,0.88-0.11,1.85-0.82,2.56c-1.31,1.31-3.22,1.23-4.85-0.39
							c-1.6-1.6-1.72-3.54-0.4-4.86c0.67-0.67,1.62-0.95,2.57-0.81l-2.66-2.66l0.78-0.78l6.91,6.91L362.93,455.68z M361.57,454.32
							l-2.27-2.27c-0.71-0.16-1.69,0.07-2.31,0.69c-1,1-0.78,2.43,0.33,3.54c1.11,1.11,2.53,1.33,3.53,0.32
							C361.48,455.99,361.72,455.04,361.57,454.32z"/>
						<path class="st1" d="M362.2,451.39c-1.45-1.45-1.58-3.66-0.16-5.09c1.51-1.51,3.58-1.22,5.09,0.28l0.2,0.2l-4.05,4.05
							c1,0.88,2.45,1,3.53-0.07c0.57-0.57,0.92-1.38,0.91-2.17l0.88,0.13c0,0.99-0.4,1.94-1.22,2.76
							C365.9,452.96,363.76,452.96,362.2,451.39z M362.68,446.96c-1.07,1.07-0.69,2.5,0.03,3.3l3.28-3.28
							C365.24,446.24,363.82,445.82,362.68,446.96z"/>
						<path class="st1" d="M369.47,447.81l-0.16-0.96c0.71,0.05,1.68-0.25,2.36-0.93c0.77-0.77,0.82-1.54,0.32-2.04
							c-1.21-1.21-3.56,2.63-5.42,0.78c-0.78-0.78-0.77-2.11,0.42-3.3c0.85-0.85,1.77-1.13,2.58-1.13l0.18,0.9
							c-0.66-0.06-1.48,0.22-2.12,0.86c-0.68,0.68-0.77,1.45-0.32,1.9c1.1,1.1,3.47-2.72,5.42-0.78c0.84,0.84,0.84,2.19-0.46,3.48
							C371.46,447.39,370.52,447.84,369.47,447.81z"/>
						<path class="st1" d="M368.76,437.38c-0.29-0.29-0.29-0.77-0.01-1.05c0.29-0.29,0.77-0.29,1.06,0
							c0.29,0.29,0.28,0.76-0.01,1.05C369.51,437.66,369.05,437.67,368.76,437.38z M375.13,443.48l-5-5l0.78-0.78l5,5L375.13,443.48
							z"/>
						<path class="st1" d="M378.47,442.7l-0.19-0.97c0.91,0.08,1.6-0.23,2.31-0.94c0.83-0.83,1.2-2.01,0.1-3.11l-0.71-0.71
							c0.15,0.87-0.08,1.86-0.79,2.57c-1.3,1.3-3.2,1.25-4.82-0.36c-1.61-1.61-1.69-3.51-0.37-4.83c0.67-0.67,1.61-0.94,2.56-0.8
							l-0.76-0.76l0.78-0.78l4.86,4.86c1.66,1.66,1.01,3.34-0.21,4.56C380.39,442.28,379.64,442.69,378.47,442.7z M379.37,436.35
							l-2.19-2.19c-0.7-0.17-1.68,0.06-2.3,0.68c-1,1-0.81,2.4,0.3,3.51c1.1,1.1,2.51,1.31,3.51,0.3
							C379.32,438.04,379.54,437.06,379.37,436.35z"/>
						<path class="st1" d="M386.26,432.35l-3.27-3.27c-0.88-0.88-1.61-0.71-2.28-0.04c-0.61,0.61-0.82,1.56-0.7,2.26l3.66,3.66
							l-0.78,0.78l-5-5l0.78-0.78l0.73,0.73c-0.06-0.77,0.19-1.88,0.93-2.63c1.05-1.05,2.12-1.07,3.21,0.02l3.51,3.51L386.26,432.35
							z"/>
						<path class="st1" d="M385.54,428.06c-1.45-1.45-1.58-3.66-0.16-5.09c1.51-1.51,3.58-1.22,5.09,0.28l0.2,0.2l-4.05,4.05
							c1,0.88,2.45,1,3.53-0.07c0.57-0.57,0.92-1.38,0.91-2.18l0.88,0.13c0,0.99-0.4,1.94-1.22,2.75
							C389.23,429.62,387.1,429.62,385.54,428.06z M386.01,423.62c-1.07,1.07-0.69,2.5,0.03,3.3l3.28-3.28
							C388.57,422.91,387.15,422.49,386.01,423.62z"/>
						<path class="st1" d="M397.53,421.08l-0.75-0.75c0.13,0.88-0.11,1.85-0.82,2.56c-1.3,1.3-3.22,1.23-4.85-0.39
							c-1.6-1.6-1.72-3.54-0.4-4.86c0.67-0.67,1.62-0.95,2.57-0.81l-2.66-2.66l0.78-0.78l6.91,6.91L397.53,421.08z M396.17,419.72
							l-2.27-2.27c-0.72-0.16-1.69,0.07-2.31,0.69c-1,1-0.78,2.43,0.33,3.54c1.11,1.11,2.53,1.33,3.53,0.32
							C396.08,421.39,396.33,420.43,396.17,419.72z"/>
						<path class="st1" d="M402.01,416.59l-6.91-6.91l0.78-0.78l2.66,2.66c-0.14-0.95,0.12-1.89,0.81-2.57
							c1.3-1.3,3.26-1.19,4.86,0.4c1.63,1.63,1.7,3.54,0.39,4.85c-0.7,0.7-1.68,0.95-2.56,0.82l0.75,0.75L402.01,416.59z
							 M403.71,413.75c1.02-1.02,0.8-2.43-0.31-3.54c-1.11-1.11-2.54-1.34-3.55-0.32c-0.61,0.61-0.85,1.59-0.68,2.3l2.27,2.27
							C402.14,414.62,403.1,414.37,403.71,413.75z"/>
						<path class="st1" d="M408.81,412.3c0.17-0.06,0.38-0.22,0.51-0.34c0.34-0.34,0.46-0.68,0.22-1.27l-0.42-1.09l-7.15-2.96
							l0.84-0.84l5.77,2.43l-2.44-5.76l0.85-0.85l3.51,8.52c0.42,1.03,0.2,1.81-0.46,2.49c-0.17,0.17-0.46,0.39-0.64,0.5
							L408.81,412.3z"/>
					</g>
				</g>
				<g>
					<defs>
						
							<rect id="SVGID_00000021815354173226256290000009926909724385335984_" x="25.31" y="-1.97" transform="matrix(0.7071 -0.7071 0.7071 0.7071 -94.748 267.3212)" width="500" height="500"/>
					</defs>
					<clipPath id="SVGID_00000065062836967963257640000013695175570839402666_">
						<use xlink:href="#SVGID_00000021815354173226256290000009926909724385335984_"  style="overflow:visible;"/>
					</clipPath>
					<g style="clip-path:url(#SVGID_00000065062836967963257640000013695175570839402666_);">
						
							<radialGradient id="SVGID_00000109017170750922416060000015703317338547647874_" cx="175.805" cy="453.9724" r="765.6198" gradientTransform="matrix(0.7071 -0.7071 0.7071 0.7071 -103.5534 250)" gradientUnits="userSpaceOnUse">
							<stop  offset="0" style="stop-color:#8364FF"/>
							<stop  offset="0.7909" style="stop-color:#0025FF"/>
							<stop  offset="0.9951" style="stop-color:#99179F"/>
						</radialGradient>
						<polygon style="fill:url(#SVGID_00000109017170750922416060000015703317338547647874_);" points="714.51,171.47 
							170.56,715.42 -192.08,352.79 351.88,-191.17 						"/>
						
							<radialGradient id="SVGID_00000005268111245640621140000002879206616710405531_" cx="173.5355" cy="460.1329" r="860.6647" gradientTransform="matrix(0.7071 -0.7071 0.7071 0.7071 -103.5534 250)" gradientUnits="userSpaceOnUse">
							<stop  offset="0" style="stop-color:#402AFF"/>
							<stop  offset="0.7909" style="stop-color:#D3AAFF"/>
							<stop  offset="0.9951" style="stop-color:#99179F"/>
						</radialGradient>
						<path style="fill:url(#SVGID_00000005268111245640621140000002879206616710405531_);" d="M485.5-10.99
							c7.09-8.55,13.57-17.56,19.78-26.78L636.77,93.72c-30.28,9.13-63.28,10.98-95.19,10.57c-47.51-0.6-95.72-5.35-142.03,5.26
							c-59.02,13.52-109.34,50.57-162.88,78.84c-53.54,28.26-118.05,48.09-173.9,24.72c-25.53-10.68-46.65-29.58-63.12-52.05
							L106.72,53.99c29.89,5.99,62.75-1.47,85.47-22.02c14.44-13.06,25.39-30.78,43.1-38.87c23.38-10.67,50.97-1.11,73.13,11.9
							c22.16,13.01,43.12,29.79,68.35,34.67C417.99,47.66,458.68,21.32,485.5-10.99z M333-115.59
							c-20.98,10.21-45.71,15.58-68.23,11.53l-25.9,25.9c2.18,1.45,4.38,2.87,6.61,4.22c36.26,21.92,81.59,28.27,122.48,17.14
							c28.06-7.64,53.76-23.43,73.64-44.63l-51.93-51.93C371.55-139.48,353.47-125.55,333-115.59z"/>
					</g>
					<g style="clip-path:url(#SVGID_00000065062836967963257640000013695175570839402666_);">
						<g>
							
								<ellipse transform="matrix(0.1988 -0.98 0.98 0.1988 155.2493 570.9702)" class="st5" cx="426.83" cy="190.53" rx="57.9" ry="57.9"/>
							<g>
								
									<radialGradient id="SVGID_00000023264219005494823600000001817613496126456254_" cx="397.948" cy="295.7936" r="89.459" gradientTransform="matrix(0.7071 -0.7071 0.7071 0.7071 -103.5534 250)" gradientUnits="userSpaceOnUse">
									<stop  offset="0.3364" style="stop-color:#E83B46"/>
									<stop  offset="0.4253" style="stop-color:#E94149"/>
									<stop  offset="0.5437" style="stop-color:#EC5250"/>
									<stop  offset="0.6779" style="stop-color:#F26D5B"/>
									<stop  offset="0.7867" style="stop-color:#F78967"/>
									<stop  offset="0.8238" style="stop-color:#F89268"/>
									<stop  offset="0.8839" style="stop-color:#FAAA69"/>
									<stop  offset="0.9592" style="stop-color:#FDD16B"/>
									<stop  offset="1" style="stop-color:#FFE96D"/>
								</radialGradient>
								<path style="fill:url(#SVGID_00000023264219005494823600000001817613496126456254_);" d="M426.83,137.59
									c29.24,0,52.94,23.7,52.94,52.94s-23.7,52.94-52.94,52.94c-29.24,0-52.94-23.7-52.94-52.94S397.59,137.59,426.83,137.59z"/>
								<path class="st7" d="M445.29,149.25c-0.12-1.75-1.13-3.29-1.75-4.93c-0.52-1.39-0.7-2.81-0.61-4.23
									c12.27,3.91,22.61,12.18,29.18,22.98c-3.77,7.65-12.95,12.55-21.4,10.8c-1.52-0.32-3.07-0.81-4.59-0.47
									c-2.29,0.52-3.74,2.77-5.85,3.81c-4.25,2.09-9.6-2.06-9.98-6.78c-0.38-4.72,2.84-9.09,6.75-11.77
									C440.66,156.17,445.59,153.63,445.29,149.25z M425.16,216.04c0.81-3.71,2.17-8.02,5.79-9.16c3.65-1.15,7.6,1.69,11.32,0.78
									c4.02-0.98,5.82-6.13,4.58-10.07c-1.23-3.95-4.55-6.85-7.87-9.33c-4.7-3.5-11.51-6.54-16.01-2.78
									c-6.04-2.48-1.01-9.98-0.96-14.01c0.03-2.16-1.7-4.53-1.55-6.28c0.25-2.97,3.1-4.95,3.15-7.75
									c0.07-3.78-9.68-3.01-11.57-2.07c-4.94,2.46-7.08,9-12.24,11.66c-3.5,1.81-7.73,2.11-10.92,4.43
									c-3.04,2.21-4.6,5.87-6.03,9.35c-2.68,6.54-5.36,13.07-8.04,19.61c4.31,22.81,23.25,40.45,46.7,42.79
									C421.36,234.15,423.21,224.97,425.16,216.04z M476.08,171.1c-3.31,2.67-7.14,5.01-9.97,7.57
									c-6.99,6.32-12.92,15.47-10.86,24.67c0.44,1.98,1.38,4.03,3.19,4.95c3.94,2.01,8.06-2.52,9.61-6.67
									c1.55-4.14,3.18-9.3,7.52-10.16c1.53-0.3,2.97,0.1,4.17,0.95c0.02-0.63,0.05-1.25,0.05-1.89
									C479.77,183.67,478.45,177.12,476.08,171.1z M384.23,167.34c1.54-1.91,2.53-4.21,3.99-6.18c2.55-3.44,6.35-5.7,10.09-7.8
									c3.74-2.1,7.6-4.19,10.4-7.44c1.5-1.74,2.64-3.91,3.11-6.16c-15.43,4.55-27.92,15.94-33.97,30.66
									c0.02,0,0.04,0.01,0.06,0.02C380.34,170.81,382.69,169.25,384.23,167.34z M476.01,210.12c-0.97,0.68-1.96,1.31-2.96,1.9
									c-4.27,2.53-8.92,4.94-11.53,9.16c-1.78,2.88-2.02,6.92-0.54,9.79C467.57,225.4,472.77,218.26,476.01,210.12z
									 M431.14,219.19c-3.14,6.57,12.23,14.31,13.99,19.96c0.1,0.33,0.17,0.66,0.24,0.98c3.8-1.42,7.39-3.26,10.71-5.47
									C452.86,229.19,434.94,211.24,431.14,219.19z"/>
								<path class="st8" d="M426.83,231.15c-27.15,0-49.52-20.45-52.57-46.78c-0.23,2.02-0.37,4.08-0.37,6.16
									c0,29.24,23.7,52.94,52.94,52.94c29.24,0,52.94-23.7,52.94-52.94c0-2.09-0.13-4.14-0.37-6.16
									C476.35,210.71,453.98,231.15,426.83,231.15z"/>
							</g>
						</g>
						<g>
							
								<radialGradient id="SVGID_00000145779342780011346080000002766228299692411020_" cx="198.6932" cy="52.2095" r="97.7089" gradientTransform="matrix(0.7071 -0.7071 0.7071 0.7071 -103.5534 250)" gradientUnits="userSpaceOnUse">
								<stop  offset="0.3364" style="stop-color:#E83B46"/>
								<stop  offset="0.4253" style="stop-color:#E94149"/>
								<stop  offset="0.5437" style="stop-color:#EC5250"/>
								<stop  offset="0.6779" style="stop-color:#F26D5B"/>
								<stop  offset="0.7867" style="stop-color:#F78967"/>
								<stop  offset="0.8238" style="stop-color:#F89268"/>
								<stop  offset="0.8839" style="stop-color:#FAAA69"/>
								<stop  offset="0.9592" style="stop-color:#FDD16B"/>
								<stop  offset="1" style="stop-color:#FFE96D"/>
							</radialGradient>
							<circle style="fill:url(#SVGID_00000145779342780011346080000002766228299692411020_);" cx="121.12" cy="144.02" r="50.92"/>
							<g class="st10">
								<path class="st11" d="M152.02,136.53c-1.26-4.98-3.56-9.96-2.75-15.04c0.83-5.2,4.68-9.17,7.89-13.44
									c-3.41-3.42-7.33-6.37-11.67-8.74c0.03,20.02,2.58,40.29-2.89,59.45c-2.81,9.85-7.69,19.15-9.16,29.29
									c-0.26,1.8-0.42,3.63-0.52,5.49c0.99-0.24,1.96-0.5,2.93-0.79C146.11,175.49,156.94,155.96,152.02,136.53z"/>
								<path class="st11" d="M89.33,183.8c4.45-5.31,8.16-11.58,7.96-18.43c-0.26-9.06-7.31-17.28-6.03-26.24
									c1.5-10.5,13.98-17.98,12.69-28.52c-0.54-4.45-3.51-8.11-5.78-12.03c-6.97,3.52-13.11,8.62-17.85,14.95
									c1.42,11.99,2.85,23.98,4.27,35.98c0.88,7.38,1.68,15.22-1.53,21.92c-0.63,1.31-1.4,2.53-2.26,3.68
									C83.28,178.32,86.13,181.24,89.33,183.8z"/>
								<path class="st11" d="M160.12,173.78c0.08,0.89,0.16,1.78,0.26,2.66c4.78-5.77,8.35-12.69,10.23-20.47
									c3.16-13.07,0.96-26.17-5.18-37.01C161.46,137.07,158.55,155.4,160.12,173.78z"/>
								<path class="st11" d="M109.96,193.68c1.06-2.21,2.27-4.35,3.63-6.39c4.44-6.68,10.41-12.47,13.3-19.95
									c6.09-15.78-3.25-33.91,1.01-50.29c1.96-7.52,6.64-14.04,9.4-21.3c-1.38-0.46-2.78-0.88-4.22-1.23
									c-7.92-1.91-15.86-1.85-23.3-0.15c0.04,0.6,0.09,1.19,0.14,1.77c1.61,18.87,1.22,37.92-1.15,56.71
									c-1.62,12.86-4.17,25.57-7.16,38.19c2.41,1,4.93,1.82,7.54,2.45C109.42,193.58,109.69,193.62,109.96,193.68z"/>
							</g>
							<path class="st7" d="M170.61,144.32c-6.61,27.33-34.12,44.14-61.45,37.53c-21.31-5.15-36.21-23-38.62-43.57
								c-2.89,25.17,13.36,49.12,38.62,55.23c27.33,6.61,54.85-10.2,61.45-37.53c1.46-6.03,1.77-12.06,1.09-17.88
								C171.46,140.17,171.11,142.24,170.61,144.32z"/>
							
								<linearGradient id="SVGID_00000073705180262953836980000000455822713849758128_" gradientUnits="userSpaceOnUse" x1="-260.2387" y1="670.8484" x2="-413.0517" y2="774.1959" gradientTransform="matrix(0.8334 -0.5527 0.5527 0.8334 6.6149 -654.4987)">
								<stop  offset="0.0606" style="stop-color:#01F4EA"/>
								<stop  offset="0.2293" style="stop-color:#3DF6E6"/>
								<stop  offset="0.4386" style="stop-color:#81F8E2"/>
								<stop  offset="0.628" style="stop-color:#B7FADF"/>
								<stop  offset="0.7906" style="stop-color:#DEFBDD"/>
								<stop  offset="0.92" style="stop-color:#F6FCDC"/>
								<stop  offset="1" style="stop-color:#FFFCDB"/>
							</linearGradient>
							<path style="opacity:0.6;fill:url(#SVGID_00000073705180262953836980000000455822713849758128_);" d="M137.77,95.89
								c1.9,0.66,3.78,1.44,5.62,2.34c5.35-4.88,9.45-7.11,11.43-5.81s1.58,5.94-0.73,12.8c-3.69,10.9-12.21,27.4-23.64,44.9
								c-11.42,17.49-23.1,31.93-31.6,39.69c-5.35,4.88-9.44,7.12-11.42,5.82c-1.99-1.3-1.59-5.95,0.72-12.81
								c-1.57-1.32-3.04-2.73-4.4-4.2c-15.38,27.93-23.27,48.52-18.8,51.43c4.47,2.92,20.13-12.59,39.52-37.9
								c8.94-11.66,18.68-25.42,28.46-40.41c9.79-14.99,18.47-29.43,25.56-42.32C173.87,81.49,181.77,60.91,177.3,58
								C172.84,55.08,157.16,70.58,137.77,95.89z"/>
						</g>
						<g>
							<path class="st5" d="M584.18,20.05c-45.29,45.29-105.5,70.23-169.55,70.23c-132.21,0-239.77-107.56-239.77-239.77
								c0-64.05,24.94-124.26,70.23-169.55c45.29-45.29,105.5-70.23,169.55-70.23c132.21,0,239.77,107.56,239.77,239.77
								C654.41-85.45,629.47-25.24,584.18,20.05z"/>
							
								<linearGradient id="SVGID_00000044146503660989942160000004005864687195911871_" gradientUnits="userSpaceOnUse" x1="423.6713" y1="83.9262" x2="874.1312" y2="83.9262" gradientTransform="matrix(0.7071 -0.7071 0.7071 0.7071 -103.5534 250)">
								<stop  offset="0.1096" style="stop-color:#FF3065"/>
								<stop  offset="0.3265" style="stop-color:#D5167C"/>
								<stop  offset="0.4496" style="stop-color:#C30A86"/>
								<stop  offset="0.5442" style="stop-color:#B7098A"/>
								<stop  offset="0.7149" style="stop-color:#970696"/>
								<stop  offset="0.9406" style="stop-color:#6501AA"/>
								<stop  offset="1" style="stop-color:#5600AF"/>
							</linearGradient>
							
								<circle style="fill:url(#SVGID_00000044146503660989942160000004005864687195911871_);" cx="414.63" cy="-149.5" r="225.23"/>
							<path class="st7" d="M342.57-82.04c21.06,21.06,21.06,55.21,0,76.27c-21.06,21.06-55.21,21.06-76.27,0
								c-21.06-21.06-21.06-55.21,0-76.27S321.5-103.11,342.57-82.04z M245.04-237.84c-25.2,25.2-25.2,66.07,0,91.27
								s66.07,25.2,91.27,0c25.2-25.2,25.2-66.07,0-91.27C311.11-263.05,270.24-263.05,245.04-237.84z M385.33-110.88
								c25.53,25.53,66.93,25.53,92.46,0c25.53-25.53,25.53-66.93,0-92.46c-25.53-25.53-66.93-25.53-92.46,0
								S359.8-136.41,385.33-110.88z M348.67-329.27c-22.45,22.45-22.45,58.85,0,81.3s58.85,22.45,81.3,0s22.45-58.85,0-81.3
								C407.52-351.72,371.12-351.72,348.67-329.27z M486.51-237.03c19.81,19.81,51.92,19.81,71.72,0s19.81-51.92,0-71.72
								c-19.81-19.81-51.92-19.81-71.72,0S466.7-256.84,486.51-237.03z M537.06-93.73c20.8,20.8,54.52,20.8,75.33,0
								c20.8-20.8,20.8-54.52,0-75.33s-54.52-20.8-75.33,0C516.26-148.26,516.26-114.53,537.06-93.73z M403.63-60.11
								c-23.41,23.41-23.41,61.37,0,84.78c23.41,23.41,61.37,23.41,84.78,0c23.41-23.41,23.41-61.37,0-84.78
								C465-83.53,427.04-83.53,403.63-60.11z M253.98-124.79c8.7,8.7,8.7,22.82,0,31.52c-8.7,8.7-22.82,8.7-31.52,0
								s-8.7-22.82,0-31.52S245.27-133.5,253.98-124.79z M287.26-305.13c-7.8,7.8-7.8,20.46,0,28.26c7.8,7.8,20.46,7.8,28.26,0
								c7.8-7.8,7.8-20.46,0-28.26C307.72-312.93,295.07-312.93,287.26-305.13z M451.74-342.43c-6,6-6,15.74,0,21.74
								s15.74,6,21.74,0c6-6,6-15.74,0-21.74C467.47-348.43,457.74-348.43,451.74-342.43z M445.88-246.34
								c-3.06,3.06-3.06,8.03,0,11.09c3.06,3.06,8.03,3.06,11.09,0c3.06-3.06,3.06-8.03,0-11.09
								C453.9-249.41,448.94-249.41,445.88-246.34z M362.05-221.22c-2.52,2.52-2.52,6.6,0,9.12c2.52,2.52,6.6,2.52,9.12,0
								c2.52-2.52,2.52-6.6,0-9.12C368.65-223.74,364.57-223.74,362.05-221.22z M335.64-126.56c-5.58,5.58-5.58,14.62,0,20.2
								c5.58,5.58,14.62,5.58,20.2,0c5.58-5.58,5.58-14.62,0-20.2C350.26-132.14,341.22-132.14,335.64-126.56z M341.58,10.02
								c-8.59,8.59-8.59,22.51,0,31.09c8.59,8.59,22.51,8.59,31.09,0c8.59-8.59,8.59-22.51,0-31.09
								C364.09,1.43,350.17,1.43,341.58,10.02z M488.89-102.71c-5.81,5.81-5.81,15.24,0,21.06c5.81,5.81,15.24,5.81,21.06,0
								c5.81-5.81,5.81-15.24,0-21.06C504.13-108.52,494.7-108.52,488.89-102.71z M369.2-94.75c-6.06,6.06-6.06,15.89,0,21.95
								c6.06,6.06,15.89,6.06,21.95,0c6.06-6.06,6.06-15.89,0-21.95C385.1-100.81,375.27-100.81,369.2-94.75z M502.31-201.48
								c-6.26,6.26-6.26,16.41,0,22.67c6.26,6.26,16.41,6.26,22.67,0c6.26-6.26,6.26-16.41,0-22.67
								C518.72-207.74,508.57-207.74,502.31-201.48z M571.68-238.34c-6.53,6.53-6.53,17.12,0,23.66c6.53,6.53,17.12,6.53,23.66,0
								c6.53-6.53,6.53-17.12,0-23.66C588.81-244.87,578.22-244.87,571.68-238.34z M525.72-59.35c-12.16,12.16-12.16,31.89,0,44.05
								s31.89,12.16,44.05,0s12.16-31.89,0-44.05S537.88-71.52,525.72-59.35z M262.04-279.91c-3.46,3.46-3.46,9.07,0,12.53
								s9.07,3.46,12.53,0c3.46-3.46,3.46-9.07,0-12.53S265.5-283.37,262.04-279.91z M215.74-153.17c-1.73,1.73-1.73,4.52,0,6.25
								c1.73,1.73,4.52,1.73,6.25,0c1.73-1.73,1.73-4.52,0-6.25C220.26-154.89,217.46-154.89,215.74-153.17z M320.94-326.28
								c-1.82,1.82-1.82,4.77,0,6.59c1.82,1.82,4.77,1.82,6.59,0c1.82-1.82,1.82-4.77,0-6.59
								C325.71-328.1,322.76-328.1,320.94-326.28z"/>
							<path class="st14" d="M496.87-154.19c-0.7-15.75-7.05-31.29-19.08-43.32c-25.53-25.53-66.93-25.53-92.46,0
								c-12.03,12.03-18.38,27.57-19.08,43.32c-0.78-17.69,5.57-35.63,19.08-49.14c25.53-25.53,66.93-25.53,92.46,0
								C491.3-189.83,497.65-171.88,496.87-154.19z M456.97-246.34c-3.06-3.06-8.03-3.06-11.09,0c-1.92,1.92-2.64,4.59-2.15,7.07
								c0.29-1.47,1.01-2.88,2.15-4.02c3.06-3.06,8.03-3.06,11.09,0c1.14,1.14,1.86,2.55,2.15,4.02
								C459.6-241.75,458.89-244.42,456.97-246.34z M362.05-218.17c2.52-2.52,6.6-2.52,9.12,0c0.87,0.87,1.43,1.92,1.7,3.03
								c0.51-2.11-0.05-4.43-1.7-6.08c-2.52-2.52-6.6-2.52-9.12,0c-1.65,1.65-2.21,3.97-1.7,6.08
								C360.62-216.25,361.18-217.3,362.05-218.17z M524.98-201.48c-6.26-6.26-16.41-6.26-22.67,0c-3.52,3.52-5.06,8.26-4.62,12.86
								c0.34-3.58,1.88-7.07,4.62-9.81c6.26-6.26,16.41-6.26,22.67,0c2.74,2.74,4.28,6.23,4.62,9.81
								C530.04-193.22,528.5-197.97,524.98-201.48z M320.94-323.23c1.82-1.82,4.77-1.82,6.59,0c0.52,0.52,0.87,1.13,1.09,1.77
								c0.57-1.63,0.21-3.51-1.09-4.82c-1.82-1.82-4.77-1.82-6.59,0c-1.3,1.3-1.66,3.19-1.09,4.82
								C320.08-322.1,320.43-322.71,320.94-323.23z M287.26-302.08c7.8-7.8,20.46-7.8,28.26,0c3.51,3.51,5.43,8.01,5.78,12.61
								c0.43-5.61-1.49-11.36-5.78-15.65c-7.8-7.8-20.46-7.8-28.26,0c-4.29,4.29-6.21,10.04-5.78,15.65
								C281.83-294.07,283.75-298.56,287.26-302.08z M509.94-102.71c-5.81-5.81-15.24-5.81-21.06,0c-3.3,3.3-4.72,7.75-4.28,12.05
								c0.34-3.29,1.76-6.48,4.28-9c5.81-5.81,15.24-5.81,21.06,0c2.52,2.52,3.94,5.72,4.28,9
								C514.66-94.96,513.24-99.41,509.94-102.71z M451.74-339.38c6-6,15.74-6,21.74,0c2.61,2.61,4.09,5.93,4.42,9.34
								c0.44-4.43-1.03-9-4.42-12.39c-6-6-15.74-6-21.74,0c-3.39,3.39-4.86,7.97-4.42,12.39
								C447.65-333.45,449.13-336.77,451.74-339.38z M355.84-126.56c-5.58-5.58-14.62-5.58-20.2,0c-3.18,3.18-4.54,7.48-4.1,11.62
								c0.33-3.13,1.7-6.17,4.1-8.57c5.58-5.58,14.62-5.58,20.2,0c2.4,2.4,3.76,5.44,4.1,8.57
								C360.37-119.08,359.01-123.38,355.84-126.56z M391.16-94.75c-6.06-6.06-15.89-6.06-21.95,0c-3.42,3.42-4.91,8.04-4.47,12.5
								c0.34-3.45,1.83-6.81,4.47-9.45c6.06-6.06,15.89-6.06,21.95,0c2.64,2.64,4.13,6,4.47,9.45
								C396.07-86.71,394.58-91.33,391.16-94.75z M331.91-285.71c0.69-13.73,6.28-27.25,16.76-37.74c22.45-22.45,58.85-22.45,81.3,0
								c10.48,10.48,16.07,24.01,16.76,37.74c0.79-15.67-4.79-31.59-16.76-43.56c-22.45-22.45-58.85-22.45-81.3,0
								C336.71-317.31,331.12-301.38,331.91-285.71z M537.06-169.06c-11.14,11.14-16.31,25.99-15.51,40.57
								c0.69-12.64,5.85-25.09,15.51-34.75c20.8-20.8,54.52-20.8,75.32,0c9.66,9.66,14.83,22.11,15.51,34.75
								c0.79-14.58-4.37-29.43-15.51-40.57C591.58-189.86,557.86-189.86,537.06-169.06z M525.72-59.35
								c-6.47,6.47-9.5,15.08-9.09,23.55c0.36-7.46,3.39-14.81,9.09-20.5c12.16-12.16,31.89-12.16,44.05,0
								c5.69,5.69,8.72,13.04,9.09,20.5c0.41-8.47-2.62-17.08-9.09-23.55C557.61-71.52,537.88-71.52,525.72-59.35z M486.51-308.76
								c-10.64,10.64-15.56,24.84-14.76,38.77c0.69-11.99,5.6-23.79,14.76-32.95c19.81-19.81,51.92-19.81,71.72,0
								c9.16,9.16,14.08,20.96,14.76,32.95c0.8-13.93-4.12-28.13-14.76-38.77C538.43-328.57,506.32-328.57,486.51-308.76z
								 M571.68-238.34c-3.65,3.65-5.26,8.58-4.83,13.35c0.34-3.76,1.95-7.43,4.83-10.3c6.53-6.53,17.12-6.53,23.66,0
								c2.88,2.88,4.49,6.54,4.83,10.3c0.43-4.77-1.17-9.7-4.83-13.35C588.81-244.87,578.22-244.87,571.68-238.34z M262.04-276.86
								c3.46-3.46,9.07-3.46,12.53,0c1.34,1.34,2.16,3,2.46,4.74c0.48-2.74-0.34-5.67-2.46-7.79c-3.46-3.46-9.07-3.46-12.53,0
								c-2.12,2.12-2.93,5.04-2.46,7.79C259.89-273.85,260.7-275.52,262.04-276.86z M403.63-60.11c-12.45,12.45-18.28,29-17.49,45.3
								c0.69-14.36,6.52-28.51,17.49-39.48c23.41-23.41,61.37-23.41,84.78,0c10.97,10.97,16.79,25.12,17.49,39.48
								c0.79-16.3-5.04-32.86-17.49-45.3C465-83.53,427.04-83.53,403.63-60.11z M341.58,10.02c-4.68,4.68-6.8,10.95-6.38,17.07
								c0.35-5.11,2.48-10.12,6.38-14.02c8.59-8.59,22.51-8.59,31.09,0c3.9,3.9,6.03,8.91,6.38,14.02
								c0.42-6.12-1.7-12.39-6.38-17.07C364.09,1.43,350.17,1.43,341.58,10.02z M245.04-232.02c25.2-25.2,66.07-25.2,91.27,0
								c11.86,11.86,18.14,27.19,18.83,42.72c0.78-17.47-5.49-35.21-18.83-48.55c-25.2-25.2-66.07-25.2-91.27,0
								c-13.34,13.34-19.62,31.07-18.83,48.55C226.9-204.83,233.18-220.16,245.04-232.02z M215.74-150.12
								c1.73-1.73,4.52-1.73,6.25,0c0.47,0.47,0.8,1.02,1.01,1.6c0.58-1.57,0.25-3.39-1.01-4.65c-1.73-1.73-4.52-1.73-6.25,0
								c-1.26,1.26-1.59,3.08-1.01,4.65C214.94-149.1,215.27-149.65,215.74-150.12z M222.46-121.74c8.7-8.7,22.82-8.7,31.52,0
								c3.96,3.96,6.12,9.05,6.47,14.24c0.42-6.2-1.73-12.54-6.47-17.28c-8.7-8.7-22.82-8.7-31.52,0
								c-4.74,4.74-6.89,11.08-6.47,17.28C216.34-112.69,218.49-117.78,222.46-121.74z M266.29-76.22
								c21.06-21.06,55.21-21.06,76.27,0c9.79,9.79,15.02,22.41,15.71,35.23c0.79-14.76-4.44-29.78-15.71-41.05
								c-21.06-21.06-55.21-21.06-76.27,0c-11.27,11.27-16.51,26.29-15.71,41.05C251.27-53.81,256.5-66.43,266.29-76.22z"/>
							
								<linearGradient id="SVGID_00000014632577747792453320000011618612527138024614_" gradientUnits="userSpaceOnUse" x1="423.6714" y1="109.1637" x2="823.6562" y2="109.1637" gradientTransform="matrix(0.7071 -0.7071 0.7071 0.7071 -103.5534 250)">
								<stop  offset="0" style="stop-color:#9796FE"/>
								<stop  offset="0.9927" style="stop-color:#FF7DFF"/>
							</linearGradient>
							<path style="opacity:0.5;fill:url(#SVGID_00000014632577747792453320000011618612527138024614_);" d="M414.63,29.57
								c-116.6,0-212.5-88.6-224.06-202.15c-0.77,7.59-1.17,15.29-1.17,23.08c0,124.39,100.84,225.23,225.23,225.23
								c124.39,0,225.23-100.84,225.23-225.23c0-7.79-0.4-15.49-1.17-23.08C627.14-59.03,531.23,29.57,414.63,29.57z"/>
						</g>
					</g>
					<g style="clip-path:url(#SVGID_00000065062836967963257640000013695175570839402666_);">
						<g>
							<path class="st16" d="M163.06,335.03l2.24,0.69c0.78,0.24,1.6,0.25,2.37,0.04l2.22-0.62c0.09-0.02,0.17,0.06,0.14,0.14
								l-0.62,2.22c-0.21,0.77-0.2,1.59,0.04,2.37l0.69,2.24c0.03,0.09-0.05,0.16-0.14,0.14l-2.24-0.69
								c-0.78-0.24-1.6-0.25-2.37-0.04l-2.22,0.62c-0.09,0.02-0.17-0.06-0.14-0.14l0.62-2.22c0.21-0.77,0.2-1.59-0.04-2.37
								l-0.69-2.24C162.9,335.09,162.97,335.01,163.06,335.03z"/>
							<path class="st16" d="M560.24,65.28l2.24,0.69c0.78,0.24,1.6,0.25,2.37,0.04l2.22-0.62c0.09-0.02,0.17,0.06,0.14,0.14
								l-0.62,2.22c-0.21,0.77-0.2,1.59,0.04,2.37l0.69,2.24c0.03,0.09-0.05,0.16-0.14,0.14l-2.24-0.69
								c-0.78-0.24-1.6-0.25-2.37-0.04l-2.22,0.62c-0.09,0.02-0.17-0.06-0.14-0.14l0.62-2.22c0.21-0.77,0.2-1.59-0.04-2.37
								l-0.69-2.24C560.08,65.33,560.16,65.25,560.24,65.28z"/>
							<path class="st16" d="M328.66,143.72l2.24,0.69c0.78,0.24,1.6,0.25,2.37,0.04l2.22-0.62c0.09-0.02,0.17,0.06,0.14,0.14
								l-0.62,2.22c-0.21,0.77-0.2,1.59,0.04,2.37l0.69,2.24c0.03,0.09-0.05,0.16-0.14,0.14l-2.24-0.69
								c-0.78-0.24-1.6-0.25-2.37-0.04l-2.22,0.62c-0.09,0.02-0.17-0.06-0.14-0.14l0.62-2.22c0.21-0.77,0.2-1.59-0.04-2.37
								l-0.69-2.24C328.5,143.78,328.57,143.7,328.66,143.72z"/>
							<path class="st16" d="M591.56,240.93l2.24,0.69c0.78,0.24,1.6,0.25,2.37,0.04l2.22-0.62c0.09-0.02,0.17,0.06,0.14,0.14
								l-0.62,2.22c-0.21,0.77-0.2,1.59,0.04,2.37l0.69,2.24c0.03,0.09-0.05,0.16-0.14,0.14l-2.24-0.69
								c-0.78-0.24-1.6-0.25-2.37-0.04l-2.22,0.62c-0.09,0.02-0.17-0.06-0.14-0.14l0.62-2.22c0.21-0.77,0.2-1.59-0.04-2.37
								l-0.69-2.24C591.4,240.98,591.47,240.9,591.56,240.93z"/>
							<path class="st16" d="M329.11,225.32l2.24,0.69c0.78,0.24,1.6,0.25,2.37,0.04l2.22-0.62c0.09-0.02,0.17,0.06,0.14,0.14
								l-0.62,2.22c-0.21,0.77-0.2,1.59,0.04,2.37l0.69,2.24c0.03,0.09-0.05,0.16-0.14,0.14l-2.24-0.69
								c-0.78-0.24-1.6-0.25-2.37-0.04l-2.22,0.62c-0.09,0.02-0.17-0.06-0.14-0.14l0.62-2.22c0.21-0.77,0.2-1.59-0.04-2.37
								l-0.69-2.24C328.94,225.37,329.02,225.29,329.11,225.32z"/>
							<path class="st16" d="M211.64,30.31l2.26,0.66c0.78,0.23,1.62,0.23,2.4,0l2.26-0.66c0.09-0.03,0.17,0.06,0.14,0.14
								l-0.66,2.26c-0.23,0.78-0.23,1.62,0,2.4l0.66,2.26c0.03,0.09-0.06,0.17-0.14,0.14l-2.26-0.66c-0.78-0.23-1.62-0.23-2.4,0
								l-2.26,0.66c-0.09,0.03-0.17-0.06-0.14-0.14l0.66-2.26c0.23-0.78,0.23-1.62,0-2.4l-0.66-2.26
								C211.47,30.37,211.55,30.28,211.64,30.31z"/>
							<path class="st16" d="M326.82,313.06l2.26,0.66c0.78,0.23,1.62,0.23,2.4,0l2.26-0.66c0.09-0.03,0.17,0.06,0.14,0.14
								l-0.66,2.26c-0.23,0.78-0.23,1.62,0,2.4l0.66,2.26c0.03,0.09-0.06,0.17-0.14,0.14l-2.26-0.66c-0.78-0.23-1.62-0.23-2.4,0
								l-2.26,0.66c-0.09,0.03-0.17-0.06-0.14-0.14l0.66-2.26c0.23-0.78,0.23-1.62,0-2.4l-0.66-2.26
								C326.65,313.12,326.73,313.03,326.82,313.06z"/>
							<path class="st16" d="M104.62,218.29l0.86,0.25c0.3,0.09,0.61,0.09,0.91,0l0.86-0.25c0.03-0.01,0.06,0.02,0.05,0.05
								l-0.25,0.86c-0.09,0.3-0.09,0.61,0,0.91l0.25,0.86c0.01,0.03-0.02,0.06-0.05,0.05l-0.86-0.25c-0.3-0.09-0.61-0.09-0.91,0
								l-0.86,0.25c-0.03,0.01-0.06-0.02-0.05-0.05l0.25-0.86c0.09-0.3,0.09-0.61,0-0.91l-0.25-0.86
								C104.56,218.32,104.59,218.28,104.62,218.29z"/>
							<path class="st16" d="M173.36,231.2l0.86,0.25c0.3,0.09,0.61,0.09,0.91,0l0.86-0.25c0.03-0.01,0.06,0.02,0.05,0.05
								l-0.25,0.86c-0.09,0.3-0.09,0.61,0,0.91l0.25,0.86c0.01,0.03-0.02,0.06-0.05,0.05l-0.86-0.25c-0.3-0.09-0.61-0.09-0.91,0
								l-0.86,0.25c-0.03,0.01-0.06-0.02-0.05-0.05l0.25-0.86c0.09-0.3,0.09-0.61,0-0.91l-0.25-0.86
								C173.3,231.22,173.33,231.19,173.36,231.2z"/>
							<path class="st16" d="M293.34,131.47l0.86,0.25c0.3,0.09,0.61,0.09,0.91,0l0.86-0.25c0.03-0.01,0.06,0.02,0.05,0.05
								l-0.25,0.86c-0.09,0.3-0.09,0.61,0,0.91l0.25,0.86c0.01,0.03-0.02,0.06-0.05,0.05l-0.86-0.25c-0.3-0.09-0.61-0.09-0.91,0
								l-0.86,0.25c-0.03,0.01-0.06-0.02-0.05-0.05l0.25-0.86c0.09-0.3,0.09-0.61,0-0.91l-0.25-0.86
								C293.28,131.49,293.31,131.46,293.34,131.47z"/>
							<path class="st16" d="M-15.88,202.95l0.86,0.25c0.3,0.09,0.61,0.09,0.91,0l0.86-0.25c0.03-0.01,0.06,0.02,0.05,0.05
								l-0.25,0.86c-0.09,0.3-0.09,0.61,0,0.91l0.25,0.86c0.01,0.03-0.02,0.06-0.05,0.05l-0.86-0.25c-0.3-0.09-0.61-0.09-0.91,0
								l-0.86,0.25c-0.03,0.01-0.06-0.02-0.05-0.05l0.25-0.86c0.09-0.3,0.09-0.61,0-0.91l-0.25-0.86
								C-15.95,202.97-15.92,202.94-15.88,202.95z"/>
							<path class="st16" d="M85.05,256.79l1.11,0.32c0.38,0.11,0.79,0.11,1.18,0l1.11-0.32c0.04-0.01,0.08,0.03,0.07,0.07
								l-0.32,1.11c-0.11,0.38-0.11,0.79,0,1.18l0.32,1.11c0.01,0.04-0.03,0.08-0.07,0.07L87.34,260c-0.38-0.11-0.79-0.11-1.18,0
								l-1.11,0.32c-0.04,0.01-0.08-0.03-0.07-0.07l0.32-1.11c0.11-0.38,0.11-0.79,0-1.18l-0.32-1.11
								C84.97,256.82,85.01,256.78,85.05,256.79z"/>
							<path class="st16" d="M539.72,131.31l0.86,0.25c0.3,0.09,0.61,0.09,0.91,0l0.86-0.25c0.03-0.01,0.06,0.02,0.05,0.05
								l-0.25,0.86c-0.09,0.3-0.09,0.61,0,0.91l0.25,0.86c0.01,0.03-0.02,0.06-0.05,0.05l-0.86-0.25c-0.3-0.09-0.61-0.09-0.91,0
								l-0.86,0.25c-0.03,0.01-0.06-0.02-0.05-0.05l0.25-0.86c0.09-0.3,0.09-0.61,0-0.91l-0.25-0.86
								C539.65,131.33,539.69,131.3,539.72,131.31z"/>
							<path class="st16" d="M520.15,169.8l1.11,0.32c0.38,0.11,0.79,0.11,1.18,0l1.11-0.32c0.04-0.01,0.08,0.03,0.07,0.07
								l-0.32,1.11c-0.11,0.38-0.11,0.79,0,1.18l0.32,1.11c0.01,0.04-0.03,0.08-0.07,0.07l-1.11-0.32c-0.38-0.11-0.79-0.11-1.18,0
								l-1.11,0.32c-0.04,0.01-0.08-0.03-0.07-0.07l0.32-1.11c0.11-0.38,0.11-0.79,0-1.18l-0.32-1.11
								C520.07,169.83,520.11,169.79,520.15,169.8z"/>
							<path class="st16" d="M6.79,189.28l1.11,0.32c0.38,0.11,0.79,0.11,1.18,0l1.11-0.32c0.04-0.01,0.08,0.03,0.07,0.07
								l-0.32,1.11c-0.11,0.38-0.11,0.79,0,1.18l0.32,1.11c0.01,0.04-0.03,0.08-0.07,0.07l-1.11-0.32c-0.38-0.11-0.79-0.11-1.18,0
								l-1.11,0.32c-0.04,0.01-0.08-0.03-0.07-0.07l0.32-1.11c0.11-0.38,0.11-0.79,0-1.18l-0.32-1.11
								C6.7,189.31,6.74,189.27,6.79,189.28z"/>
							<path class="st16" d="M199.26,3.54l1.11,0.32c0.38,0.11,0.79,0.11,1.18,0l1.11-0.32c0.04-0.01,0.08,0.03,0.07,0.07
								l-0.32,1.11c-0.11,0.38-0.11,0.79,0,1.18l0.32,1.11c0.01,0.04-0.03,0.08-0.07,0.07l-1.11-0.32c-0.38-0.11-0.79-0.11-1.18,0
								l-1.11,0.32c-0.04,0.01-0.08-0.03-0.07-0.07l0.32-1.11c0.11-0.38,0.11-0.79,0-1.18l-0.32-1.11
								C199.18,3.57,199.21,3.53,199.26,3.54z"/>
							<path class="st16" d="M443.66,120.07l1.58,0.46c0.55,0.16,1.13,0.16,1.68,0l1.58-0.46c0.06-0.02,0.12,0.04,0.1,0.1
								l-0.46,1.58c-0.16,0.55-0.16,1.13,0,1.68l0.46,1.58c0.02,0.06-0.04,0.12-0.1,0.1l-1.58-0.46c-0.55-0.16-1.13-0.16-1.68,0
								l-1.58,0.46c-0.06,0.02-0.12-0.04-0.1-0.1l0.46-1.58c0.16-0.55,0.16-1.13,0-1.68l-0.46-1.58
								C443.54,120.11,443.6,120.05,443.66,120.07z"/>
						</g>
						<g>
							<path class="st17" d="M489.36,116.41c0.44,0.44,0.44,1.16,0,1.61c-0.44,0.44-1.16,0.44-1.61,0c-0.44-0.44-0.44-1.16,0-1.61
								C488.2,115.96,488.92,115.96,489.36,116.41z"/>
							<path class="st17" d="M367.33,243.23c0.44,0.44,0.44,1.16,0,1.61c-0.44,0.44-1.16,0.44-1.61,0c-0.44-0.44-0.44-1.16,0-1.61
								S366.88,242.78,367.33,243.23z"/>
							<path class="st17" d="M389.3,284c0.44,0.44,0.44,1.16,0,1.61c-0.44,0.44-1.16,0.44-1.61,0c-0.44-0.44-0.44-1.16,0-1.61
								C388.14,283.56,388.86,283.56,389.3,284z"/>
							<path class="st17" d="M575.18,108.05c0.33,0.33,0.34,0.86,0.02,1.17c-0.32,0.32-0.85,0.31-1.17-0.02
								c-0.33-0.33-0.34-0.86-0.02-1.17C574.32,107.71,574.85,107.72,575.18,108.05z"/>
							<path class="st17" d="M173.82,185.7c0.33,0.33,0.33,0.86,0,1.19c-0.33,0.33-0.86,0.33-1.19,0c-0.33-0.33-0.33-0.86,0-1.19
								C172.96,185.37,173.5,185.37,173.82,185.7z"/>
							<path class="st17" d="M590.74,68.16c0.46-0.04,0.87,0.29,0.93,0.75c0.06,0.46-0.26,0.86-0.72,0.91
								c-0.46,0.04-0.87-0.29-0.93-0.75C589.97,68.61,590.29,68.2,590.74,68.16z"/>
							<circle class="st17" cx="26.58" cy="177.31" r="2.11"/>
							<path class="st17" d="M364.01,268.3c0.82,0.82,0.82,2.16,0,2.98c-0.82,0.82-2.16,0.82-2.98,0c-0.82-0.82-0.82-2.16,0-2.98
								C361.85,267.47,363.18,267.47,364.01,268.3z"/>
							
								<ellipse transform="matrix(0.3246 -0.9459 0.9459 0.3246 317.8431 630.7757)" class="st17" cx="600.58" cy="92.84" rx="2.11" ry="2.11"/>
							<path class="st17" d="M297.2,88.99c0.82,0.82,0.82,2.16,0,2.98c-0.82,0.82-2.16,0.82-2.98,0c-0.82-0.82-0.82-2.16,0-2.98
								S296.38,88.16,297.2,88.99z"/>
							<path class="st17" d="M198.07,119.22c0.82,0.82,0.82,2.16,0,2.98c-0.82,0.82-2.16,0.82-2.98,0c-0.82-0.82-0.82-2.16,0-2.98
								C195.91,118.4,197.25,118.4,198.07,119.22z"/>
							<circle class="st17" cx="378.43" cy="101.03" r="2.11"/>
							<path class="st17" d="M194.59-7.55c0.82,0.82,0.82,2.16,0,2.98c-0.82,0.82-2.16,0.82-2.98,0c-0.82-0.82-0.82-2.16,0-2.98
								C192.43-8.37,193.76-8.37,194.59-7.55z"/>
							<path class="st17" d="M44.17,200.83c0.44,0.44,0.44,1.16,0,1.61c-0.44,0.44-1.16,0.44-1.61,0c-0.44-0.44-0.44-1.16,0-1.61
								C43.01,200.38,43.73,200.38,44.17,200.83z"/>
							<path class="st17" d="M121.1,290.59c0.44,0.44,0.44,1.16,0,1.61c-0.44,0.44-1.16,0.44-1.61,0c-0.44-0.44-0.44-1.16,0-1.61
								C119.94,290.15,120.66,290.15,121.1,290.59z"/>
							<circle class="st17" cx="340.72" cy="268.23" r="0.87"/>
							<circle class="st17" cx="330.68" cy="341.47" r="0.87"/>
							<circle class="st17" cx="487.54" cy="130.1" r="0.47"/>
							<path class="st17" d="M211.83,100.45c0.18,0.18,0.19,0.48,0.01,0.65c-0.18,0.18-0.47,0.17-0.65-0.01
								c-0.18-0.18-0.19-0.48-0.01-0.65C211.35,100.26,211.64,100.27,211.83,100.45z"/>
							<path class="st17" d="M191.76,77.22c0.46-0.05,0.88,0.28,0.93,0.75c0.05,0.46-0.28,0.88-0.75,0.93
								c-0.46,0.05-0.88-0.28-0.93-0.75C190.96,77.69,191.3,77.27,191.76,77.22z"/>
							<path class="st17" d="M270.69,61.73c0.46-0.05,0.88,0.28,0.93,0.75c0.05,0.46-0.28,0.88-0.75,0.93
								c-0.46,0.05-0.88-0.28-0.93-0.75C269.89,62.19,270.23,61.78,270.69,61.73z"/>
							<path class="st17" d="M196.33,165.19c0.46-0.05,0.88,0.28,0.93,0.75c0.05,0.46-0.28,0.88-0.75,0.93
								c-0.46,0.05-0.88-0.28-0.93-0.75C195.53,165.65,195.86,165.24,196.33,165.19z"/>
							<circle class="st17" cx="608.26" cy="120.77" r="0.47"/>
							<path class="st17" d="M132.51,305.62c0.33,0.33,0.33,0.88,0,1.21c-0.33,0.33-0.88,0.33-1.21,0c-0.33-0.33-0.33-0.88,0-1.21
								C131.64,305.29,132.18,305.29,132.51,305.62z"/>
							<circle class="st17" cx="381.3" cy="322.92" r="0.47"/>
							<circle class="st17" cx="395.64" cy="241.07" r="0.47"/>
							<path class="st17" d="M150.7,258.32c0.34,0.34,0.34,0.89,0,1.23c-0.34,0.34-0.89,0.34-1.23,0c-0.34-0.34-0.34-0.89,0-1.23
								C149.81,257.98,150.36,257.98,150.7,258.32z"/>
							<path class="st17" d="M174.91,251.41c-0.34,0.34-0.89,0.34-1.23,0c-0.34-0.34-0.34-0.89,0-1.23c0.34-0.34,0.89-0.34,1.23,0
								C175.26,250.51,175.26,251.07,174.91,251.41z"/>
							<path class="st17" d="M292.91,321.85c0.18,0.18,0.18,0.48,0,0.66c-0.18,0.18-0.48,0.18-0.66,0c-0.18-0.18-0.18-0.48,0-0.66
								C292.43,321.66,292.73,321.66,292.91,321.85z"/>
							<path class="st17" d="M395.31,243.13c0.2,0.17,0.22,0.46,0.05,0.66c-0.17,0.2-0.46,0.22-0.66,0.05
								c-0.2-0.17-0.22-0.46-0.05-0.66C394.82,242.99,395.12,242.96,395.31,243.13z"/>
							<path class="st17" d="M38.74,223.69c0.24,0.1,0.35,0.37,0.25,0.61c-0.1,0.24-0.37,0.35-0.61,0.25
								c-0.24-0.1-0.35-0.37-0.25-0.61C38.23,223.7,38.5,223.59,38.74,223.69z"/>
						</g>
					</g>
					<g style="clip-path:url(#SVGID_00000065062836967963257640000013695175570839402666_);">
						
							<linearGradient id="SVGID_00000028311172249977721460000000193768838454228398_" gradientUnits="userSpaceOnUse" x1="-1057.6879" y1="1961.4042" x2="-1057.6879" y2="2412.7937" gradientTransform="matrix(1 0 0 1 1305.1099 -1893.5959)">
							<stop  offset="0.0606" style="stop-color:#01F4EA"/>
							<stop  offset="0.2293" style="stop-color:#3DF6E6"/>
							<stop  offset="0.4386" style="stop-color:#81F8E2"/>
							<stop  offset="0.628" style="stop-color:#B7FADF"/>
							<stop  offset="0.7906" style="stop-color:#DEFBDD"/>
							<stop  offset="0.92" style="stop-color:#F6FCDC"/>
							<stop  offset="1" style="stop-color:#FFFCDB"/>
						</linearGradient>
						<path style="opacity:0.6;fill:url(#SVGID_00000028311172249977721460000000193768838454228398_);" d="M699.74,366.85
							c-1.86-41.43-10.08-82.65-7.86-124.06l-45.21-122.77c-19.03-7.66-41.27-6.89-59.72,2.06c-18.45,8.95-32.83,25.94-38.6,45.62
							c-5.86,19.98-5.09,45.25-22.79,56.21c-13.9,8.62-33.02,6.62-45.79,17.12c-11.84,9.74-7.1,25.46-16.2,36.5
							c-4.95,6.01-13.31,7.84-21.07,8.46c-15.89,1.26-30.31,2.75-37.97,18.49c-2.63,5.41-4.81,11.25-9.11,15.45
							c-12.03,11.74-26.07-7.06-39.43,0.06c-17.57,9.37-2.3,41.41-24.03,46.7c-7.35,1.79-15.69-2.69-18.25-9.81
							c-2.02-5.6-1.07-12.74-5.59-16.61c-6.07-5.19-16.78,0.15-22.83-5.06c-3.26-2.8-3.78-7.61-3.63-11.91
							c0.15-4.29,0.69-8.82-1.18-12.69c-5.12-10.6-23.78-8.59-28.16-19.52c-0.82-2.04-0.98-4.3-1.85-6.32
							c-0.68-1.59-1.82-2.77-3.03-3.19c-1.21,0.42-2.35,1.6-3.03,3.19c-0.87,2.02-1.04,4.28-1.85,6.32
							c-4.38,10.93-23.04,8.92-28.16,19.52c-1.87,3.87-1.32,8.4-1.18,12.69c0.15,4.29-0.38,9.1-3.63,11.91
							c-6.05,5.21-16.76-0.13-22.83,5.06c-4.53,3.87-3.58,11.01-5.59,16.61c-2.56,7.12-10.9,11.6-18.25,9.81
							c-22.31-5.43-5.58-42.43-27.2-48.1c-10.11-2.65-20.27,7.92-30.35,5.15c-10.95-3.01-12.19-18.07-19.53-26.72
							c-6.29-7.41-16.72-9.57-26.38-10.65c-9.66-1.09-19.93-1.75-27.88-7.36c-11.26-7.95-4.14-16.06-7.52-25.71
							c-3.3-9.42-14.67-17.47-23.69-20.52c-10.25-3.46-21.86-3.17-31.06-8.87c-17.69-10.97-16.93-36.24-22.79-56.21
							c-5.77-19.68-20.15-36.67-38.6-45.62c-18.45-8.95-40.7-9.71-59.72-2.06l-45.21,122.77c2.23,41.41-6,82.63-7.86,124.06
							c-1.86,41.43,3.68,85.61,29.41,118.13c26.63,33.66,70.24,49.03,112.53,56.4c84.82,14.77,174.02,3.38,252.41-32.23
							c22.7-10.32,45.69-23.76,57.45-45.75c0.17-0.32,0.33-0.65,0.5-0.97c0.17,0.32,0.33,0.65,0.5,0.97
							c11.77,21.99,34.75,35.43,57.45,45.75c78.39,35.62,167.59,47.01,252.41,32.23c42.29-7.37,85.9-22.73,112.53-56.4
							C696.06,452.46,701.59,408.28,699.74,366.85z"/>
						
							<linearGradient id="SVGID_00000078751116277439010370000003639448708729780397_" gradientUnits="userSpaceOnUse" x1="236.4715" y1="298.4886" x2="108.5043" y2="420.2636" gradientTransform="matrix(0.7071 -0.7071 0.7071 0.7071 -103.5534 250)">
							<stop  offset="0" style="stop-color:#FFFFFF"/>
							<stop  offset="0.178" style="stop-color:#FFFDF8"/>
							<stop  offset="0.4433" style="stop-color:#FFF6E3"/>
							<stop  offset="0.7615" style="stop-color:#FFEBC2"/>
							<stop  offset="1" style="stop-color:#FFE2A5"/>
						</linearGradient>
						<path style="fill:url(#SVGID_00000078751116277439010370000003639448708729780397_);" d="M744.9,159.11
							c-3.35-13.81-11.22-26.59-22.94-34.53c-14.16-9.59-33.97-11.08-48.44-1.96c-24.63,15.52-25.37,51.98-44.97,73.51
							c-8.7,9.55-20.56,15.51-32.22,21.08c-11.66,5.57-23.64,11.11-32.92,20.1c-13.79,13.36-13.39,32.05-17.12,49.63
							c-4.53,21.29-12.79,44.9-32.8,53.43c-17.71,7.55-37.8,0.4-56.28-5c-18.48-5.39-41.07-8-54.59,5.69
							c-11.12,11.26-13.22,31.19-27.69,37.59c-7.69,3.4-16.55,1.7-24.94,2.3c-10.58,0.76-17.75,17.65-27.71,22.66
							c-10.59,5.32-27.15,3.63-32.18-8.57c-2.5-6.05-2.32-12.81-2.86-19.34c-0.54-6.52-2.11-13.49-7.03-17.8
							c-4.74-4.15-14.04-6.14-14.65-13.64c-0.31-3.76,1.29-7.38,2.54-10.95c1.26-3.56,2.17-7.6,0.58-11.02
							c-2.5-5.36-10.03-6.95-12.37-12.38c-1.71-3.95-0.04-8.49-0.26-12.79c-0.16-3.27-4.72-11.51-8.6-12.49
							c-3.88,0.98-8.43,9.22-8.6,12.49c-0.22,4.3,1.45,8.84-0.26,12.79c-2.34,5.43-9.87,7.02-12.37,12.38
							c-1.59,3.42-0.68,7.46,0.58,11.02c1.26,3.56,2.85,7.18,2.54,10.95c-0.62,7.5-9.91,9.49-14.65,13.64
							c-4.93,4.31-6.5,11.28-7.04,17.8c-0.54,6.52-0.36,13.29-2.86,19.34c-5.03,12.2-21.59,13.9-32.18,8.57
							c-9.96-5.01-17.13-21.9-27.71-22.66c-8.39-0.6-17.25,1.1-24.94-2.3c-14.47-6.4-16.57-26.33-27.69-37.59
							c-13.53-13.7-36.11-11.09-54.59-5.69c-18.48,5.39-38.57,12.55-56.28,5c-20.02-8.54-28.28-32.15-32.8-53.43
							c-4.52-21.29-8.61-44.84-25.4-58.68c-0.15-0.13-0.31-0.24-0.47-0.37l-116.1,116.1l376.7,376.7l20.13-20.13L744.9,159.11z"/>
						<g>
							
								<linearGradient id="SVGID_00000054981006863596759890000001247629722756334527_" gradientUnits="userSpaceOnUse" x1="-1090.7491" y1="2122.2358" x2="-1090.7491" y2="2186.5784" gradientTransform="matrix(1 0 0 1 1305.1099 -1893.5959)">
								<stop  offset="0" style="stop-color:#580043"/>
								<stop  offset="0.1707" style="stop-color:#630043"/>
								<stop  offset="0.4728" style="stop-color:#810043"/>
								<stop  offset="0.8683" style="stop-color:#B10043"/>
								<stop  offset="1" style="stop-color:#C30043"/>
							</linearGradient>
							<path style="fill:url(#SVGID_00000054981006863596759890000001247629722756334527_);" d="M236.45,251.38l-6.74-33.9
								c0,0-28.97,19.54-36.08,62.06c-0.95,5.67-1.34,11.12-1.33,16.32C207.02,281.04,221.69,266.16,236.45,251.38z"/>
							
								<linearGradient id="SVGID_00000161599873599370020330000015887443199012832898_" gradientUnits="userSpaceOnUse" x1="-1024.6266" y1="2122.2358" x2="-1024.6266" y2="2186.5784" gradientTransform="matrix(1 0 0 1 1305.1099 -1893.5959)">
								<stop  offset="0" style="stop-color:#580043"/>
								<stop  offset="0.1707" style="stop-color:#630043"/>
								<stop  offset="0.4728" style="stop-color:#810043"/>
								<stop  offset="0.8683" style="stop-color:#B10043"/>
								<stop  offset="1" style="stop-color:#C30043"/>
							</linearGradient>
							<path style="fill:url(#SVGID_00000161599873599370020330000015887443199012832898_);" d="M258.42,251.38l6.74-33.9
								c0,0,28.97,19.54,36.08,62.06c0.95,5.67,1.34,11.12,1.33,16.32C287.84,281.04,273.18,266.16,258.42,251.38z"/>
							
								<linearGradient id="SVGID_00000070091098175625594010000013638774508496370097_" gradientUnits="userSpaceOnUse" x1="-1085.5853" y1="2074.8389" x2="-1029.7904" y2="2074.8389" gradientTransform="matrix(1 0 0 1 1305.1099 -1893.5959)">
								<stop  offset="0" style="stop-color:#E3EEF8"/>
								<stop  offset="0.0564" style="stop-color:#CBDDF4"/>
								<stop  offset="0.1349" style="stop-color:#B1CBF0"/>
								<stop  offset="0.2154" style="stop-color:#9EBEED"/>
								<stop  offset="0.2982" style="stop-color:#93B6EC"/>
								<stop  offset="0.3872" style="stop-color:#8FB3EB"/>
								<stop  offset="0.5018" style="stop-color:#A4C2EE"/>
								<stop  offset="0.7373" style="stop-color:#DAE7F6"/>
								<stop  offset="0.7788" style="stop-color:#E4EEF7"/>
								<stop  offset="1" style="stop-color:#C7D9F2"/>
							</linearGradient>
							<path style="fill:url(#SVGID_00000070091098175625594010000013638774508496370097_);" d="M247.43,85.06
								c27.19,46.01,29.74,79.83,27.08,140.63c-1.22,27.93-16.56,51.69-16.56,51.69h-10.51h-10.51c0,0-15.34-23.76-16.56-51.69
								C217.69,164.89,220.24,131.07,247.43,85.06z"/>
							<path class="st23" d="M280.7,232.78c0.17,0.21,0.33,0.43,0.5,0.64v16.28l17.08,17.08c0.1,0.34,0.21,0.67,0.3,1.01
								l-17.81-17.81c-0.05-0.05-0.07-0.11-0.07-0.18V232.78z M209.13,239.74l4.85,4.85l-4.75,4.75l-3.7-3.7
								c-0.09,0.15-0.17,0.3-0.26,0.45l11.46,11.46l-7.31,7.31l-8.94-8.94c-0.07,0.17-0.14,0.33-0.21,0.5l8.8,8.8l-15.63,15.63
								c-0.04,0.28-0.08,0.55-0.12,0.83l23.94-23.94c0.1-0.1,0.1-0.26,0-0.35l-7.68-7.68l4.93-4.93c0.1-0.1,0.1-0.26,0-0.35
								l-5.1-5.1C209.31,239.46,209.22,239.6,209.13,239.74z"/>
							
								<linearGradient id="SVGID_00000034811743344171221350000004856868428687489927_" gradientUnits="userSpaceOnUse" x1="-1085.5853" y1="2074.8389" x2="-1029.7904" y2="2074.8389" gradientTransform="matrix(1 0 0 1 1305.1099 -1893.5959)">
								<stop  offset="0.0376" style="stop-color:#FF9066"/>
								<stop  offset="0.0457" style="stop-color:#FA8463"/>
								<stop  offset="0.076" style="stop-color:#E85C59"/>
								<stop  offset="0.1073" style="stop-color:#D93B51"/>
								<stop  offset="0.1392" style="stop-color:#CE214B"/>
								<stop  offset="0.172" style="stop-color:#C50E47"/>
								<stop  offset="0.2063" style="stop-color:#C10444"/>
								<stop  offset="0.2445" style="stop-color:#BF0043"/>
								<stop  offset="0.5747" style="stop-color:#FF0043"/>
								<stop  offset="0.6281" style="stop-color:#FF1047"/>
								<stop  offset="0.7325" style="stop-color:#FF3951"/>
								<stop  offset="0.8758" style="stop-color:#FF7B62"/>
								<stop  offset="1" style="stop-color:#FFBA71"/>
							</linearGradient>
							<path style="fill:url(#SVGID_00000034811743344171221350000004856868428687489927_);" d="M247.43,85.06
								c27.19,46.01,29.74,79.83,27.08,140.63c-1.22,27.93-16.56,51.69-16.56,51.69h-10.51h-10.51c0,0-15.34-23.76-16.56-51.69
								C217.69,164.89,220.24,131.07,247.43,85.06z"/>
							<g class="st25">
								<path class="st26" d="M222.12,202.18L222.12,202.18c-0.33,0-0.59-0.26-0.59-0.59v-1.68c0-0.33,0.26-0.59,0.59-0.59l0,0
									c0.33,0,0.59,0.26,0.59,0.59v1.68C222.71,201.91,222.44,202.18,222.12,202.18z"/>
								<path class="st26" d="M226.19,202.18L226.19,202.18c-0.33,0-0.59-0.26-0.59-0.59v-1.68c0-0.33,0.26-0.59,0.59-0.59l0,0
									c0.33,0,0.59,0.26,0.59,0.59v1.68C226.78,201.91,226.51,202.18,226.19,202.18z"/>
								<path class="st26" d="M230.26,202.18L230.26,202.18c-0.33,0-0.59-0.26-0.59-0.59v-1.68c0-0.33,0.26-0.59,0.59-0.59l0,0
									c0.33,0,0.59,0.26,0.59,0.59v1.68C230.85,201.91,230.58,202.18,230.26,202.18z"/>
								<path class="st26" d="M234.32,202.18L234.32,202.18c-0.33,0-0.59-0.26-0.59-0.59v-1.68c0-0.33,0.26-0.59,0.59-0.59l0,0
									c0.33,0,0.59,0.26,0.59,0.59v1.68C234.91,201.91,234.65,202.18,234.32,202.18z"/>
								<path class="st26" d="M238.39,202.18L238.39,202.18c-0.33,0-0.59-0.26-0.59-0.59l0-1.68c0-0.33,0.26-0.59,0.59-0.59l0,0
									c0.33,0,0.59,0.26,0.59,0.59l0,1.68C238.98,201.91,238.72,202.18,238.39,202.18z"/>
								<path class="st26" d="M242.46,202.18L242.46,202.18c-0.33,0-0.59-0.26-0.59-0.59v-1.68c0-0.33,0.26-0.59,0.59-0.59l0,0
									c0.33,0,0.59,0.26,0.59,0.59v1.68C243.05,201.91,242.79,202.18,242.46,202.18z"/>
								<path class="st26" d="M246.53,202.18L246.53,202.18c-0.33,0-0.59-0.26-0.59-0.59v-1.68c0-0.33,0.26-0.59,0.59-0.59l0,0
									c0.33,0,0.59,0.26,0.59,0.59v1.68C247.12,201.91,246.86,202.18,246.53,202.18z"/>
								<path class="st26" d="M250.6,202.18L250.6,202.18c-0.33,0-0.59-0.26-0.59-0.59l0-1.68c0-0.33,0.26-0.59,0.59-0.59l0,0
									c0.33,0,0.59,0.26,0.59,0.59l0,1.68C251.19,201.91,250.92,202.18,250.6,202.18z"/>
								<path class="st26" d="M254.67,202.18L254.67,202.18c-0.33,0-0.59-0.26-0.59-0.59v-1.68c0-0.33,0.26-0.59,0.59-0.59l0,0
									c0.33,0,0.59,0.26,0.59,0.59v1.68C255.26,201.91,254.99,202.18,254.67,202.18z"/>
								<path class="st26" d="M258.73,202.18L258.73,202.18c-0.33,0-0.59-0.26-0.59-0.59v-1.68c0-0.33,0.26-0.59,0.59-0.59l0,0
									c0.33,0,0.59,0.26,0.59,0.59v1.68C259.33,201.91,259.06,202.18,258.73,202.18z"/>
								<path class="st26" d="M262.8,202.18L262.8,202.18c-0.33,0-0.59-0.26-0.59-0.59l0-1.68c0-0.33,0.26-0.59,0.59-0.59l0,0
									c0.33,0,0.59,0.26,0.59,0.59l0,1.68C263.39,201.91,263.13,202.18,262.8,202.18z"/>
								<path class="st26" d="M266.87,202.18L266.87,202.18c-0.33,0-0.59-0.26-0.59-0.59v-1.68c0-0.33,0.26-0.59,0.59-0.59l0,0
									c0.33,0,0.59,0.26,0.59,0.59v1.68C267.46,201.91,267.2,202.18,266.87,202.18z"/>
								<path class="st26" d="M270.94,202.18L270.94,202.18c-0.33,0-0.59-0.26-0.59-0.59v-1.68c0-0.33,0.26-0.59,0.59-0.59l0,0
									c0.33,0,0.59,0.26,0.59,0.59v1.68C271.53,201.91,271.27,202.18,270.94,202.18z"/>
							</g>
							<g class="st27">
								<path class="st28" d="M222.87,156.49c-0.27,0-0.48,0.22-0.48,0.48s0.22,0.48,0.48,0.48s0.48-0.22,0.48-0.48
									S223.14,156.49,222.87,156.49z M222.87,159.62c-0.27,0-0.48,0.22-0.48,0.48s0.22,0.48,0.48,0.48s0.48-0.22,0.48-0.48
									S223.14,159.62,222.87,159.62z M222.87,162.75c-0.27,0-0.48,0.22-0.48,0.48s0.22,0.48,0.48,0.48s0.48-0.22,0.48-0.48
									S223.14,162.75,222.87,162.75z M222.87,165.89c-0.27,0-0.48,0.22-0.48,0.48c0,0.27,0.22,0.48,0.48,0.48
									c0.27,0,0.48-0.22,0.48-0.48S223.14,165.89,222.87,165.89z M222.87,169.02c-0.27,0-0.48,0.22-0.48,0.48s0.22,0.48,0.48,0.48
									s0.48-0.22,0.48-0.48C223.35,169.24,223.14,169.02,222.87,169.02z M222.87,172.16c-0.27,0-0.48,0.22-0.48,0.48
									s0.22,0.48,0.48,0.48s0.48-0.22,0.48-0.48S223.14,172.16,222.87,172.16z M222.87,175.29c-0.27,0-0.48,0.22-0.48,0.48
									s0.22,0.48,0.48,0.48s0.48-0.22,0.48-0.48S223.14,175.29,222.87,175.29z M222.87,178.43c-0.27,0-0.48,0.22-0.48,0.48
									s0.22,0.48,0.48,0.48s0.48-0.22,0.48-0.48S223.14,178.43,222.87,178.43z M222.87,181.56c-0.27,0-0.48,0.22-0.48,0.48
									s0.22,0.48,0.48,0.48s0.48-0.22,0.48-0.48S223.14,181.56,222.87,181.56z M222.87,184.69c-0.27,0-0.48,0.22-0.48,0.48
									s0.22,0.48,0.48,0.48c0.27,0,0.48-0.22,0.48-0.48C223.35,184.91,223.14,184.69,222.87,184.69z M222.87,187.83
									c-0.27,0-0.48,0.22-0.48,0.48c0,0.27,0.22,0.48,0.48,0.48s0.48-0.22,0.48-0.48S223.14,187.83,222.87,187.83z"/>
							</g>
							<g class="st25">
								<path class="st26" d="M250.33,95.26c0,0.04,0.01,0.09,0.04,0.13c0.08,0.14,8.41,14.3,13.3,32.75l-35.82,0
									c-0.05,0.17-0.1,0.33-0.16,0.5h36.3h3.18c-0.05-0.17-0.1-0.33-0.16-0.5l-2.83,0c-2.54-9.63-6.02-18.11-8.8-24.06h2.2
									c-0.08-0.17-0.16-0.33-0.24-0.5l-2.2,0c-2.29-4.86-4.05-7.93-4.32-8.39l0-4.19c-0.17-0.3-0.33-0.6-0.5-0.9V95.26z"/>
								<path class="st26" d="M265.84,147.81c-0.13,0-0.25,0.12-0.25,0.25l0,17.33c0,0.14,0.11,0.25,0.25,0.25h8.35
									c-0.02-0.17-0.03-0.33-0.05-0.5l-8.06,0l0-16.83h5.81c-0.03-0.17-0.06-0.33-0.09-0.5H265.84z"/>
								<path class="st26" d="M267.73,214.66v18.24l-41.39,0l0,0l0,0l-5.35,0c0.02,0.17,0.04,0.33,0.06,0.5l5.04,0
									c0.1,17.45,10.66,38.63,13.49,43.99h0.57c-2.6-4.9-13.45-26.37-13.56-43.99l41.39,0l5.84,0c0.02-0.17,0.04-0.33,0.06-0.5
									l-5.65,0v-17.99l6.71,0c0.01-0.17,0.01-0.33,0.02-0.5l-6.97,0C267.84,214.41,267.73,214.52,267.73,214.66z"/>
							</g>
							<path class="st23" d="M219.54,195.69h55.78c0-0.53,0.01-1.07,0.01-1.6h-55.79C219.54,194.62,219.54,195.16,219.54,195.69z"/>
							<path class="st29" d="M219.55,197.29h55.76c0-0.54,0.01-1.07,0.01-1.6h-55.78C219.55,196.22,219.55,196.76,219.55,197.29z"/>
							<path class="st30" d="M247.42,156.83c-6.21,0-11.24,5.03-11.24,11.24c0,6.21,5.03,11.24,11.24,11.24
								c6.21,0,11.24-5.03,11.24-11.24C258.66,161.86,253.63,156.83,247.42,156.83z M255.67,167.92c0,4.47-3.63,8.1-8.1,8.1
								s-8.1-3.63-8.1-8.1c0-4.47,3.63-8.1,8.1-8.1C252.05,159.81,255.67,163.44,255.67,167.92z"/>
							
								<linearGradient id="SVGID_00000029016454358800274560000001273456957738489746_" gradientUnits="userSpaceOnUse" x1="-1057.5488" y1="2054.8667" x2="-1057.5488" y2="2068.0676" gradientTransform="matrix(1 0 0 1 1305.1099 -1893.5959)">
								<stop  offset="0" style="stop-color:#580043"/>
								<stop  offset="0.1707" style="stop-color:#630043"/>
								<stop  offset="0.4728" style="stop-color:#810043"/>
								<stop  offset="0.8683" style="stop-color:#B10043"/>
								<stop  offset="1" style="stop-color:#C30043"/>
							</linearGradient>
							<path style="fill:url(#SVGID_00000029016454358800274560000001273456957738489746_);" d="M258.59,167.59
								c0,6.09-4.94,11.02-11.02,11.02c-6.09,0-11.02-4.94-11.02-11.02c0-6.09,4.94-11.02,11.02-11.02
								C253.66,156.57,258.59,161.5,258.59,167.59z"/>
							
								<linearGradient id="SVGID_00000114037469036386100310000005999370925984327082_" gradientUnits="userSpaceOnUse" x1="-1088.439" y1="2012.7538" x2="-1040.0823" y2="2088.6074" gradientTransform="matrix(1 0 0 1 1305.1099 -1893.5959)">
								<stop  offset="0.0606" style="stop-color:#01F4EA"/>
								<stop  offset="0.2293" style="stop-color:#3DF6E6"/>
								<stop  offset="0.4386" style="stop-color:#81F8E2"/>
								<stop  offset="0.628" style="stop-color:#B7FADF"/>
								<stop  offset="0.7906" style="stop-color:#DEFBDD"/>
								<stop  offset="0.92" style="stop-color:#F6FCDC"/>
								<stop  offset="1" style="stop-color:#FFFCDB"/>
							</linearGradient>
							<path style="fill:url(#SVGID_00000114037469036386100310000005999370925984327082_);" d="M255.67,167.59
								c0,4.47-3.63,8.1-8.1,8.1c-4.47,0-8.1-3.63-8.1-8.1s3.63-8.1,8.1-8.1S255.67,163.12,255.67,167.59z"/>
							<g>
								
									<linearGradient id="SVGID_00000013171739735583921580000013003110973502384558_" gradientUnits="userSpaceOnUse" x1="-3512.7773" y1="1018.3231" x2="-3499.1292" y2="1018.3231" gradientTransform="matrix(0.7071 -0.7071 0.7071 0.7071 2003.8926 -3034.6404)">
									<stop  offset="0" style="stop-color:#FFFFFF"/>
									<stop  offset="1" style="stop-color:#FFFFFF;stop-opacity:0"/>
								</linearGradient>
								<path style="fill:url(#SVGID_00000013171739735583921580000013003110973502384558_);" d="M249.73,160.94
									c-0.68-0.22-1.4-0.34-2.16-0.34c-0.03,0-0.05,0-0.08,0c-2.31,2.32-4.61,4.63-6.92,6.95c0,0.01,0,0.03,0,0.04
									c0,0.75,0.12,1.48,0.34,2.16L249.73,160.94z"/>
								
									<linearGradient id="SVGID_00000028286680722474544420000009530748598766909112_" gradientUnits="userSpaceOnUse" x1="-3512.7773" y1="1024.1396" x2="-3499.1292" y2="1024.1396" gradientTransform="matrix(0.7071 -0.7071 0.7071 0.7071 2003.8926 -3034.6404)">
									<stop  offset="0" style="stop-color:#FFFFFF"/>
									<stop  offset="1" style="stop-color:#FFFFFF;stop-opacity:0"/>
								</linearGradient>
								<path style="fill:url(#SVGID_00000028286680722474544420000009530748598766909112_);" d="M254.25,165.5
									c-0.32-1.02-0.87-1.95-1.58-2.71c-3.3,3.3-6.59,6.59-9.89,9.89c0.76,0.72,1.68,1.26,2.71,1.58
									C248.4,171.35,251.32,168.42,254.25,165.5z"/>
								
									<linearGradient id="SVGID_00000066484884045962448880000015219997009017186700_" gradientUnits="userSpaceOnUse" x1="-3512.7773" y1="1027.8838" x2="-3499.1292" y2="1027.8838" gradientTransform="matrix(0.7071 -0.7071 0.7071 0.7071 2003.8926 -3034.6404)">
									<stop  offset="0" style="stop-color:#FFFFFF"/>
									<stop  offset="1" style="stop-color:#FFFFFF;stop-opacity:0"/>
								</linearGradient>
								<path style="fill:url(#SVGID_00000066484884045962448880000015219997009017186700_);" d="M254.4,169.12
									c0.1-0.45,0.16-0.92,0.17-1.4l-6.86,6.86c0.48-0.01,0.95-0.07,1.4-0.17C250.86,172.65,252.63,170.88,254.4,169.12z"/>
							</g>
							<path class="st36" d="M247.92,157.92c0,0.24-0.2,0.44-0.44,0.44c-0.24,0-0.44-0.2-0.44-0.44c0-0.24,0.2-0.44,0.44-0.44
								C247.72,157.48,247.92,157.68,247.92,157.92z"/>
							<path class="st37" d="M247.92,157.92c0,0.24-0.2,0.44-0.44,0.44c-0.24,0-0.44-0.2-0.44-0.44c0-0.24,0.2-0.44,0.44-0.44
								C247.72,157.48,247.92,157.68,247.92,157.92z M242.43,158.88c-0.21,0.12-0.28,0.39-0.16,0.6c0.12,0.21,0.39,0.28,0.6,0.16
								c0.21-0.12,0.28-0.39,0.16-0.6C242.91,158.83,242.64,158.76,242.43,158.88z M238.77,162.62c-0.12,0.21-0.05,0.48,0.16,0.6
								c0.21,0.12,0.48,0.05,0.6-0.16c0.12-0.21,0.05-0.48-0.16-0.6C239.16,162.33,238.89,162.41,238.77,162.62z M237.46,167.69
								c0,0.24,0.2,0.44,0.44,0.44c0.24,0,0.44-0.2,0.44-0.44c0-0.24-0.2-0.44-0.44-0.44C237.65,167.25,237.46,167.44,237.46,167.69
								z M238.86,172.73c0.12,0.21,0.39,0.28,0.6,0.16c0.21-0.12,0.28-0.39,0.16-0.6c-0.12-0.21-0.39-0.28-0.6-0.16
								C238.81,172.25,238.74,172.52,238.86,172.73z M242.59,176.4c0.21,0.12,0.48,0.05,0.6-0.16c0.12-0.21,0.05-0.48-0.16-0.6
								c-0.21-0.12-0.48-0.05-0.6,0.16C242.31,176.01,242.38,176.28,242.59,176.4z M247.66,177.71c0.24,0,0.44-0.2,0.44-0.44
								s-0.2-0.44-0.44-0.44c-0.24,0-0.44,0.2-0.44,0.44C247.22,177.51,247.42,177.71,247.66,177.71z M252.71,176.31
								c0.21-0.12,0.28-0.39,0.16-0.6c-0.12-0.21-0.39-0.28-0.6-0.16c-0.21,0.12-0.28,0.39-0.16,0.6
								C252.23,176.35,252.5,176.43,252.71,176.31z M256.38,172.57c0.12-0.21,0.05-0.48-0.16-0.6c-0.21-0.12-0.48-0.05-0.6,0.16
								c-0.12,0.21-0.05,0.48,0.16,0.6C255.99,172.85,256.25,172.78,256.38,172.57z M257.68,167.5c0-0.24-0.2-0.44-0.44-0.44
								c-0.24,0-0.44,0.2-0.44,0.44c0,0.24,0.2,0.44,0.44,0.44C257.49,167.94,257.68,167.74,257.68,167.5z M256.28,162.46
								c-0.12-0.21-0.39-0.28-0.6-0.16c-0.21,0.12-0.28,0.39-0.16,0.6c0.12,0.21,0.39,0.28,0.6,0.16
								C256.33,162.94,256.41,162.67,256.28,162.46z M252.55,158.79c-0.21-0.12-0.48-0.05-0.6,0.16c-0.12,0.21-0.05,0.48,0.16,0.6
								c0.21,0.12,0.48,0.05,0.6-0.16C252.83,159.18,252.76,158.91,252.55,158.79z"/>
							
								<linearGradient id="SVGID_00000012436378417407105290000001834363974529056182_" gradientUnits="userSpaceOnUse" x1="-1057.6879" y1="2171.6348" x2="-1057.6879" y2="2193.2361" gradientTransform="matrix(1 0 0 1 1305.1099 -1893.5959)">
								<stop  offset="0" style="stop-color:#580043"/>
								<stop  offset="0.1707" style="stop-color:#630043"/>
								<stop  offset="0.4728" style="stop-color:#810043"/>
								<stop  offset="0.8683" style="stop-color:#B10043"/>
								<stop  offset="1" style="stop-color:#C30043"/>
							</linearGradient>
							<polygon style="fill:url(#SVGID_00000012436378417407105290000001834363974529056182_);" points="267.19,299.33 
								227.68,299.33 236.92,277.39 257.95,277.39 							"/>
							<g class="st27">
								<polygon class="st39" points="264.93,293.96 263.37,290.27 231.49,290.27 229.94,293.96 								"/>
								<polygon class="st39" points="235.32,281.19 233.76,284.88 261.1,284.88 259.55,281.19 								"/>
							</g>
							
								<linearGradient id="SVGID_00000028293868984305168560000006696048094612881084_" gradientUnits="userSpaceOnUse" x1="-1052.6992" y1="2168.9124" x2="-1061.9934" y2="2183.8181" gradientTransform="matrix(1 0 0 1 1305.1099 -1893.5959)">
								<stop  offset="0" style="stop-color:#580043"/>
								<stop  offset="0.1707" style="stop-color:#630043"/>
								<stop  offset="0.4728" style="stop-color:#810043"/>
								<stop  offset="0.8683" style="stop-color:#B10043"/>
								<stop  offset="1" style="stop-color:#C30043"/>
							</linearGradient>
							<polygon style="fill:url(#SVGID_00000028293868984305168560000006696048094612881084_);" points="261.85,283.89 
								260.3,280.21 234.57,280.21 233.01,283.89 							"/>
							
								<linearGradient id="SVGID_00000163046480489905354360000016687140781915575731_" gradientUnits="userSpaceOnUse" x1="-1051.5785" y1="2176.2012" x2="-1063.1141" y2="2194.7017" gradientTransform="matrix(1 0 0 1 1305.1099 -1893.5959)">
								<stop  offset="0" style="stop-color:#580043"/>
								<stop  offset="0.1707" style="stop-color:#630043"/>
								<stop  offset="0.4728" style="stop-color:#810043"/>
								<stop  offset="0.8683" style="stop-color:#B10043"/>
								<stop  offset="1" style="stop-color:#C30043"/>
							</linearGradient>
							<polygon style="fill:url(#SVGID_00000163046480489905354360000016687140781915575731_);" points="265.85,292.98 
								264.3,289.29 230.56,289.29 229.01,292.98 							"/>
						</g>
						
							<linearGradient id="SVGID_00000180349469564791174430000002186391227812663168_" gradientUnits="userSpaceOnUse" x1="129.635" y1="368.7186" x2="-59.2192" y2="512.1655" gradientTransform="matrix(0.7071 -0.7071 0.7071 0.7071 -103.5534 250)">
							<stop  offset="0" style="stop-color:#FFFFFF"/>
							<stop  offset="0.178" style="stop-color:#FFFDF8"/>
							<stop  offset="0.4433" style="stop-color:#FFF6E3"/>
							<stop  offset="0.7615" style="stop-color:#FFEBC2"/>
							<stop  offset="1" style="stop-color:#FFE2A5"/>
						</linearGradient>
						<path style="fill:url(#SVGID_00000180349469564791174430000002186391227812663168_);" d="M735.54,168.48
							c-1.86-9.08-6.12-17.62-13-23.75c-9.74-8.67-25.09-11.39-36.24-4.63c-14.21,8.61-17.06,27.74-17.67,44.35
							c-0.62,16.61-1.4,35.35-13.82,46.38c-7.46,6.62-17.72,8.98-27.6,10.38c-9.88,1.4-20.07,2.15-29.11,6.37
							c-12.66,5.9-16.77,18.89-21.58,30.92c-11.02,27.52-23.15,87.76-64.47,82.27c-14.94-1.99-29.48-12.92-43.75-8.05
							c-12.66,4.32-18.11,18.79-22.52,31.42c-4.4,12.63-11.45,26.9-24.63,29.11c-15.61,2.62-28.54-13.55-44.31-14.87
							c-10.16-0.85-19.73,4.61-28.03,10.54c-8.3,5.92-16.48,12.67-26.4,15.04c-22.1,5.27-38.76-24.06-61.56-10.67
							c-10.43,6.13-15.48,20.67-27.36,22.95c-15.55,2.98-25.53-17.1-40.62-21.91c-20.43-6.52-41.11,16.88-61.88,11.54
							c-19.86-5.1-27.29-33.38-47.43-37.2c-15.42-2.93-31.36,10.35-46.11,5c-15.68-5.7-19.3-28.71-34.91-34.62
							c-23.13-8.76-43.7,24.43-66.81,13.63c-7.53-3.52-12.85-10.57-16.65-17.96c-3.81-7.39-6.43-15.36-10.4-22.67
							c-8.52-15.68-23.38-27.8-40.46-33c-4.54-1.38-9.22-2.26-13.95-2.66l-47.62,47.62l376.7,376.7L735.54,168.48z"/>
						
							<linearGradient id="SVGID_00000042722482433634524380000005823877284821362608_" gradientUnits="userSpaceOnUse" x1="47.0809" y1="413.5931" x2="-71.6407" y2="566.235" gradientTransform="matrix(0.7071 -0.7071 0.7071 0.7071 -103.5534 250)">
							<stop  offset="0" style="stop-color:#FFFFFF"/>
							<stop  offset="0.178" style="stop-color:#FFFDF8"/>
							<stop  offset="0.4433" style="stop-color:#FFF6E3"/>
							<stop  offset="0.7615" style="stop-color:#FFEBC2"/>
							<stop  offset="1" style="stop-color:#FFE2A5"/>
						</linearGradient>
						<path style="fill:url(#SVGID_00000042722482433634524380000005823877284821362608_);" d="M467.61,438.94
							c-9.65-12.13-26.57-17.97-41.65-14.38c-15.08,3.59-32.28,16.02-35.44,31.19c-12.89-1.71-26.45,2.59-35.99,11.42
							c-9.54,8.83-12.23,18.61-11.51,31.59c-12.75-15.34-34.65-22.42-53.97-17.43c-19.32,4.99-39.2,19.26-42.93,38.85
							c-7.88-5.67-18.42-7.49-27.74-4.79c-9.33,2.7-17.26,9.87-20.88,18.88c-7.54-6.68-20.45,0.08-27.12,7.63
							c-13.8-19.47-37.74-31.3-61.58-30.45c-23.85,0.86-46.15,10.37-58.51,30.78c-8.12-13.1-22.89-21.82-38.28-22.6
							s-30.97,6.41-40.37,18.62l197.64,197.64L467.61,438.94z"/>
						<g class="st44">
							<path class="st45" d="M267.95,258.94c-0.19,0.19-0.19,0.49,0,0.68c0.19,0.19,0.49,0.19,0.68,0c0.19-0.19,0.19-0.49,0-0.68
								C268.45,258.75,268.14,258.75,267.95,258.94z M270.17,261.16c-0.19,0.19-0.19,0.49,0,0.68c0.19,0.19,0.49,0.19,0.68,0
								c0.19-0.19,0.19-0.49,0-0.68C270.66,260.97,270.36,260.97,270.17,261.16z M272.39,263.37c-0.19,0.19-0.19,0.49,0,0.68
								c0.19,0.19,0.49,0.19,0.68,0c0.19-0.19,0.19-0.49,0-0.68C272.88,263.19,272.58,263.19,272.39,263.37z M274.6,265.59
								c-0.19,0.19-0.19,0.49,0,0.68c0.19,0.19,0.49,0.19,0.68,0c0.19-0.19,0.19-0.49,0-0.68C275.1,265.4,274.79,265.4,274.6,265.59
								z M276.82,267.81c-0.19,0.19-0.19,0.49,0,0.68s0.49,0.19,0.68,0c0.19-0.19,0.19-0.49,0-0.68
								C277.31,267.62,277.01,267.62,276.82,267.81z M279.04,270.02c-0.19,0.19-0.19,0.49,0,0.68s0.49,0.19,0.68,0
								c0.19-0.19,0.19-0.49,0-0.68C279.53,269.83,279.22,269.83,279.04,270.02z M281.25,272.24c-0.19,0.19-0.19,0.49,0,0.68
								c0.19,0.19,0.49,0.19,0.68,0c0.19-0.19,0.19-0.49,0-0.68C281.75,272.05,281.44,272.05,281.25,272.24z M283.47,274.45
								c-0.19,0.19-0.19,0.49,0,0.68c0.19,0.19,0.49,0.19,0.68,0c0.19-0.19,0.19-0.49,0-0.68
								C283.96,274.27,283.66,274.27,283.47,274.45z M285.68,276.67c-0.19,0.19-0.19,0.49,0,0.68c0.19,0.19,0.49,0.19,0.68,0
								c0.19-0.19,0.19-0.49,0-0.68C286.18,276.48,285.87,276.48,285.68,276.67z M287.9,278.89c-0.19,0.19-0.19,0.49,0,0.68
								c0.19,0.19,0.49,0.19,0.68,0c0.19-0.19,0.19-0.49,0-0.68C288.39,278.7,288.09,278.7,287.9,278.89z M290.12,281.1
								c-0.19,0.19-0.19,0.49,0,0.68c0.19,0.19,0.49,0.19,0.68,0c0.19-0.19,0.19-0.49,0-0.68
								C290.61,280.92,290.3,280.92,290.12,281.1z M292.33,283.32c-0.19,0.19-0.19,0.49,0,0.68s0.49,0.19,0.68,0
								c0.19-0.19,0.19-0.49,0-0.68C292.83,283.13,292.52,283.13,292.33,283.32z M294.55,285.54c-0.19,0.19-0.19,0.49,0,0.68
								s0.49,0.19,0.68,0c0.19-0.19,0.19-0.49,0-0.68C295.04,285.35,294.74,285.35,294.55,285.54z M296.77,287.75
								c-0.19,0.19-0.19,0.49,0,0.68c0.19,0.19,0.49,0.19,0.68,0c0.19-0.19,0.19-0.49,0-0.68
								C297.26,287.56,296.95,287.56,296.77,287.75z M298.98,289.97c-0.19,0.19-0.19,0.49,0,0.68c0.19,0.19,0.49,0.19,0.68,0
								c0.19-0.19,0.19-0.49,0-0.68C299.48,289.78,299.17,289.78,298.98,289.97z"/>
						</g>
						<g class="st44">
							<path class="st45" d="M225.86,259.49c-0.19-0.19-0.49-0.19-0.68,0c-0.19,0.19-0.19,0.49,0,0.68c0.19,0.19,0.49,0.19,0.68,0
								C226.05,259.98,226.05,259.67,225.86,259.49z M223.64,261.7c-0.19-0.19-0.49-0.19-0.68,0c-0.19,0.19-0.19,0.49,0,0.68
								c0.19,0.19,0.49,0.19,0.68,0S223.83,261.89,223.64,261.7z M221.43,263.92c-0.19-0.19-0.49-0.19-0.68,0
								c-0.19,0.19-0.19,0.49,0,0.68c0.19,0.19,0.49,0.19,0.68,0C221.62,264.41,221.62,264.11,221.43,263.92z M219.21,266.13
								c-0.19-0.19-0.49-0.19-0.68,0c-0.19,0.19-0.19,0.49,0,0.68c0.19,0.19,0.49,0.19,0.68,0
								C219.4,266.63,219.4,266.32,219.21,266.13z M216.99,268.35c-0.19-0.19-0.49-0.19-0.68,0c-0.19,0.19-0.19,0.49,0,0.68
								c0.19,0.19,0.49,0.19,0.68,0C217.18,268.84,217.18,268.54,216.99,268.35z M214.78,270.57c-0.19-0.19-0.49-0.19-0.68,0
								c-0.19,0.19-0.19,0.49,0,0.68c0.19,0.19,0.49,0.19,0.68,0C214.97,271.06,214.97,270.76,214.78,270.57z M212.56,272.78
								c-0.19-0.19-0.49-0.19-0.68,0s-0.19,0.49,0,0.68c0.19,0.19,0.49,0.19,0.68,0C212.75,273.28,212.75,272.97,212.56,272.78z
								 M210.35,275c-0.19-0.19-0.49-0.19-0.68,0c-0.19,0.19-0.19,0.49,0,0.68c0.19,0.19,0.49,0.19,0.68,0
								C210.53,275.49,210.53,275.19,210.35,275z M208.13,277.22c-0.19-0.19-0.49-0.19-0.68,0c-0.19,0.19-0.19,0.49,0,0.68
								c0.19,0.19,0.49,0.19,0.68,0S208.32,277.4,208.13,277.22z M205.91,279.43c-0.19-0.19-0.49-0.19-0.68,0
								c-0.19,0.19-0.19,0.49,0,0.68c0.19,0.19,0.49,0.19,0.68,0C206.1,279.93,206.1,279.62,205.91,279.43z M203.7,281.65
								c-0.19-0.19-0.49-0.19-0.68,0c-0.19,0.19-0.19,0.49,0,0.68c0.19,0.19,0.49,0.19,0.68,0
								C203.89,282.14,203.89,281.84,203.7,281.65z M201.48,283.86c-0.19-0.19-0.49-0.19-0.68,0c-0.19,0.19-0.19,0.49,0,0.68
								c0.19,0.19,0.49,0.19,0.68,0C201.67,284.36,201.67,284.05,201.48,283.86z M199.27,286.08c-0.19-0.19-0.49-0.19-0.68,0
								c-0.19,0.19-0.19,0.49,0,0.68c0.19,0.19,0.49,0.19,0.68,0C199.45,286.57,199.45,286.27,199.27,286.08z M197.05,288.3
								c-0.19-0.19-0.49-0.19-0.68,0c-0.19,0.19-0.19,0.49,0,0.68c0.19,0.19,0.49,0.19,0.68,0
								C197.24,288.79,197.24,288.49,197.05,288.3z M194.83,290.51c-0.19-0.19-0.49-0.19-0.68,0c-0.19,0.19-0.19,0.49,0,0.68
								c0.19,0.19,0.49,0.19,0.68,0C195.02,291.01,195.02,290.7,194.83,290.51z"/>
						</g>
					</g>
				</g>
			</g>
		</g>
		<g>
			
				<ellipse transform="matrix(0.1988 -0.98 0.98 0.1988 154.8048 570.7283)" class="st5" cx="426.46" cy="190.69" rx="57.9" ry="57.9"/>
			<g>
				
					<radialGradient id="SVGID_00000148652317429417366290000008258730948722945414_" cx="397.5795" cy="295.6385" r="89.459" gradientTransform="matrix(0.7071 -0.7071 0.7071 0.7071 -103.5534 250)" gradientUnits="userSpaceOnUse">
					<stop  offset="0.3364" style="stop-color:#E83B46"/>
					<stop  offset="0.4253" style="stop-color:#E94149"/>
					<stop  offset="0.5437" style="stop-color:#EC5250"/>
					<stop  offset="0.6779" style="stop-color:#F26D5B"/>
					<stop  offset="0.7867" style="stop-color:#F78967"/>
					<stop  offset="0.8238" style="stop-color:#F89268"/>
					<stop  offset="0.8839" style="stop-color:#FAAA69"/>
					<stop  offset="0.9592" style="stop-color:#FDD16B"/>
					<stop  offset="1" style="stop-color:#FFE96D"/>
				</radialGradient>
				<path style="fill:url(#SVGID_00000148652317429417366290000008258730948722945414_);" d="M426.46,137.74
					c29.24,0,52.94,23.7,52.94,52.94s-23.7,52.94-52.94,52.94s-52.94-23.7-52.94-52.94S397.22,137.74,426.46,137.74z"/>
				<path class="st7" d="M444.92,149.4c-0.12-1.75-1.13-3.29-1.75-4.93c-0.52-1.39-0.7-2.81-0.61-4.23
					c12.27,3.91,22.61,12.18,29.18,22.98c-3.77,7.65-12.95,12.55-21.4,10.8c-1.52-0.32-3.07-0.81-4.59-0.47
					c-2.29,0.52-3.74,2.77-5.85,3.81c-4.25,2.09-9.6-2.06-9.98-6.78c-0.38-4.72,2.84-9.09,6.75-11.77
					C440.29,156.32,445.22,153.79,444.92,149.4z M424.79,216.19c0.81-3.71,2.17-8.02,5.79-9.16c3.65-1.15,7.6,1.69,11.32,0.78
					c4.02-0.98,5.82-6.13,4.58-10.07c-1.23-3.95-4.55-6.85-7.87-9.33c-4.7-3.5-11.51-6.54-16.01-2.78
					c-6.04-2.48-1.01-9.98-0.96-14.01c0.03-2.16-1.7-4.53-1.55-6.28c0.25-2.97,3.1-4.95,3.15-7.75c0.07-3.78-9.68-3.01-11.57-2.07
					c-4.94,2.46-7.08,9-12.24,11.66c-3.5,1.81-7.73,2.11-10.92,4.43c-3.04,2.21-4.6,5.87-6.03,9.35
					c-2.68,6.54-5.36,13.07-8.04,19.61c4.31,22.81,23.25,40.45,46.7,42.79C420.99,234.3,422.84,225.12,424.79,216.19z
					 M475.71,171.25c-3.31,2.67-7.14,5.01-9.97,7.57c-6.99,6.32-12.92,15.47-10.86,24.67c0.44,1.98,1.38,4.03,3.19,4.95
					c3.94,2.01,8.06-2.52,9.61-6.67c1.55-4.14,3.18-9.3,7.52-10.16c1.53-0.3,2.97,0.1,4.17,0.95c0.02-0.63,0.05-1.25,0.05-1.89
					C479.4,183.82,478.08,177.27,475.71,171.25z M383.86,167.49c1.54-1.91,2.53-4.21,3.99-6.18c2.55-3.44,6.35-5.7,10.09-7.8
					c3.74-2.1,7.6-4.19,10.4-7.44c1.5-1.74,2.64-3.91,3.11-6.16c-15.43,4.55-27.92,15.94-33.97,30.66c0.02,0,0.04,0.01,0.06,0.02
					C379.97,170.96,382.32,169.4,383.86,167.49z M475.64,210.27c-0.97,0.68-1.96,1.31-2.96,1.9c-4.27,2.53-8.92,4.94-11.53,9.16
					c-1.78,2.88-2.02,6.92-0.54,9.79C467.2,225.55,472.4,218.41,475.64,210.27z M430.77,219.34c-3.14,6.57,12.23,14.31,13.99,19.96
					c0.1,0.33,0.17,0.66,0.24,0.98c3.8-1.42,7.39-3.26,10.71-5.47C452.49,229.34,434.57,211.39,430.77,219.34z"/>
				<path class="st8" d="M426.46,231.3c-27.15,0-49.52-20.45-52.57-46.78c-0.23,2.02-0.37,4.08-0.37,6.16
					c0,29.24,23.7,52.94,52.94,52.94s52.94-23.7,52.94-52.94c0-2.09-0.13-4.14-0.37-6.16C475.98,210.86,453.61,231.3,426.46,231.3z"
					/>
			</g>
		</g>
		<g>
			
				<radialGradient id="SVGID_00000057148840283155535420000007298449370786034064_" cx="202.5885" cy="51.4034" r="97.7089" gradientTransform="matrix(0.7071 -0.7071 0.7071 0.7071 -103.5534 250)" gradientUnits="userSpaceOnUse">
				<stop  offset="0.3364" style="stop-color:#E83B46"/>
				<stop  offset="0.4253" style="stop-color:#E94149"/>
				<stop  offset="0.5437" style="stop-color:#EC5250"/>
				<stop  offset="0.6779" style="stop-color:#F26D5B"/>
				<stop  offset="0.7867" style="stop-color:#F78967"/>
				<stop  offset="0.8238" style="stop-color:#F89268"/>
				<stop  offset="0.8839" style="stop-color:#FAAA69"/>
				<stop  offset="0.9592" style="stop-color:#FDD16B"/>
				<stop  offset="1" style="stop-color:#FFE96D"/>
			</radialGradient>
			<circle style="fill:url(#SVGID_00000057148840283155535420000007298449370786034064_);" cx="123.3" cy="140.69" r="50.92"/>
			<g class="st10">
				<path class="st11" d="M154.2,133.21c-1.26-4.98-3.56-9.96-2.75-15.04c0.83-5.2,4.68-9.17,7.89-13.44
					c-3.41-3.42-7.33-6.37-11.67-8.74c0.03,20.02,2.58,40.29-2.89,59.45c-2.81,9.85-7.69,19.15-9.16,29.29
					c-0.26,1.8-0.42,3.63-0.52,5.49c0.99-0.24,1.96-0.5,2.93-0.79C148.29,172.16,159.12,152.64,154.2,133.21z"/>
				<path class="st11" d="M91.51,180.47c4.45-5.31,8.16-11.58,7.96-18.43c-0.26-9.06-7.31-17.28-6.03-26.24
					c1.5-10.5,13.98-17.98,12.69-28.52c-0.54-4.45-3.51-8.11-5.78-12.03c-6.97,3.52-13.11,8.62-17.85,14.95
					c1.42,11.99,2.85,23.98,4.27,35.98c0.88,7.38,1.68,15.22-1.53,21.92c-0.63,1.31-1.4,2.53-2.26,3.68
					C85.46,174.99,88.32,177.91,91.51,180.47z"/>
				<path class="st11" d="M162.31,170.46c0.08,0.89,0.16,1.78,0.26,2.66c4.78-5.77,8.35-12.69,10.23-20.47
					c3.16-13.07,0.96-26.17-5.18-37.01C163.65,133.75,160.73,152.08,162.31,170.46z"/>
				<path class="st11" d="M112.14,190.36c1.06-2.21,2.27-4.35,3.63-6.39c4.44-6.68,10.41-12.47,13.3-19.95
					c6.09-15.78-3.25-33.91,1.01-50.29c1.96-7.52,6.64-14.04,9.4-21.3c-1.38-0.46-2.78-0.88-4.22-1.23
					c-7.92-1.91-15.86-1.85-23.3-0.15c0.04,0.6,0.09,1.19,0.14,1.77c1.61,18.87,1.22,37.92-1.15,56.71
					c-1.62,12.86-4.17,25.57-7.16,38.19c2.41,1,4.93,1.82,7.54,2.45C111.61,190.25,111.88,190.3,112.14,190.36z"/>
			</g>
			<path class="st7" d="M172.79,141c-6.61,27.33-34.12,44.14-61.45,37.53c-21.31-5.15-36.21-23-38.62-43.57
				c-2.89,25.17,13.36,49.12,38.62,55.23c27.33,6.61,54.85-10.2,61.45-37.53c1.46-6.03,1.77-12.06,1.09-17.88
				C173.64,136.84,173.29,138.92,172.79,141z"/>
			
				<linearGradient id="SVGID_00000174561603869948776240000012005572378657158299_" gradientUnits="userSpaceOnUse" x1="-256.581" y1="669.2852" x2="-409.394" y2="772.6327" gradientTransform="matrix(0.8334 -0.5527 0.5527 0.8334 6.6149 -654.4987)">
				<stop  offset="0.0606" style="stop-color:#584057"/>
				<stop  offset="0.6365" style="stop-color:#5E575E"/>
				<stop  offset="1" style="stop-color:#606060"/>
			</linearGradient>
			<path style="opacity:0.6;fill:url(#SVGID_00000174561603869948776240000012005572378657158299_);" d="M139.95,92.57
				c1.9,0.66,3.78,1.44,5.62,2.34c5.35-4.88,9.45-7.11,11.43-5.81c1.99,1.3,1.58,5.94-0.73,12.8c-3.69,10.9-12.21,27.4-23.64,44.9
				c-11.42,17.49-23.1,31.93-31.6,39.69c-5.35,4.88-9.44,7.12-11.42,5.82c-1.99-1.3-1.59-5.95,0.72-12.81
				c-1.57-1.32-3.04-2.73-4.4-4.2c-15.38,27.93-23.27,48.52-18.8,51.43c4.47,2.92,20.13-12.59,39.52-37.9
				c8.94-11.66,18.68-25.42,28.46-40.41c9.79-14.99,18.47-29.43,25.56-42.32c15.38-27.93,23.28-48.51,18.81-51.43
				C175.02,51.76,159.35,67.26,139.95,92.57z"/>
		</g>
		<g>
			
				<linearGradient id="SVGID_00000076589634527042469350000002229302688239247774_" gradientUnits="userSpaceOnUse" x1="236.7097" y1="298.5883" x2="108.7426" y2="420.3634" gradientTransform="matrix(0.7071 -0.7071 0.7071 0.7071 -103.5534 250)">
				<stop  offset="0" style="stop-color:#FFFFFF"/>
				<stop  offset="0.178" style="stop-color:#FFFDF8"/>
				<stop  offset="0.4433" style="stop-color:#FFF6E3"/>
				<stop  offset="0.7615" style="stop-color:#FFEBC2"/>
				<stop  offset="1" style="stop-color:#FFE2A5"/>
			</linearGradient>
			<path style="fill:url(#SVGID_00000076589634527042469350000002229302688239247774_);" d="M745.14,159.01
				c-3.35-13.81-11.22-26.59-22.94-34.53c-14.16-9.59-33.97-11.08-48.44-1.96c-24.63,15.52-25.37,51.98-44.97,73.51
				c-8.7,9.55-20.56,15.51-32.22,21.08c-11.66,5.57-23.64,11.11-32.92,20.1c-13.79,13.36-13.39,32.05-17.12,49.63
				c-4.53,21.29-12.79,44.9-32.8,53.43c-17.71,7.55-37.8,0.4-56.28-5c-18.48-5.39-41.07-8-54.59,5.69
				c-11.12,11.26-13.22,31.19-27.69,37.59c-7.69,3.4-16.55,1.7-24.94,2.3c-10.58,0.76-17.75,17.65-27.71,22.66
				c-10.59,5.32-27.15,3.63-32.18-8.57c-2.5-6.05-2.32-12.81-2.86-19.34c-0.54-6.52-2.11-13.49-7.03-17.8
				c-4.74-4.15-14.04-6.14-14.65-13.64c-0.31-3.76,1.29-7.38,2.54-10.95c1.26-3.56,2.17-7.6,0.58-11.02
				c-2.5-5.36-10.03-6.95-12.37-12.38c-1.71-3.95-0.04-8.49-0.26-12.79c-0.16-3.27-4.72-11.51-8.6-12.49
				c-3.88,0.98-8.43,9.22-8.6,12.49c-0.22,4.3,1.45,8.84-0.26,12.79c-2.34,5.43-9.87,7.02-12.37,12.38
				c-1.59,3.42-0.68,7.46,0.58,11.02c1.26,3.56,2.85,7.18,2.54,10.95c-0.62,7.5-9.91,9.49-14.65,13.64
				c-4.93,4.31-6.5,11.28-7.04,17.8c-0.54,6.52-0.36,13.29-2.86,19.34c-5.03,12.2-21.59,13.9-32.18,8.57
				c-9.96-5.01-17.13-21.9-27.71-22.66c-8.39-0.6-17.25,1.1-24.94-2.3c-14.47-6.4-16.57-26.33-27.69-37.59
				c-13.53-13.7-36.11-11.09-54.59-5.69c-18.48,5.39-38.57,12.55-56.28,5c-20.02-8.54-28.28-32.15-32.8-53.43
				c-4.52-21.29-8.61-44.84-25.4-58.68c-0.15-0.13-0.31-0.24-0.47-0.37l-116.1,116.1l376.7,376.7l20.13-20.13L745.14,159.01z"/>
			
				<linearGradient id="SVGID_00000055670501961242399440000008808281793846904722_" gradientUnits="userSpaceOnUse" x1="129.8732" y1="368.8183" x2="-58.9809" y2="512.2652" gradientTransform="matrix(0.7071 -0.7071 0.7071 0.7071 -103.5534 250)">
				<stop  offset="0" style="stop-color:#FFFFFF"/>
				<stop  offset="0.178" style="stop-color:#FFFDF8"/>
				<stop  offset="0.4433" style="stop-color:#FFF6E3"/>
				<stop  offset="0.7615" style="stop-color:#FFEBC2"/>
				<stop  offset="1" style="stop-color:#FFE2A5"/>
			</linearGradient>
			<path style="fill:url(#SVGID_00000055670501961242399440000008808281793846904722_);" d="M735.78,168.38
				c-1.86-9.08-6.12-17.62-13-23.75c-9.74-8.67-25.09-11.39-36.24-4.63c-14.21,8.61-17.06,27.74-17.67,44.35
				c-0.62,16.61-1.4,35.35-13.82,46.38c-7.46,6.62-17.72,8.98-27.6,10.38c-9.88,1.4-20.07,2.15-29.11,6.37
				c-12.66,5.9-16.77,18.89-21.58,30.92c-11.02,27.52-23.15,87.76-64.47,82.27c-14.94-1.99-29.48-12.92-43.75-8.05
				c-12.66,4.32-18.11,18.79-22.52,31.42c-4.4,12.63-11.45,26.9-24.63,29.11c-15.61,2.62-28.54-13.55-44.31-14.87
				c-10.16-0.85-19.73,4.61-28.03,10.54c-8.3,5.92-16.48,12.67-26.4,15.04c-22.1,5.27-38.76-24.06-61.56-10.67
				c-10.43,6.13-15.48,20.67-27.36,22.95c-15.55,2.98-25.53-17.1-40.62-21.91c-20.43-6.52-41.11,16.88-61.88,11.54
				c-19.86-5.1-27.29-33.38-47.43-37.2c-15.42-2.93-31.36,10.35-46.11,5c-15.68-5.7-19.3-28.71-34.91-34.62
				c-23.13-8.76-43.7,24.43-66.81,13.63c-7.53-3.52-12.85-10.57-16.65-17.96c-3.81-7.39-6.43-15.36-10.4-22.67
				c-8.52-15.68-23.38-27.8-40.46-33c-4.54-1.38-9.22-2.26-13.95-2.66l-47.62,47.62l376.7,376.7L735.78,168.38z"/>
			
				<linearGradient id="SVGID_00000115490049907608381390000000351111601735772803_" gradientUnits="userSpaceOnUse" x1="47.3192" y1="413.6928" x2="-71.4024" y2="566.3347" gradientTransform="matrix(0.7071 -0.7071 0.7071 0.7071 -103.5534 250)">
				<stop  offset="0" style="stop-color:#FFFFFF"/>
				<stop  offset="0.178" style="stop-color:#FFFDF8"/>
				<stop  offset="0.4433" style="stop-color:#FFF6E3"/>
				<stop  offset="0.7615" style="stop-color:#FFEBC2"/>
				<stop  offset="1" style="stop-color:#FFE2A5"/>
			</linearGradient>
			<path style="fill:url(#SVGID_00000115490049907608381390000000351111601735772803_);" d="M467.85,438.84
				c-9.65-12.13-26.57-17.97-41.65-14.38c-15.08,3.59-32.28,16.02-35.44,31.19c-12.89-1.71-26.45,2.59-35.99,11.42
				c-9.54,8.83-12.23,18.61-11.51,31.59c-12.75-15.34-34.65-22.42-53.97-17.43c-19.32,4.99-39.2,19.26-42.93,38.85
				c-7.88-5.67-18.42-7.49-27.74-4.79c-9.33,2.7-17.26,9.87-20.88,18.88c-7.54-6.68-20.45,0.08-27.12,7.63
				c-13.8-19.47-37.74-31.3-61.58-30.45c-23.85,0.86-46.15,10.37-58.51,30.78c-8.12-13.1-22.89-21.82-38.28-22.6
				s-30.97,6.41-40.37,18.62l197.64,197.64L467.85,438.84z"/>
			<g class="st44">
				<path class="st45" d="M268.19,258.84c-0.19,0.19-0.19,0.49,0,0.68c0.19,0.19,0.49,0.19,0.68,0c0.19-0.19,0.19-0.49,0-0.68
					C268.69,258.66,268.38,258.65,268.19,258.84z M270.41,261.06c-0.19,0.19-0.19,0.49,0,0.68c0.19,0.19,0.49,0.19,0.68,0
					c0.19-0.19,0.19-0.49,0-0.68C270.9,260.87,270.6,260.87,270.41,261.06z M272.63,263.28c-0.19,0.19-0.19,0.49,0,0.68
					c0.19,0.19,0.49,0.19,0.68,0c0.19-0.19,0.19-0.49,0-0.68C273.12,263.09,272.81,263.09,272.63,263.28z M274.84,265.49
					c-0.19,0.19-0.19,0.49,0,0.68c0.19,0.19,0.49,0.19,0.68,0c0.19-0.19,0.19-0.49,0-0.68C275.34,265.3,275.03,265.3,274.84,265.49z
					 M277.06,267.71c-0.19,0.19-0.19,0.49,0,0.68c0.19,0.19,0.49,0.19,0.68,0c0.19-0.19,0.19-0.49,0-0.68
					C277.55,267.52,277.25,267.52,277.06,267.71z M279.27,269.92c-0.19,0.19-0.19,0.49,0,0.68s0.49,0.19,0.68,0
					c0.19-0.19,0.19-0.49,0-0.68C279.77,269.74,279.46,269.74,279.27,269.92z M281.49,272.14c-0.19,0.19-0.19,0.49,0,0.68
					s0.49,0.19,0.68,0c0.19-0.19,0.19-0.49,0-0.68C281.98,271.95,281.68,271.95,281.49,272.14z M283.71,274.36
					c-0.19,0.19-0.19,0.49,0,0.68c0.19,0.19,0.49,0.19,0.68,0c0.19-0.19,0.19-0.49,0-0.68C284.2,274.17,283.9,274.17,283.71,274.36z
					 M285.92,276.57c-0.19,0.19-0.19,0.49,0,0.68c0.19,0.19,0.49,0.19,0.68,0c0.19-0.19,0.19-0.49,0-0.68
					C286.42,276.38,286.11,276.38,285.92,276.57z M288.14,278.79c-0.19,0.19-0.19,0.49,0,0.68c0.19,0.19,0.49,0.19,0.68,0
					c0.19-0.19,0.19-0.49,0-0.68C288.63,278.6,288.33,278.6,288.14,278.79z M290.36,281.01c-0.19,0.19-0.19,0.49,0,0.68
					c0.19,0.19,0.49,0.19,0.68,0c0.19-0.19,0.19-0.49,0-0.68C290.85,280.82,290.54,280.82,290.36,281.01z M292.57,283.22
					c-0.19,0.19-0.19,0.49,0,0.68c0.19,0.19,0.49,0.19,0.68,0c0.19-0.19,0.19-0.49,0-0.68
					C293.07,283.03,292.76,283.03,292.57,283.22z M294.79,285.44c-0.19,0.19-0.19,0.49,0,0.68s0.49,0.19,0.68,0
					c0.19-0.19,0.19-0.49,0-0.68C295.28,285.25,294.98,285.25,294.79,285.44z M297,287.65c-0.19,0.19-0.19,0.49,0,0.68
					s0.49,0.19,0.68,0c0.19-0.19,0.19-0.49,0-0.68C297.5,287.47,297.19,287.47,297,287.65z M299.22,289.87
					c-0.19,0.19-0.19,0.49,0,0.68s0.49,0.19,0.68,0c0.19-0.19,0.19-0.49,0-0.68C299.71,289.68,299.41,289.68,299.22,289.87z"/>
			</g>
			<g class="st44">
				<path class="st45" d="M226.1,259.39c-0.19-0.19-0.49-0.19-0.68,0c-0.19,0.19-0.19,0.49,0,0.68c0.19,0.19,0.49,0.19,0.68,0
					C226.29,259.88,226.29,259.58,226.1,259.39z M223.88,261.6c-0.19-0.19-0.49-0.19-0.68,0c-0.19,0.19-0.19,0.49,0,0.68
					c0.19,0.19,0.49,0.19,0.68,0C224.07,262.1,224.07,261.79,223.88,261.6z M221.67,263.82c-0.19-0.19-0.49-0.19-0.68,0
					c-0.19,0.19-0.19,0.49,0,0.68c0.19,0.19,0.49,0.19,0.68,0C221.85,264.31,221.85,264.01,221.67,263.82z M219.45,266.04
					c-0.19-0.19-0.49-0.19-0.68,0c-0.19,0.19-0.19,0.49,0,0.68c0.19,0.19,0.49,0.19,0.68,0
					C219.64,266.53,219.64,266.23,219.45,266.04z M217.23,268.25c-0.19-0.19-0.49-0.19-0.68,0c-0.19,0.19-0.19,0.49,0,0.68
					c0.19,0.19,0.49,0.19,0.68,0C217.42,268.75,217.42,268.44,217.23,268.25z M215.02,270.47c-0.19-0.19-0.49-0.19-0.68,0
					c-0.19,0.19-0.19,0.49,0,0.68c0.19,0.19,0.49,0.19,0.68,0C215.21,270.96,215.21,270.66,215.02,270.47z M212.8,272.69
					c-0.19-0.19-0.49-0.19-0.68,0c-0.19,0.19-0.19,0.49,0,0.68c0.19,0.19,0.49,0.19,0.68,0
					C212.99,273.18,212.99,272.87,212.8,272.69z M210.59,274.9c-0.19-0.19-0.49-0.19-0.68,0c-0.19,0.19-0.19,0.49,0,0.68
					c0.19,0.19,0.49,0.19,0.68,0C210.77,275.4,210.77,275.09,210.59,274.9z M208.37,277.12c-0.19-0.19-0.49-0.19-0.68,0
					c-0.19,0.19-0.19,0.49,0,0.68c0.19,0.19,0.49,0.19,0.68,0C208.56,277.61,208.56,277.31,208.37,277.12z M206.15,279.33
					c-0.19-0.19-0.49-0.19-0.68,0c-0.19,0.19-0.19,0.49,0,0.68c0.19,0.19,0.49,0.19,0.68,0
					C206.34,279.83,206.34,279.52,206.15,279.33z M203.94,281.55c-0.19-0.19-0.49-0.19-0.68,0c-0.19,0.19-0.19,0.49,0,0.68
					c0.19,0.19,0.49,0.19,0.68,0C204.12,282.04,204.12,281.74,203.94,281.55z M201.72,283.77c-0.19-0.19-0.49-0.19-0.68,0
					c-0.19,0.19-0.19,0.49,0,0.68c0.19,0.19,0.49,0.19,0.68,0C201.91,284.26,201.91,283.95,201.72,283.77z M199.5,285.98
					c-0.19-0.19-0.49-0.19-0.68,0c-0.19,0.19-0.19,0.49,0,0.68c0.19,0.19,0.49,0.19,0.68,0
					C199.69,286.48,199.69,286.17,199.5,285.98z M197.29,288.2c-0.19-0.19-0.49-0.19-0.68,0c-0.19,0.19-0.19,0.49,0,0.68
					c0.19,0.19,0.49,0.19,0.68,0C197.48,288.69,197.48,288.39,197.29,288.2z M195.07,290.42c-0.19-0.19-0.49-0.19-0.68,0
					s-0.19,0.49,0,0.68c0.19,0.19,0.49,0.19,0.68,0C195.26,290.91,195.26,290.6,195.07,290.42z"/>
			</g>
		</g>
	</g>
</g>
<g id="DESIGNED_BY_FREEPIK">
</g>
</svg>
