<svg   id="chart"   width="1000"   height="500"   viewBox="0 0 1000 500"   xmlns="http://www.w3.org/2000/svg" >      <path d="M 0,495.61732950790446 C 10.600000000000001,492.16065274974 31.799999999999997,486.5428487535275 53,478.3339457170821 C 74.2,470.1250426806367 84.8,460.699372721693 106,454.5728143256775 C 127.2,448.44625592966196 137.8,451.13343836755257 159,447.7011537370044 C 180.2,444.26886910645624 190.8,446.0915677131577 212,437.41139117293676 C 233.2,428.7312146327159 243.8,418.2957957104365 265,404.30027103589987 C 286.2,390.30474636136324 296.8,381.22571930676673 318,367.4337678002537 C 339.2,353.64181629374065 349.8,344.26750833529064 371,335.34051350333453 C 392.2,326.4135186713784 402.8,336.1876397901333 424,322.7987936404732 C 445.2,309.4099474908131 455.8,276.9344884430747 477,268.39628275503406 C 498.2,259.8580770669934 508.8,289.57195868231275 530,280.1077652002699 C 551.2,270.64357171822707 561.8,214.16927901058844 583,221.07531534481984 C 604.2,227.98135167905124 614.8,325.75088971204065 636,314.63794687142695 C 657.2,303.52500403081325 667.8,189.7524684110034 689,165.5106011417514 C 710.2,141.2687338724994 720.8,192.33885114151576 742,193.42861052516702 C 763.2,194.51836990881827 773.8,163.04030169629988 795,170.9593980600077 C 816.2,178.8784944237155 826.8,236.67257300632787 848,233.02409234370606 C 869.2,229.37561168108425 879.8,185.97175825726862 901,152.7169947468987 C 922.2,119.4622312365288 932.8,93.9448220057057 954,66.75027479185655 C 975.2,39.55572757800741 996.4,26.74546190049368 1007,16.744258677652965,L 1000 500,L 0 500Z" fill="#47798f1a" />   <path d="M 0,495.61732950790446 C 10.600000000000001,492.16065274974 31.799999999999997,486.5428487535275 53,478.3339457170821 C 74.2,470.1250426806367 84.8,460.699372721693 106,454.5728143256775 C 127.2,448.44625592966196 137.8,451.13343836755257 159,447.7011537370044 C 180.2,444.26886910645624 190.8,446.0915677131577 212,437.41139117293676 C 233.2,428.7312146327159 243.8,418.2957957104365 265,404.30027103589987 C 286.2,390.30474636136324 296.8,381.22571930676673 318,367.4337678002537 C 339.2,353.64181629374065 349.8,344.26750833529064 371,335.34051350333453 C 392.2,326.4135186713784 402.8,336.1876397901333 424,322.7987936404732 C 445.2,309.4099474908131 455.8,276.9344884430747 477,268.39628275503406 C 498.2,259.8580770669934 508.8,289.57195868231275 530,280.1077652002699 C 551.2,270.64357171822707 561.8,214.16927901058844 583,221.07531534481984 C 604.2,227.98135167905124 614.8,325.75088971204065 636,314.63794687142695 C 657.2,303.52500403081325 667.8,189.7524684110034 689,165.5106011417514 C 710.2,141.2687338724994 720.8,192.33885114151576 742,193.42861052516702 C 763.2,194.51836990881827 773.8,163.04030169629988 795,170.9593980600077 C 816.2,178.8784944237155 826.8,236.67257300632787 848,233.02409234370606 C 869.2,229.37561168108425 879.8,185.97175825726862 901,152.7169947468987 C 922.2,119.4622312365288 932.8,93.9448220057057 954,66.75027479185655 C 975.2,39.55572757800741 996.4,26.74546190049368 1007,16.744258677652965" fill="none" stroke="#47798f" stroke-width="2px" />   <g>   		<circle cx="0" cy="495.61732950790446" r="6" fill="#47798f" />,		<circle cx="53" cy="478.3339457170821" r="6" fill="#47798f" />,		<circle cx="106" cy="454.5728143256775" r="6" fill="#47798f" />,		<circle cx="159" cy="447.7011537370044" r="6" fill="#47798f" />,		<circle cx="212" cy="437.41139117293676" r="6" fill="#47798f" />,		<circle cx="265" cy="404.30027103589987" r="6" fill="#47798f" />,		<circle cx="318" cy="367.4337678002537" r="6" fill="#47798f" />,		<circle cx="371" cy="335.34051350333453" r="6" fill="#47798f" />,		<circle cx="424" cy="322.7987936404732" r="6" fill="#47798f" />,		<circle cx="477" cy="268.39628275503406" r="6" fill="#47798f" />,		<circle cx="530" cy="280.1077652002699" r="6" fill="#47798f" />,		<circle cx="583" cy="221.07531534481984" r="6" fill="#47798f" />,		<circle cx="636" cy="314.63794687142695" r="6" fill="#47798f" />,		<circle cx="689" cy="165.5106011417514" r="6" fill="#47798f" />,		<circle cx="742" cy="193.42861052516702" r="6" fill="#47798f" />,		<circle cx="795" cy="170.9593980600077" r="6" fill="#47798f" />,		<circle cx="848" cy="233.02409234370606" r="6" fill="#47798f" />,		<circle cx="901" cy="152.7169947468987" r="6" fill="#47798f" />,		<circle cx="954" cy="66.75027479185655" r="6" fill="#47798f" />,		<circle cx="1007" cy="16.744258677652965" r="6" fill="#47798f" />   </g> </svg>