<svg   id="chart"   width="1000"   height="500"   viewBox="0 0 1000 500"   xmlns="http://www.w3.org/2000/svg" >      <path d="M 0,493.8512765486068 C 10.6,492.1721815113298 31.8,494.5308380530466 53,485.455801362222 C 74.2,476.38076467139746 84.8,457.6160646073328 106,448.4760930944839 C 127.2,439.3361215816349 137.8,442.5064235092767 159,439.7559437979774 C 180.2,437.0054640866781 190.8,446.6919044665337 212,434.72369453798734 C 233.2,422.755484609441 243.8,384.2733391830388 265,379.9148941552458 C 286.2,375.5564491274528 296.8,408.56457765350564 318,412.9314693990225 C 339.2,417.29836114453934 349.8,424.55180539043795 371,401.7493528828301 C 392.2,378.9469003752223 402.8,312.9195250063434 424,298.9192068609833 C 445.2,284.9188887156232 455.8,327.4108099422257 477,331.7477621560296 C 498.2,336.0847143698335 508.8,333.2928559994262 530,320.6039679300028 C 551.2,307.9150798605794 561.8,290.7019751898641 583,268.30332180891253 C 604.2,245.90466842796098 614.8,219.67627048860984 636,208.61070102524502 C 657.2,197.5451315618802 667.8,212.17807001884367 689,212.97547449208844 C 710.2,213.77287896533323 720.8,198.54273365614185 742,212.59772339146895 C 763.2,226.65271312679607 773.8,269.1442097174722 795,283.250423168724 C 816.2,297.3566366199758 826.8,289.8838065210846 848,283.12879064772784 C 869.2,276.3737747743711 879.8,277.41278181397604 901,249.4753438019403 C 922.2,221.53790578990456 932.8,155.29521961376835 954,143.4416005875491 C 975.2,131.58798156132983 996.4,180.854119054185 1007,190.20724867084397,L 1000 500,L 0 500Z" fill="#444cf71a" />   <path d="M 0,493.8512765486068 C 10.6,492.1721815113298 31.8,494.5308380530466 53,485.455801362222 C 74.2,476.38076467139746 84.8,457.6160646073328 106,448.4760930944839 C 127.2,439.3361215816349 137.8,442.5064235092767 159,439.7559437979774 C 180.2,437.0054640866781 190.8,446.6919044665337 212,434.72369453798734 C 233.2,422.755484609441 243.8,384.2733391830388 265,379.9148941552458 C 286.2,375.5564491274528 296.8,408.56457765350564 318,412.9314693990225 C 339.2,417.29836114453934 349.8,424.55180539043795 371,401.7493528828301 C 392.2,378.9469003752223 402.8,312.9195250063434 424,298.9192068609833 C 445.2,284.9188887156232 455.8,327.4108099422257 477,331.7477621560296 C 498.2,336.0847143698335 508.8,333.2928559994262 530,320.6039679300028 C 551.2,307.9150798605794 561.8,290.7019751898641 583,268.30332180891253 C 604.2,245.90466842796098 614.8,219.67627048860984 636,208.61070102524502 C 657.2,197.5451315618802 667.8,212.17807001884367 689,212.97547449208844 C 710.2,213.77287896533323 720.8,198.54273365614185 742,212.59772339146895 C 763.2,226.65271312679607 773.8,269.1442097174722 795,283.250423168724 C 816.2,297.3566366199758 826.8,289.8838065210846 848,283.12879064772784 C 869.2,276.3737747743711 879.8,277.41278181397604 901,249.4753438019403 C 922.2,221.53790578990456 932.8,155.29521961376835 954,143.4416005875491 C 975.2,131.58798156132983 996.4,180.854119054185 1007,190.20724867084397" fill="none" stroke="#444cf7" stroke-width="4px" />   <g>   		<circle cx="0" cy="493.8512765486068" r="8" fill="#444cf7" />,		<circle cx="53" cy="485.455801362222" r="8" fill="#444cf7" />,		<circle cx="106" cy="448.4760930944839" r="8" fill="#444cf7" />,		<circle cx="159" cy="439.7559437979774" r="8" fill="#444cf7" />,		<circle cx="212" cy="434.72369453798734" r="8" fill="#444cf7" />,		<circle cx="265" cy="379.9148941552458" r="8" fill="#444cf7" />,		<circle cx="318" cy="412.9314693990225" r="8" fill="#444cf7" />,		<circle cx="371" cy="401.7493528828301" r="8" fill="#444cf7" />,		<circle cx="424" cy="298.9192068609833" r="8" fill="#444cf7" />,		<circle cx="477" cy="331.7477621560296" r="8" fill="#444cf7" />,		<circle cx="530" cy="320.6039679300028" r="8" fill="#444cf7" />,		<circle cx="583" cy="268.30332180891253" r="8" fill="#444cf7" />,		<circle cx="636" cy="208.61070102524502" r="8" fill="#444cf7" />,		<circle cx="689" cy="212.97547449208844" r="8" fill="#444cf7" />,		<circle cx="742" cy="212.59772339146895" r="8" fill="#444cf7" />,		<circle cx="795" cy="283.250423168724" r="8" fill="#444cf7" />,		<circle cx="848" cy="283.12879064772784" r="8" fill="#444cf7" />,		<circle cx="901" cy="249.4753438019403" r="8" fill="#444cf7" />,		<circle cx="954" cy="143.4416005875491" r="8" fill="#444cf7" />,		<circle cx="1007" cy="190.20724867084397" r="8" fill="#444cf7" />   </g> </svg>