<?xml version="1.0" encoding="UTF-8" standalone="no"?>
<!-- Created with Inkscape (http://www.inkscape.org/) -->

<svg
   width="24mm"
   height="14mm"
   viewBox="0 0 48.202782 28.758623"
   version="1.1"
   id="svg618"
   inkscape:version="1.2 (dc2aedaf03, 2022-05-15)"
   sodipodi:docname="logo-azul.svg"
   xmlns:inkscape="http://www.inkscape.org/namespaces/inkscape"
   xmlns:sodipodi="http://sodipodi.sourceforge.net/DTD/sodipodi-0.dtd"
   xmlns="http://www.w3.org/2000/svg"
   xmlns:svg="http://www.w3.org/2000/svg">
  <sodipodi:namedview
     id="namedview620"
     pagecolor="#ffffff"
     bordercolor="#000000"
     borderopacity="0.25"
     inkscape:showpageshadow="2"
     inkscape:pageopacity="0.0"
     inkscape:pagecheckerboard="0"
     inkscape:deskcolor="#d1d1d1"
     inkscape:document-units="mm"
     showgrid="false"
     inkscape:zoom="0.75455247"
     inkscape:cx="-384.99642"
     inkscape:cy="238.552"
     inkscape:window-width="1920"
     inkscape:window-height="1027"
     inkscape:window-x="-8"
     inkscape:window-y="-8"
     inkscape:window-maximized="1"
     inkscape:current-layer="layer1" />
  <defs
     id="defs615">
    <clipPath
       clipPathUnits="userSpaceOnUse"
       id="clipPath495">
      <path
         d="m -264.915,838.1625 h 595.276 v -955.023 h -595.276 z"
         id="path497"
         style="stroke-width:0.999998" />
    </clipPath>
    <clipPath
       clipPathUnits="userSpaceOnUse"
       id="clipPath491">
      <path
         d="m -115.9463,838.1235 h 595.276 v -955.023 h -595.276 z"
         id="path493"
         style="stroke-width:0.999998" />
    </clipPath>
    <clipPath
       clipPathUnits="userSpaceOnUse"
       id="clipPath487">
      <path
         d="m -203.1445,838.1235 h 595.276 v -955.023 h -595.276 z"
         id="path489"
         style="stroke-width:0.999998" />
    </clipPath>
    <clipPath
       clipPathUnits="userSpaceOnUse"
       id="clipPath483">
      <path
         d="m -483.7939,838.1625 h 595.276 v -955.023 h -595.276 z"
         id="path485"
         style="stroke-width:0.999998" />
    </clipPath>
    <clipPath
       clipPathUnits="userSpaceOnUse"
       id="clipPath479">
      <path
         d="m -334.8242,838.1235 h 595.276 v -955.023 h -595.276 z"
         id="path481"
         style="stroke-width:0.999998" />
    </clipPath>
    <clipPath
       clipPathUnits="userSpaceOnUse"
       id="clipPath475">
      <path
         d="m -422.0225,838.1235 h 595.276 v -955.023 h -595.276 z"
         id="path477"
         style="stroke-width:0.999998" />
    </clipPath>
  </defs>
  <g
     inkscape:label="Camada 1"
     inkscape:groupmode="layer"
     id="layer1"
     transform="translate(-84.279141,-132.54286)">
    <g
       id="g854"
       transform="translate(143.41558,32.61039)">
      <g
         id="g54"
         transform="matrix(0.35277777,0,0,-0.35277777,-54.479772,114.29776)"
         clip-path="url(#clipPath479)">
        <path
           d="m 0,0 c 0,-5.359 3.44,-8.96 8.24,-8.96 4.721,0 8.16,3.601 8.16,8.96 0,5.36 -3.439,8.96 -8.16,8.96 C 3.44,8.96 0,5.36 0,0 m 16.801,-14.88 c -2.88,-3.76 -7.04,-5.92 -12,-5.92 -10.641,0 -18.001,8.16 -18.001,20.8 0,12.641 7.36,20.801 18.001,20.801 4.72,0 8.72,-2 11.599,-5.441 V 40.001 H 30.001 V -20 h -13.2 z"
           style="fill:#fff;fill-opacity:1;fill-rule:nonzero;stroke:none"
           id="path56" />
      </g>
      <path
         d="m -41.07464,107.24167 h 4.79813 v 14.11146 h -4.79813 z m -0.338667,-4.71311 c 0,-1.46756 1.157464,-2.596091 2.737908,-2.596091 1.608667,0 2.765778,1.128531 2.765778,2.596091 0,1.46756 -1.157111,2.62502 -2.765778,2.62502 -1.580444,0 -2.737908,-1.15746 -2.737908,-2.62502"
         style="fill:#fff;fill-opacity:1;fill-rule:nonzero;stroke:none;stroke-width:0.352778"
         id="path58" />
      <g
         id="g60"
         transform="matrix(0.35277777,0,0,-0.35277777,-23.718146,114.29776)"
         clip-path="url(#clipPath475)">
        <path
           d="m 0,0 c 0,5.36 -3.439,8.96 -8.16,8.96 -4.799,0 -8.239,-3.6 -8.239,-8.96 0,-5.359 3.44,-8.96 8.239,-8.96 C -3.439,-8.96 0,-5.359 0,0 m -7.6,-40.8 c -11.679,0 -19.759,6.88 -21.2,17.6 h 12.88 c 0.641,-4.4 3.6,-7.2 7.92,-7.2 5.2,0 8,3.6 8,9.2 v 5.841 C -2.88,-18.8 -6.88,-20.8 -11.6,-20.8 c -10.639,0 -18,8.16 -18,20.8 0,12.641 7.361,20.801 18,20.801 4.96,0 9.121,-2.16 12,-5.92 v 5.12 H 13.601 V -20.8 c 0,-12.16 -9.201,-20 -21.201,-20"
           style="fill:#fff;fill-opacity:1;fill-rule:nonzero;stroke:none"
           id="path62" />
      </g>
      <path
         d="m -16.098676,107.24167 h 4.79813 v 14.11146 h -4.79813 z m -0.33867,-4.71311 c 0,-1.46756 1.15711,-2.596091 2.73791,-2.596091 1.60831,0 2.76578,1.128531 2.76578,2.596091 0,1.46756 -1.15747,2.62502 -2.76578,2.62502 -1.5808,0 -2.73791,-1.15746 -2.73791,-2.62502"
         style="fill:#fff;fill-opacity:1;fill-rule:nonzero;stroke:none;stroke-width:0.352778"
         id="path64" />
    </g>
  </g>
</svg>
