<?xml version="1.0" encoding="iso-8859-1"?>
<!-- Generator: Adobe Illustrator 19.0.0, SVG Export Plug-In . SVG Version: 6.00 Build 0)  -->
<svg version="1.1" id="Layer_1" xmlns="http://www.w3.org/2000/svg" xmlns:xlink="http://www.w3.org/1999/xlink" x="0px" y="0px"
	 viewBox="0 0 512 512" style="enable-background:new 0 0 512 512;" xml:space="preserve">
<circle style="fill:#E1E5EA;" cx="256" cy="256" r="256"/>
<rect x="74.872" y="146.336" style="fill:#FFFFFF;" width="362.24" height="257.68"/>
<g>
	<polygon style="fill:#E1E5EA;" points="337.912,377.288 174.088,377.288 147.224,397.712 364.776,397.712 	"/>
	<polygon style="fill:#E1E5EA;" points="153.448,377.288 106.232,377.288 79.368,397.712 126.68,397.712 	"/>
	<polygon style="fill:#E1E5EA;" points="405.768,377.288 358.552,377.288 385.32,397.712 432.632,397.712 	"/>
	<polygon style="fill:#E1E5EA;" points="337.912,173.608 174.088,173.608 147.224,153.184 364.776,153.184 	"/>
	<polygon style="fill:#E1E5EA;" points="153.448,173.608 106.232,173.608 79.368,153.184 126.68,153.184 	"/>
	<polygon style="fill:#E1E5EA;" points="405.768,173.608 358.552,173.608 385.32,153.184 432.632,153.184 	"/>
</g>
<path style="fill:#FFFFFF;" d="M434.248,149.216v251.92H77.752v-251.92L434.248,149.216 M440,143.464H72V406.88h368V143.464
	L440,143.464z"/>
<path d="M72,153.184v-45.808c0-6.328,5.176-11.504,11.504-11.504h344.968c6.328,0,11.504,5.176,11.504,11.504v45.808H72L72,153.184z
	"/>
<polygon style="fill:#FFFFFF;" points="410.976,140.344 195.288,140.344 215.92,108.72 410.976,108.72 "/>
<circle style="fill:#DB2B42;" cx="110.744" cy="124.096" r="9.784"/>
<circle style="fill:#8AD5DD;" cx="136.64" cy="124.096" r="9.784"/>
<circle style="fill:#939393;" cx="162.6" cy="124.096" r="9.784"/>
<path d="M226.976,118.592l1.376,5.976c0.296,1.4,0.6,2.832,0.84,4.264h0.056c0.272-1.432,0.704-2.896,1.08-4.24l1.704-6h2.704
	l1.648,5.84c0.4,1.544,0.752,2.976,1.056,4.408h0.056c0.216-1.432,0.512-2.864,0.864-4.408l1.464-5.84h3.264l-4.136,13.16h-3.08
	l-1.576-5.352c-0.4-1.376-0.704-2.624-1-4.216h-0.056c-0.272,1.624-0.616,2.92-1,4.216l-1.672,5.352h-3.112l-3.888-13.16
	C223.568,118.592,226.976,118.592,226.976,118.592z"/>
<path d="M247.648,118.592l1.376,5.976c0.296,1.4,0.6,2.832,0.84,4.264h0.056c0.272-1.432,0.704-2.896,1.08-4.24l1.704-6h2.704
	l1.648,5.84c0.4,1.544,0.752,2.976,1.056,4.408h0.056c0.216-1.432,0.512-2.864,0.864-4.408l1.464-5.84h3.264l-4.136,13.16h-3.08
	l-1.568-5.352c-0.4-1.376-0.704-2.624-1-4.216h-0.056c-0.272,1.624-0.616,2.92-1,4.216l-1.672,5.352h-3.112l-3.896-13.16
	C244.24,118.592,247.648,118.592,247.648,118.592z"/>
<path d="M268.328,118.592l1.376,5.976c0.296,1.4,0.6,2.832,0.84,4.264h0.056c0.272-1.432,0.704-2.896,1.08-4.24l1.704-6h2.704
	l1.648,5.84c0.4,1.544,0.752,2.976,1.056,4.408h0.056c0.216-1.432,0.512-2.864,0.864-4.408l1.464-5.84h3.264l-4.136,13.16h-3.08
	l-1.568-5.352c-0.4-1.376-0.704-2.624-1-4.216H274.6c-0.272,1.624-0.616,2.92-1,4.216l-1.672,5.352h-3.112l-3.896-13.16
	C264.92,118.592,268.328,118.592,268.328,118.592z"/>
<path d="M284.968,129.912c0-1.248,0.864-2.136,2.056-2.136c1.216,0,2.056,0.864,2.056,2.136c0,1.216-0.808,2.136-2.056,2.136
	C285.816,132.048,284.968,131.128,284.968,129.912z"/>
<polygon points="318.304,401.032 193.696,401.032 210.944,387.92 301.056,387.92 "/>
<rect x="72" y="397.712" width="368" height="9.176"/>
<polygon points="432.632,397.712 385.32,397.712 364.776,397.712 147.224,397.712 126.68,397.712 79.368,397.712 72,397.712 
	72,406.888 440,406.888 440,397.712 "/>
<polygon points="388.504,133.872 386.448,131.864 393.56,124.56 386.024,117.208 388.032,115.16 397.624,124.504 "/>
<rect x="375.04" y="123.088" width="18.984" height="2.872"/>
<rect x="124.584" y="199.176" style="fill:#DB2B42;" width="262.84" height="78.608"/>
<g>
	<rect x="124.584" y="343.176" style="fill:#C9C9C9;" width="262.84" height="8"/>
	<rect x="124.584" y="322.48" style="fill:#C9C9C9;" width="262.84" height="8"/>
	<rect x="124.584" y="301.792" style="fill:#C9C9C9;" width="262.84" height="8"/>
</g>
<g>
</g>
<g>
</g>
<g>
</g>
<g>
</g>
<g>
</g>
<g>
</g>
<g>
</g>
<g>
</g>
<g>
</g>
<g>
</g>
<g>
</g>
<g>
</g>
<g>
</g>
<g>
</g>
<g>
</g>
</svg>
